<svg xmlns="http://www.w3.org/2000/svg" viewBox="0 0 2636.47 668.14"><defs><style>.cls-1{isolation:isolate;}.cls-2{opacity:0.8;mix-blend-mode:multiply;}.cls-3{fill:none;opacity:0;}.cls-10,.cls-11,.cls-12,.cls-13,.cls-14,.cls-15,.cls-16,.cls-17,.cls-18,.cls-19,.cls-20,.cls-21,.cls-22,.cls-23,.cls-24,.cls-25,.cls-26,.cls-27,.cls-28,.cls-29,.cls-30,.cls-31,.cls-32,.cls-33,.cls-34,.cls-4,.cls-5,.cls-6,.cls-7,.cls-8,.cls-9{fill:#b3b3b3;}.cls-4{opacity:0.02;}.cls-5{opacity:0.04;}.cls-6{opacity:0.06;}.cls-7{opacity:0.08;}.cls-8{opacity:0.1;}.cls-9{opacity:0.12;}.cls-10{opacity:0.14;}.cls-11{opacity:0.15;}.cls-12{opacity:0.17;}.cls-13{opacity:0.19;}.cls-14{opacity:0.21;}.cls-15{opacity:0.23;}.cls-16{opacity:0.25;}.cls-17{opacity:0.27;}.cls-18{opacity:0.29;}.cls-19{opacity:0.31;}.cls-20{opacity:0.33;}.cls-21{opacity:0.35;}.cls-22{opacity:0.37;}.cls-23{opacity:0.39;}.cls-24{opacity:0.41;}.cls-25{opacity:0.43;}.cls-26{opacity:0.45;}.cls-27{opacity:0.46;}.cls-28{opacity:0.48;}.cls-29{opacity:0.5;}.cls-30{opacity:0.52;}.cls-31{opacity:0.54;}.cls-32{opacity:0.56;}.cls-33{opacity:0.58;}.cls-34{opacity:0.6;}.cls-35{font-size:197.61px;letter-spacing:0.3em;}.cls-35,.cls-39,.cls-41{fill:#010101;}.cls-35,.cls-39{font-family:BarlowCondensed-Regular, Barlow Condensed;}.cls-36{letter-spacing:0.27em;}.cls-37{letter-spacing:0.3em;}.cls-38{letter-spacing:0.29em;}.cls-39{font-size:182.62px;letter-spacing:0.3em;}.cls-40{letter-spacing:0.28em;}.cls-42{fill:#f5eb0d;}</style></defs><g class="cls-1"><g id="Layer_2" data-name="Layer 2"><g id="Layer_1-2" data-name="Layer 1"><g id="shadow" class="cls-2"><ellipse class="cls-3" cx="304.7" cy="650.15" rx="281.96" ry="17.99"/><ellipse class="cls-4" cx="304.7" cy="650.15" rx="274.57" ry="17.52"/><ellipse class="cls-5" cx="304.7" cy="650.15" rx="267.18" ry="17.05"/><ellipse class="cls-6" cx="304.7" cy="650.15" rx="259.79" ry="16.58"/><ellipse class="cls-7" cx="304.7" cy="650.15" rx="252.41" ry="16.11"/><ellipse class="cls-8" cx="304.7" cy="650.15" rx="245.02" ry="15.63"/><ellipse class="cls-9" cx="304.7" cy="650.15" rx="237.63" ry="15.16"/><ellipse class="cls-10" cx="304.7" cy="650.15" rx="230.24" ry="14.69"/><ellipse class="cls-11" cx="304.7" cy="650.15" rx="222.85" ry="14.22"/><ellipse class="cls-12" cx="304.7" cy="650.15" rx="215.46" ry="13.75"/><ellipse class="cls-13" cx="304.7" cy="650.15" rx="208.07" ry="13.28"/><ellipse class="cls-14" cx="304.7" cy="650.15" rx="200.68" ry="12.81"/><ellipse class="cls-15" cx="304.7" cy="650.15" rx="193.29" ry="12.33"/><ellipse class="cls-16" cx="304.7" cy="650.15" rx="185.9" ry="11.86"/><ellipse class="cls-17" cx="304.7" cy="650.15" rx="178.51" ry="11.39"/><ellipse class="cls-18" cx="304.7" cy="650.15" rx="171.12" ry="10.92"/><ellipse class="cls-19" cx="304.7" cy="650.15" rx="163.73" ry="10.45"/><ellipse class="cls-20" cx="304.7" cy="650.15" rx="156.34" ry="9.98"/><ellipse class="cls-21" cx="304.7" cy="650.15" rx="148.96" ry="9.5"/><ellipse class="cls-22" cx="304.7" cy="650.15" rx="141.57" ry="9.03"/><ellipse class="cls-23" cx="304.7" cy="650.15" rx="134.18" ry="8.56"/><ellipse class="cls-24" cx="304.7" cy="650.15" rx="126.79" ry="8.09"/><ellipse class="cls-25" cx="304.7" cy="650.15" rx="119.4" ry="7.62"/><ellipse class="cls-26" cx="304.7" cy="650.15" rx="112.01" ry="7.15"/><ellipse class="cls-27" cx="304.7" cy="650.15" rx="104.62" ry="6.68"/><ellipse class="cls-28" cx="304.7" cy="650.15" rx="97.23" ry="6.2"/><ellipse class="cls-29" cx="304.7" cy="650.15" rx="89.84" ry="5.73"/><ellipse class="cls-30" cx="304.7" cy="650.15" rx="82.45" ry="5.26"/><ellipse class="cls-31" cx="304.7" cy="650.15" rx="75.06" ry="4.79"/><ellipse class="cls-32" cx="304.7" cy="650.15" rx="67.67" ry="4.32"/><ellipse class="cls-33" cx="304.7" cy="650.15" rx="60.28" ry="3.85"/><ellipse class="cls-34" cx="304.7" cy="650.15" rx="52.89" ry="3.38"/></g><text class="cls-35" transform="translate(708.84 243.03)">BI<tspan class="cls-36" x="249.77" y="0">T</tspan><tspan class="cls-37" x="386.51" y="0">COIN WI</tspan><tspan class="cls-38" x="1324.74" y="0">S</tspan><tspan class="cls-37" x="1464.84" y="0">DOM</tspan></text><text class="cls-39" transform="translate(710 483.54)">FOR BU<tspan class="cls-40" x="772.1" y="0">S</tspan><tspan x="899.38" y="0">Y PEOPLE</tspan></text><path class="cls-41" d="M297.72,259.17V39.48a1.84,1.84,0,0,0-.46-1.21.41.41,0,0,0-.16-.16.84.84,0,0,0-.23-.18l0,0-.09,0L228.5.27l-.08,0a1.91,1.91,0,0,0-.9-.23,1.69,1.69,0,0,0-.38,0,2.41,2.41,0,0,0-.45.16,1.28,1.28,0,0,0-.23.15.14.14,0,0,0-.1.07s0,0-.05,0l-.05,0-.11.11c-.06.06-.1.12-.15.18L176.25,58.91,88.89,104.66l-.11,0a1.18,1.18,0,0,0-.22.14,1.38,1.38,0,0,0-.26.23l0,0-.07.09L28.46,170.5a.75.75,0,0,0-.17.19h0l-.08.09a.16.16,0,0,0-.05.09.92.92,0,0,0-.14.28.65.65,0,0,0-.08.22s0,0,0,.05a.7.7,0,0,0,0,.14,1.6,1.6,0,0,0,0,.72l12.34,50.77L.42,280.75l-.09.13a1.38,1.38,0,0,0-.14.24,2,2,0,0,0-.1.26,1.31,1.31,0,0,0-.06.27,1.27,1.27,0,0,0,0,.28,1.43,1.43,0,0,0,0,.29,1.16,1.16,0,0,0,.07.31,1.39,1.39,0,0,0,.12.28l26.24,48.33-1.38,63.53v.09a1.43,1.43,0,0,0,.1.64.72.72,0,0,0,.09.2s0,0,0,0a.68.68,0,0,0,.09.17.94.94,0,0,0,.16.2l63.6,80.2-2.75,45.26a1.89,1.89,0,0,0,.8,1.64l78,54.34a2.69,2.69,0,0,0,.29.16L203,594.75h0l.16.08h.1l.1,0a.35.35,0,0,1,.11,0h.12a0,0,0,0,0,0,0l.32,0h0l.25,0h.05l.33-.09.17-.08a.05.05,0,0,0,.05,0,.87.87,0,0,0,.19-.1L236.66,579l59.73-20.83h0s0,0,0,0h0l.21-.09a.66.66,0,0,0,.2-.11l.14-.11.23-.21a2.06,2.06,0,0,0,.25-.4s.05-.12.08-.17a.24.24,0,0,0,0-.09l0-.14a.94.94,0,0,0,0-.16s0,0,0,0v0a1.25,1.25,0,0,0,0-.19.71.71,0,0,0,0-.21ZM167.19,574.31l-77-53.65L92.63,480,195.78,587.38ZM48.42,298.58l9.9,3.12a11.15,11.15,0,0,0,4.92,10.54L29,386l1.21-55.24a1.84,1.84,0,0,0-.22-.92L5.69,285.09Zm18.23,15.16a10.84,10.84,0,0,0,2.67.32,11.06,11.06,0,0,0,9.74-5.79l68,21.45c0,.25,0,.5,0,.76a11,11,0,0,0,4.5,8.91l-6.82,14.86L30.43,391.69Zm49.87-107.33.51-1.11a.07.07,0,0,0,.06,0l.66.18.66.14c.15,0,.32.06.49.09s.41.05.63.06a8.57,8.57,0,0,0,.89,0c.31,0,.6,0,.91,0s.53,0,.78-.09a3.7,3.7,0,0,0,.48-.09l.35-.07.63-.17.75-.24a11.15,11.15,0,0,0,2.2-1.13,3.78,3.78,0,0,0,.61-.44,9.31,9.31,0,0,0,1.16-1c.14-.13.25-.26.37-.39s.11-.12.16-.19.27-.32.4-.48.31-.43.45-.64.29-.47.42-.71a2.38,2.38,0,0,0,.23-.45,1.43,1.43,0,0,0,.12-.21l64,23.85a11.64,11.64,0,0,0-.09,1.45,11.15,11.15,0,0,0,5.39,9.52l-39.18,85.4a10.78,10.78,0,0,0-2.48-.28,11.14,11.14,0,0,0-10.16,6.7L80.26,304.75A11.73,11.73,0,0,0,80.4,303a11,11,0,0,0-4.58-9ZM294,256.47l-77.83-29a11.45,11.45,0,0,0,.33-2.69,11,11,0,0,0-1.33-5.26L294,151.72ZM158.07,341.56a11,11,0,0,0,9.49-5.34l11.06,3.49c0,.27,0,.55,0,.82a11,11,0,0,0,.28,2.51l-29.36,9.62,5.31-11.59A11.13,11.13,0,0,0,158.07,341.56Zm31.59-12.09a11,11,0,0,0-10.13,6.63l-10.61-3.36a11.33,11.33,0,0,0,.23-2.26,11,11,0,0,0-5.16-9.36l39.23-85.49a10.77,10.77,0,0,0,3.11.18l18,65.87a11,11,0,0,0-7.18,10.37,10.8,10.8,0,0,0,1.18,4.94l-20.57,16A11,11,0,0,0,189.66,329.47Zm45.65-172.66-26.38,57.45a11.27,11.27,0,0,0-3.51-.57,11.15,11.15,0,0,0-9.89,6.09l-64.09-23.9a1.41,1.41,0,0,0,0-.21,1,1,0,0,0,0-.17c0-.25,0-.49,0-.74s0-.52,0-.79-.05-.52-.09-.78a4.76,4.76,0,0,0-.14-.77,6.14,6.14,0,0,0-.18-.74l101-38.41A11,11,0,0,0,235.31,156.81Zm-55,189.66a11,11,0,0,0,8.39,5.1l4.58,83.12-.27.07-.06,0a8.51,8.51,0,0,0-.85.29l-.18.07c-.23.1-.46.2-.69.32a6.91,6.91,0,0,0-1.05.6,8.68,8.68,0,0,0-1.53,1.18,11,11,0,0,0-1.89,2.29c-.15.24-.29.49-.41.73a2.72,2.72,0,0,0-.16.35,2.11,2.11,0,0,0-.21.46,3,3,0,0,0-.15.38,4.23,4.23,0,0,0-.24.71.76.76,0,0,0-.06.18,3.77,3.77,0,0,0-.14.58,3.94,3.94,0,0,0-.1.47,9.26,9.26,0,0,0-.13.92,7,7,0,0,0,0,.92L94.45,472.65l52.94-115.38Zm47.9-45.5H228l-18.06-66.08a11.21,11.21,0,0,0,4.74-4l77.41,28.85-56.6,44A11,11,0,0,0,228.22,301Zm38.19-198.66a.17.17,0,0,0,.1,0c.19.06.4.11.59.15a7,7,0,0,0,.89.18,5,5,0,0,0,.66.08,11.42,11.42,0,0,0,2.48,0l.72-.13.19,0,.55-.13,21,44.78h0l-80.71,69.38c-.21-.19-.43-.37-.65-.55l26.46-57.65a11.35,11.35,0,0,0,2.87.37,11.09,11.09,0,0,0,11.08-11.08,11,11,0,0,0-4.52-8.91l18.28-36.44ZM205.63,451.22h0a5.22,5.22,0,0,0,.34-.62,2.79,2.79,0,0,0,.18-.34A10.35,10.35,0,0,0,207,448a6,6,0,0,0,.17-.84c0-.12,0-.24.05-.37s0,0,0-.05,0-.29,0-.45,0-.59,0-.88a2.11,2.11,0,0,0,0-.35c0-.11,0-.23,0-.34s0-.19,0-.3-.05-.48-.09-.71-.06-.36-.1-.53a9.76,9.76,0,0,0-.31-1.18,3.54,3.54,0,0,0-.14-.39c0-.12-.08-.22-.13-.34s-.13-.32-.2-.47a3.73,3.73,0,0,0-.2-.4,1.74,1.74,0,0,0-.14-.27,3.22,3.22,0,0,0-.27-.46,10.38,10.38,0,0,0-.59-.88c-.21-.28-.44-.56-.67-.82l-.38-.38a6.69,6.69,0,0,0-.74-.68.7.7,0,0,0-.16-.14,7.22,7.22,0,0,0-.73-.54s0,0,0,0a8.68,8.68,0,0,0-.87-.52,7.7,7.7,0,0,0-1.12-.54c-.25-.1-.51-.19-.78-.28l-.5-.14a1.89,1.89,0,0,0-.38-.09,7.78,7.78,0,0,0-.81-.17h0a7.46,7.46,0,0,0-.81-.1h0l-4.58-83.07a11.1,11.1,0,0,0,7.4-15.17L220.52,320a11,11,0,0,0,7.7,3.13,10.23,10.23,0,0,0,1.92-.17L292,549.28l-86.82-97.39C205.33,451.67,205.48,451.45,205.63,451.22ZM294,139.32l-18-38.51a10.93,10.93,0,0,0,1.64-1.4c.15-.16.29-.31.43-.48a2.47,2.47,0,0,0,.32-.39c.15-.18.27-.35.4-.54a5.69,5.69,0,0,0,.33-.52,10.52,10.52,0,0,0,.9-1.81c.08-.21.15-.43.22-.63s.13-.44.18-.65.1-.43.14-.66.08-.43.1-.65.05-.45.07-.68,0-.45,0-.68,0-.45,0-.66a4,4,0,0,0,0-.5,1.29,1.29,0,0,0,0-.23,4.85,4.85,0,0,0-.09-.55,7.91,7.91,0,0,0-.36-1.49l-.15-.42a8.24,8.24,0,0,0-.51-1.18c-.11-.19-.19-.39-.31-.56a3.76,3.76,0,0,0-.31-.5,9.66,9.66,0,0,0-1.2-1.52c-.15-.16-.32-.33-.49-.48a8.16,8.16,0,0,0-.83-.71.35.35,0,0,1-.09-.06l-.08-.06L294,47.33ZM185.71,449h0a8.53,8.53,0,0,0,.31.81,10.94,10.94,0,0,0,2.49,3.57,5.27,5.27,0,0,0,.55.5,11.64,11.64,0,0,0,1.2.89,11.26,11.26,0,0,0,4.21,1.6l7.28,131.91L139.3,523.18l-31.07-32.34L94.48,476.51Zm47.94-127.26a11,11,0,0,0,4.18-15.12L294,263V542.57ZM293.39,40.25,272.87,81.13a8.25,8.25,0,0,0-1.41-.32,4,4,0,0,0-.53-.08c-.21,0-.43,0-.64-.06s-.44,0-.66,0a4.09,4.09,0,0,0-.6,0l-.6,0a3.94,3.94,0,0,0-.6.08,3.75,3.75,0,0,0-.6.11l-.54.13L231.64,6.24ZM261.69,84c-.16.17-.32.35-.47.53s-.33.39-.49.6-.29.42-.43.64-.27.43-.4.67-.24.46-.36.7-.19.47-.28.7a11.57,11.57,0,0,0-.38,1.23c0,.18-.09.38-.12.57a.45.45,0,0,0,0,.11c0,.19-.06.4-.08.6a5.05,5.05,0,0,0-.07.68c0,.23,0,.45,0,.68s0,.45,0,.67a2.89,2.89,0,0,0,0,.5.8.8,0,0,0,0,.23c0,.18.05.37.08.55a10,10,0,0,0,.36,1.48c.05.15.11.29.16.43a10.15,10.15,0,0,0,1.37,2.58,6.5,6.5,0,0,0,.46.61c.15.19.33.38.5.56s.41.41.61.6.28.24.44.36l.22.18c.06.06.14.11.21.18L253,120.79l-8.18,16.28a11.25,11.25,0,0,0-8.19.7l-56.8-77.3L227.06,5.25l36.26,77.37A10.88,10.88,0,0,0,261.69,84ZM176.87,62.77,233.6,140a10.72,10.72,0,0,0-2.09,3L94.69,105.81ZM90.24,108.45,230.53,146.6l0,.46-196,22.39Zm88.44,48.27L227,151.2l-97.55,37.11a9.53,9.53,0,0,0-.75-.93,3.06,3.06,0,0,0-.3-.32l-.34-.35a8.72,8.72,0,0,0-.87-.74,5.6,5.6,0,0,0-.49-.36,10.11,10.11,0,0,0-2.65-1.32l-.49-.17a11.62,11.62,0,0,0-2-.37,3.42,3.42,0,0,0-.45,0l-.68,0a11.09,11.09,0,0,0-11.08,11.07c0,.24,0,.48,0,.71a2.09,2.09,0,0,0,0,.43l-65.84,25L32,173.47ZM43.47,225l66.94-25.45a.65.65,0,0,0,.09.16,8.38,8.38,0,0,0,.53,1c.11.15.21.31.31.46a11.15,11.15,0,0,0,2.29,2.41.34.34,0,0,1,.09.08L72.47,292.37a10.73,10.73,0,0,0-3.15-.47,11.13,11.13,0,0,0-10,6.24L4.82,280.92Zm99.09,133.91-52,113.22L30,395.73Zm92.56,216.8L205.6,590.24l-7.39-134a10.63,10.63,0,0,0,2.25-.67c.34-.14.66-.29,1-.46l.07,0c.25-.14.49-.28.72-.44l.28-.18L292.62,555.6l-57.3,20A1.76,1.76,0,0,0,235.12,575.66Z"/><path class="cls-41" d="M609.38,281.65a2.68,2.68,0,0,0-.07-.27,1.17,1.17,0,0,0-.1-.26,1.38,1.38,0,0,0-.14-.24l-.09-.13-39.84-57.69,12.34-50.77a1.6,1.6,0,0,0,0-.72.35.35,0,0,0,0-.14s0,0,0-.05a.65.65,0,0,0-.08-.22.74.74,0,0,0-.14-.28.16.16,0,0,0,0-.09.55.55,0,0,0-.07-.09h0a1,1,0,0,0-.16-.19l-59.73-65.31-.08-.09,0,0a1.38,1.38,0,0,0-.26-.23l-.21-.14-.12,0L433.16,58.91,383.4.79c0-.06-.09-.12-.15-.18l-.1-.11-.06,0s0,0,0,0a.14.14,0,0,0-.1-.07,1,1,0,0,0-.23-.15,2.18,2.18,0,0,0-.45-.16,1.64,1.64,0,0,0-.38,0,1.91,1.91,0,0,0-.9.23l-.08,0L312.64,37.86l-.09,0,0,0a.84.84,0,0,0-.23.18.33.33,0,0,0-.15.16,1.8,1.8,0,0,0-.47,1.21V556.22a.71.71,0,0,0,0,.21.65.65,0,0,0,0,.19v0s0,0,0,0,0,.11,0,.16a.74.74,0,0,0,0,.14.24.24,0,0,0,0,.09s.05.12.08.17a2.11,2.11,0,0,0,.26.4,2.29,2.29,0,0,0,.23.21,1.41,1.41,0,0,0,.33.22,1,1,0,0,0,.22.09h0l0,0h0L372.75,579l31.69,15.64a.93.93,0,0,0,.2.1s0,0,.05,0l.16.08a3.37,3.37,0,0,0,.34.09h.05l.24,0h0l.32,0s0,0,0,0H406s.06,0,.1,0a.23.23,0,0,0,.1,0h.1a.48.48,0,0,0,.16-.08h0l37.46-17.13a2.85,2.85,0,0,0,.3-.16l78-54.34a1.87,1.87,0,0,0,.8-1.64l-2.74-45.26,63.6-80.2a1.3,1.3,0,0,0,.15-.2.68.68,0,0,0,.09-.17s0,0,0,0a.72.72,0,0,0,.09-.2,1.6,1.6,0,0,0,.11-.64v-.09l-1.39-63.53,26.24-48.33a1,1,0,0,0,.12-.28,1.77,1.77,0,0,0,.08-.31,2.83,2.83,0,0,0,0-.29A2.46,2.46,0,0,0,609.38,281.65Zm-5.66,3.44-24.29,44.72a1.73,1.73,0,0,0-.21.92l1.2,55.24-34.26-73.73a11,11,0,0,0,4.92-10.54l9.9-3.12ZM413.63,587.38,516.77,480l2.46,40.7-77,53.65Zm-98.23-540L333.2,82.8l-.08.06a.35.35,0,0,1-.09.06,9.41,9.41,0,0,0-.83.71c-.17.15-.33.32-.49.48a11,11,0,0,0-1.2,1.52,3.76,3.76,0,0,0-.31.5c-.11.17-.2.37-.3.56a7.29,7.29,0,0,0-.52,1.18l-.15.42a9.83,9.83,0,0,0-.36,1.49c0,.17-.06.37-.09.55a1.4,1.4,0,0,0,0,.23,2.74,2.74,0,0,0,0,.5c0,.21,0,.44,0,.66s0,.45,0,.68a5.2,5.2,0,0,0,.06.68c0,.22.07.43.1.65s.09.45.14.66l.18.65c.07.2.14.42.22.63a10.52,10.52,0,0,0,.9,1.81c.1.18.22.35.33.52s.26.36.4.54a2.47,2.47,0,0,0,.32.39c.14.17.28.32.43.48a10.93,10.93,0,0,0,1.64,1.4l-18,38.51ZM579,391.69,464.72,354.25l-6.82-14.86a11,11,0,0,0,4.51-8.91c0-.26,0-.51,0-.76l68-21.45a11,11,0,0,0,9.73,5.79,10.92,10.92,0,0,0,2.68-.32ZM424.23,444.32a7,7,0,0,0-.13-.92,2.63,2.63,0,0,0-.1-.47,3.77,3.77,0,0,0-.14-.58.78.78,0,0,0-.05-.18,4.26,4.26,0,0,0-.25-.71,2,2,0,0,0-.15-.38,2.67,2.67,0,0,0-.2-.46,2.81,2.81,0,0,0-.17-.35c-.12-.24-.26-.49-.41-.73a10.94,10.94,0,0,0-1.88-2.29,9.13,9.13,0,0,0-1.54-1.18,6.46,6.46,0,0,0-1-.6c-.23-.12-.46-.22-.69-.32a1,1,0,0,0-.18-.07,7.72,7.72,0,0,0-.85-.29l-.06,0-.27-.07,4.59-83.12a11,11,0,0,0,8.38-5.1L462,357.27,515,472.65l-90.67-27.41A7,7,0,0,0,424.23,444.32ZM315.4,151.72l78.84,67.79a10.93,10.93,0,0,0-1,8l-77.84,29Zm79.34,79.15a11.12,11.12,0,0,0,4.73,4L381.42,301h-.23a11,11,0,0,0-7.27,2.72l-56.6-44ZM430.53,343a11,11,0,0,0,.28-2.51c0-.27,0-.55,0-.82l11-3.49a11.09,11.09,0,0,0,12.74,4.85l5.32,11.59Zm47.82-151.36a13.14,13.14,0,0,0-.32,1.51c0,.26-.06.52-.09.78s0,.53,0,.79,0,.49,0,.74a1,1,0,0,0,0,.17.71.71,0,0,0,0,.21l-64.1,23.9a11.15,11.15,0,0,0-9.89-6.09,11.27,11.27,0,0,0-3.51.57l-26.38-57.45a10.81,10.81,0,0,0,3.29-3.54Zm-93.27,110,18-65.87a10.86,10.86,0,0,0,3.12-.18l39.22,85.49a11,11,0,0,0-5.16,9.36,11.33,11.33,0,0,0,.23,2.26l-10.6,3.36A11.06,11.06,0,0,0,411.65,333l-20.56-16a10.79,10.79,0,0,0,1.17-4.94A11,11,0,0,0,385.08,301.68ZM533.59,294a11,11,0,0,0-4.59,9,11.73,11.73,0,0,0,.14,1.77L461.5,326.11a11.16,11.16,0,0,0-10.17-6.7,10.63,10.63,0,0,0-2.47.28l-39.19-85.4a11.15,11.15,0,0,0,5.39-9.52,11.64,11.64,0,0,0-.09-1.45l64-23.85a.84.84,0,0,0,.11.21,3.17,3.17,0,0,0,.23.45c.13.24.27.47.42.71l.45.64c.13.16.26.33.4.48a1.54,1.54,0,0,0,.17.19,4.43,4.43,0,0,0,.37.39,9.22,9.22,0,0,0,1.15,1,4.28,4.28,0,0,0,.61.44,11.51,11.51,0,0,0,2.21,1.13c.24.09.5.16.74.24l.63.17.36.07a3.26,3.26,0,0,0,.47.09c.26,0,.51.07.78.09s.6,0,.91,0a8.9,8.9,0,0,0,.9,0c.21,0,.42,0,.62-.06s.34,0,.49-.09l.67-.14c.22-.05.43-.11.65-.18,0,0,0,0,.06,0l.52,1.11ZM356.78,147.66a11.09,11.09,0,0,0,11.07,11.08,11.35,11.35,0,0,0,2.87-.37L397.18,216l-.65.55-80.71-69.38h0l21-44.78.55.13.19,0,.72.13a11.5,11.5,0,0,0,2.49,0,5,5,0,0,0,.65-.08,7.54,7.54,0,0,0,.9-.18c.19,0,.39-.09.58-.15a.23.23,0,0,0,.11,0h0l18.29,36.44A11,11,0,0,0,356.78,147.66ZM315.4,263l56.17,43.62a11,11,0,0,0,4.19,15.12L315.4,542.57Zm63.87,60a10.09,10.09,0,0,0,1.92.17,11,11,0,0,0,7.69-3.13l20.71,16.09a11.1,11.1,0,0,0,7.4,15.17l-4.58,83.07h-.05a7.46,7.46,0,0,0-.81.1h0a7.1,7.1,0,0,0-.8.17,1.83,1.83,0,0,0-.39.09l-.5.14-.78.28a8.11,8.11,0,0,0-1.11.54,6.9,6.9,0,0,0-.87.52l0,0a5.51,5.51,0,0,0-.73.54.58.58,0,0,0-.17.14,6.69,6.69,0,0,0-.74.68c-.13.12-.25.25-.37.38s-.46.54-.68.82a10.38,10.38,0,0,0-.59.88c-.1.16-.19.31-.27.46s-.1.18-.14.27a2.42,2.42,0,0,0-.19.4c-.08.15-.14.32-.21.47s-.09.22-.13.34a3.54,3.54,0,0,0-.14.39,9.71,9.71,0,0,0-.3,1.18c0,.17-.08.35-.11.53s-.06.47-.09.71,0,.2,0,.3,0,.23,0,.34,0,.24,0,.35c0,.29,0,.59,0,.88s0,.3,0,.45,0,0,0,.05,0,.25.06.37a5.93,5.93,0,0,0,.16.84,10.35,10.35,0,0,0,.82,2.28c.05.11.12.23.18.34a4.14,4.14,0,0,0,.35.62h0a7.25,7.25,0,0,0,.46.67l-86.82,97.39Zm35.65,133.36a11.2,11.2,0,0,0,4.21-1.6,11.77,11.77,0,0,0,1.21-.89c.19-.16.37-.32.55-.5a10.91,10.91,0,0,0,2.48-3.57,6.48,6.48,0,0,0,.31-.81h0l91.24,27.56-13.76,14.33L470.1,523.18l-62.45,65.05ZM540.08,291.9a10.73,10.73,0,0,0-3.15.47l-41.25-88.79a.34.34,0,0,1,.09-.08,11.15,11.15,0,0,0,2.29-2.41l.31-.46a10.33,10.33,0,0,0,.54-1l.09-.16L565.94,225l38.65,56L550,298.14A11.12,11.12,0,0,0,540.08,291.9Zm25.75-71L500,195.9a2.09,2.09,0,0,0,0-.43c0-.23,0-.47,0-.71A11.09,11.09,0,0,0,489,183.69l-.68,0a3.58,3.58,0,0,0-.45,0,11.62,11.62,0,0,0-2,.37l-.49.17a10.26,10.26,0,0,0-2.65,1.32,5.46,5.46,0,0,0-.48.36,7.72,7.72,0,0,0-.87.74l-.35.35a3,3,0,0,0-.29.32,9.63,9.63,0,0,0-.76.93L382.44,151.2l48.28,5.52,146.65,16.75ZM378.91,147.06c0-.15,0-.31,0-.46l140.3-38.15,55.78,61Zm-1-4.05a10.69,10.69,0,0,0-2.08-3l56.72-77.21,82.18,43Zm51.72-82.54-56.8,77.3a11.22,11.22,0,0,0-8.18-.7l-8.19-16.28-10.1-20.14.22-.18.21-.18c.16-.12.3-.24.44-.36s.42-.4.61-.6.35-.37.5-.56.32-.4.47-.61a10.82,10.82,0,0,0,1.37-2.58l.15-.43a10,10,0,0,0,.36-1.48c0-.18.06-.37.09-.55a1.52,1.52,0,0,0,0-.23,2.89,2.89,0,0,0,0-.5c0-.22,0-.45,0-.67s0-.45,0-.68a5.05,5.05,0,0,0-.06-.68c0-.2-.05-.41-.09-.6a.45.45,0,0,0,0-.11,5.22,5.22,0,0,0-.11-.57,11.65,11.65,0,0,0-.39-1.23c-.09-.23-.18-.47-.28-.7s-.23-.47-.36-.7-.25-.45-.39-.67-.29-.44-.44-.64a7.11,7.11,0,0,0-.49-.6c-.15-.18-.3-.36-.47-.53a10.88,10.88,0,0,0-1.63-1.39L382.34,5.25ZM342.71,81l-.53-.13a12,12,0,0,0-1.21-.19l-.6,0a4,4,0,0,0-.6,0c-.22,0-.44,0-.65,0a6.33,6.33,0,0,0-.64.06,3.87,3.87,0,0,0-.54.08,8.25,8.25,0,0,0-1.41.32L316,40.25l61.76-34Zm64.18,373.45.28.18c.23.16.48.3.72.44l.08,0c.32.17.64.32,1,.46a10.81,10.81,0,0,0,2.25.67l-7.39,134-29.52-14.58a1.76,1.76,0,0,0-.2-.09l-57.3-20Zm111.92,17.59-52-113.22,112.52,36.87Z"/><path class="cls-42" d="M262.63,100.29c.14.13.28.24.43.36L253,120.79l-8.18,16.28a11.2,11.2,0,0,0-8.19.71l-56.8-77.31L227.06,5.25l36.26,77.37A10.88,10.88,0,0,0,261.69,84c-.16.17-.32.35-.47.53s-.33.39-.49.6-.29.42-.43.64-.27.44-.4.67-.24.46-.36.7-.19.47-.28.7a11.57,11.57,0,0,0-.38,1.23c0,.18-.09.38-.12.57a.45.45,0,0,0,0,.11c0,.19-.06.4-.08.6a5.05,5.05,0,0,0-.07.68c0,.23,0,.45,0,.68s0,.45,0,.67a2.89,2.89,0,0,0,0,.5.8.8,0,0,0,0,.23c0,.18.05.37.08.55a10,10,0,0,0,.36,1.48c.05.15.11.29.16.43a10.15,10.15,0,0,0,1.37,2.58,6.5,6.5,0,0,0,.46.61c.15.19.33.38.5.56s.41.41.61.6S262.47,100.17,262.63,100.29Z"/><path class="cls-42" d="M233.6,140a10.72,10.72,0,0,0-2.09,3L94.69,105.81l82.18-43Z"/><path class="cls-42" d="M230.53,146.6l0,.46-196,22.39,55.79-61Z"/><path class="cls-42" d="M227,151.2l-97.55,37.11a9.53,9.53,0,0,0-.75-.93,3.06,3.06,0,0,0-.3-.32l-.34-.35a8.72,8.72,0,0,0-.87-.74,5.6,5.6,0,0,0-.49-.36,10.11,10.11,0,0,0-2.65-1.32l-.49-.17a11.62,11.62,0,0,0-2-.37,3.42,3.42,0,0,0-.45,0l-.68,0a11.09,11.09,0,0,0-11.08,11.08c0,.23,0,.47,0,.7a2.09,2.09,0,0,0,0,.43l-65.84,25L32,173.47l146.65-16.75Z"/><path class="cls-42" d="M294,263V542.57L233.65,321.69a11,11,0,0,0,4.18-15.12Z"/><path class="cls-42" d="M29,386l1.21-55.24a1.84,1.84,0,0,0-.22-.92L5.69,285.09l42.73,13.49,9.9,3.12a11.15,11.15,0,0,0,4.92,10.54Z"/><polygon class="cls-42" points="142.56 358.86 90.59 472.08 30.05 395.73 142.56 358.86"/><polygon class="cls-42" points="195.78 587.38 167.19 574.31 90.17 520.66 92.63 479.96 195.78 587.38"/><path class="cls-42" d="M292.62,555.6l-57.3,20-.2.09L205.6,590.24l-7.39-134a10.63,10.63,0,0,0,2.25-.67c.34-.14.66-.29,1-.46l.07,0c.25-.14.49-.28.72-.44l.28-.18Z"/><path class="cls-42" d="M294,151.72V256.47l-77.83-29a11.45,11.45,0,0,0,.33-2.69,11,11,0,0,0-1.33-5.26Z"/><path class="cls-42" d="M294,47.33v92l-18-38.51a10.38,10.38,0,0,0,1.64-1.4c.15-.16.29-.31.43-.48a2.47,2.47,0,0,0,.32-.39c.15-.18.27-.35.4-.54s.23-.34.33-.51a11,11,0,0,0,.9-1.82c.08-.21.15-.43.22-.63s.13-.44.18-.65.1-.43.14-.66.08-.43.1-.65.05-.45.07-.68,0-.45,0-.68,0-.45,0-.66a4,4,0,0,0,0-.5,1.29,1.29,0,0,0,0-.23,4.85,4.85,0,0,0-.09-.55,7.91,7.91,0,0,0-.36-1.49l-.15-.42a8.24,8.24,0,0,0-.51-1.18c-.11-.19-.19-.39-.31-.56a3.76,3.76,0,0,0-.31-.5,9.66,9.66,0,0,0-1.2-1.52c-.15-.16-.32-.33-.49-.48a8.16,8.16,0,0,0-.83-.71.35.35,0,0,1-.09-.06l-.08-.06Z"/><path class="cls-42" d="M113.72,203.58,72.47,292.37a10.73,10.73,0,0,0-3.15-.47,11.13,11.13,0,0,0-10,6.24L4.82,280.92l38.65-56,66.94-25.45a.65.65,0,0,0,.09.16,8.38,8.38,0,0,0,.53,1c.11.15.21.31.31.46a11.15,11.15,0,0,0,2.29,2.41A.34.34,0,0,1,113.72,203.58Z"/><path class="cls-42" d="M292.08,259.72l-56.6,44a11,11,0,0,0-7.26-2.72H228l-18.06-66.08a11.21,11.21,0,0,0,4.74-4Z"/><path class="cls-42" d="M199.73,234.29l-39.18,85.4a10.78,10.78,0,0,0-2.48-.28,11.14,11.14,0,0,0-10.16,6.7L80.26,304.75A11.73,11.73,0,0,0,80.4,303a11,11,0,0,0-4.58-9l40.7-87.59.51-1.11a.07.07,0,0,0,.06,0l.66.18.66.14c.15,0,.32.06.49.09s.41.05.63.06a8.57,8.57,0,0,0,.89,0c.31,0,.6,0,.91,0s.53,0,.78-.09a3.7,3.7,0,0,0,.48-.09l.35-.07.63-.17.75-.24a11.15,11.15,0,0,0,2.2-1.13,3.78,3.78,0,0,0,.61-.44,9.31,9.31,0,0,0,1.16-1c.14-.13.25-.26.37-.39s.11-.12.16-.19.27-.32.4-.48.31-.43.45-.64.29-.47.42-.71a2.38,2.38,0,0,0,.23-.45,1.43,1.43,0,0,0,.12-.21l64,23.85a11.64,11.64,0,0,0-.09,1.45A11.15,11.15,0,0,0,199.73,234.29Z"/><path class="cls-42" d="M151.5,339.39l-6.82,14.86L30.43,391.69l36.22-77.95a10.84,10.84,0,0,0,2.67.32,11.06,11.06,0,0,0,9.74-5.79l68,21.45c0,.25,0,.5,0,.76A11,11,0,0,0,151.5,339.39Z"/><path class="cls-42" d="M193.29,434.69l-.27.07-.06,0a8.51,8.51,0,0,0-.85.29l-.18.07c-.23.1-.46.2-.69.32a6.91,6.91,0,0,0-1.05.6,8.68,8.68,0,0,0-1.53,1.18,11,11,0,0,0-1.89,2.29c-.15.24-.29.49-.41.73a2.72,2.72,0,0,0-.16.35,2.11,2.11,0,0,0-.21.46,3,3,0,0,0-.15.38,4.23,4.23,0,0,0-.24.71.76.76,0,0,0-.06.18,3.77,3.77,0,0,0-.14.58,3.94,3.94,0,0,0-.1.47,9.26,9.26,0,0,0-.13.92,7,7,0,0,0,0,.92L94.45,472.65l52.94-115.38,32.93-10.8a11,11,0,0,0,8.39,5.1Z"/><path class="cls-42" d="M201.76,588.23,139.3,523.18l-31.07-32.34L94.48,476.51,185.71,449h0a8.53,8.53,0,0,0,.31.81,10.94,10.94,0,0,0,2.49,3.57,5.27,5.27,0,0,0,.55.5,11.64,11.64,0,0,0,1.2.89,11.26,11.26,0,0,0,4.21,1.6Z"/><path class="cls-42" d="M235.31,156.81l-26.38,57.45a11.27,11.27,0,0,0-3.51-.57,11.15,11.15,0,0,0-9.89,6.09l-64.09-23.9a1.41,1.41,0,0,0,0-.21,1,1,0,0,0,0-.17c0-.25,0-.49,0-.73s0-.53,0-.8-.05-.52-.09-.78a4.76,4.76,0,0,0-.14-.77,6.14,6.14,0,0,0-.18-.74l101-38.41A11,11,0,0,0,235.31,156.81Z"/><path class="cls-42" d="M217.14,312.05a10.8,10.8,0,0,0,1.18,4.94l-20.57,16a11.05,11.05,0,0,0-18.22,3.11l-10.61-3.36a11.33,11.33,0,0,0,.23-2.26,11,11,0,0,0-5.16-9.36l39.23-85.49a10.77,10.77,0,0,0,3.11.18l18,65.87A11,11,0,0,0,217.14,312.05Z"/><path class="cls-42" d="M293.58,147.18h0l-80.71,69.38c-.21-.19-.43-.37-.65-.55l26.46-57.65a11.35,11.35,0,0,0,2.87.37,11.09,11.09,0,0,0,11.08-11.08,11,11,0,0,0-4.52-8.91l18.28-36.44h0a.17.17,0,0,0,.1,0c.19.06.4.11.59.15a7,7,0,0,0,.89.18,5,5,0,0,0,.66.08,11.42,11.42,0,0,0,2.48,0l.72-.13.19,0,.55-.13Z"/><path class="cls-42" d="M207.24,446.26c0-.29,0-.59,0-.88a2.11,2.11,0,0,0,0-.35c0-.11,0-.23,0-.34s0-.19,0-.3-.05-.48-.09-.71-.06-.36-.1-.53a9.76,9.76,0,0,0-.31-1.18,3.54,3.54,0,0,0-.14-.39c0-.12-.08-.22-.13-.34s-.13-.32-.2-.47a3.73,3.73,0,0,0-.2-.4,1.74,1.74,0,0,0-.14-.27,3.22,3.22,0,0,0-.27-.46,10.38,10.38,0,0,0-.59-.88c-.21-.28-.44-.56-.67-.82l-.38-.38a6.69,6.69,0,0,0-.74-.68.7.7,0,0,0-.16-.14,7.22,7.22,0,0,0-.73-.54s0,0,0,0a8.68,8.68,0,0,0-.87-.52,7.7,7.7,0,0,0-1.12-.54c-.25-.1-.51-.19-.78-.28l-.5-.14a1.89,1.89,0,0,0-.38-.09,7.78,7.78,0,0,0-.81-.17h0a7.46,7.46,0,0,0-.81-.1h0l-4.58-83.07a11.1,11.1,0,0,0,7.4-15.17L220.52,320a11,11,0,0,0,7.7,3.13,10.23,10.23,0,0,0,1.92-.17L292,549.28l-86.82-97.39c.17-.22.32-.44.47-.67h0a5.22,5.22,0,0,0,.34-.62,2.79,2.79,0,0,0,.18-.34A10.35,10.35,0,0,0,207,448a6,6,0,0,0,.17-.84c0-.12,0-.24.05-.37a.07.07,0,0,0,0-.05C207.21,446.56,207.23,446.42,207.24,446.26Z"/><path class="cls-42" d="M346.77,100.29c-.14.13-.28.24-.43.36l10.1,20.14,8.19,16.28a11.17,11.17,0,0,1,8.18.71l56.8-77.31L382.34,5.25,346.08,82.62A10.88,10.88,0,0,1,347.71,84c.17.17.32.35.47.53a7.11,7.11,0,0,1,.49.6c.15.2.29.42.44.64s.26.44.39.67.25.46.36.7.19.47.28.7a11.65,11.65,0,0,1,.39,1.23,5.22,5.22,0,0,1,.11.57.45.45,0,0,1,0,.11c0,.19.06.4.09.6a5.05,5.05,0,0,1,.06.68c0,.23,0,.45,0,.68s0,.45,0,.67a2.89,2.89,0,0,1,0,.5,1.52,1.52,0,0,1,0,.23c0,.18-.05.37-.09.55a10,10,0,0,1-.36,1.48l-.15.43a10.82,10.82,0,0,1-1.37,2.58c-.15.21-.3.41-.47.61s-.33.38-.5.56-.41.41-.61.6S346.93,100.17,346.77,100.29Z"/><path class="cls-42" d="M375.81,140a10.69,10.69,0,0,1,2.08,3l136.82-37.2-82.18-43Z"/><path class="cls-42" d="M378.87,146.6c0,.15,0,.31,0,.46l196,22.39-55.78-61Z"/><path class="cls-42" d="M382.44,151.2,480,188.31a9.63,9.63,0,0,1,.76-.93,3,3,0,0,1,.29-.32l.35-.35a7.72,7.72,0,0,1,.87-.74,5.46,5.46,0,0,1,.48-.36,10.26,10.26,0,0,1,2.65-1.32l.49-.17a11.62,11.62,0,0,1,2-.37,3.58,3.58,0,0,1,.45,0l.68,0a11.09,11.09,0,0,1,11.08,11.08c0,.23,0,.47,0,.7a2.09,2.09,0,0,1,0,.43l65.84,25,11.54-47.46L430.72,156.72Z"/><path class="cls-42" d="M315.4,263V542.57l60.36-220.88a11,11,0,0,1-4.19-15.12Z"/><path class="cls-42" d="M580.42,386l-1.2-55.24a1.73,1.73,0,0,1,.21-.92l24.29-44.72L561,298.58l-9.9,3.12a11,11,0,0,1-4.92,10.54Z"/><polygon class="cls-42" points="466.84 358.86 518.81 472.08 579.36 395.73 466.84 358.86"/><path class="cls-42" d="M430.53,343l29.37,9.62-5.32-11.59a11.09,11.09,0,0,1-12.74-4.85l-11,3.49c0,.27,0,.55,0,.82A11,11,0,0,1,430.53,343Z"/><polygon class="cls-42" points="413.63 587.38 442.21 574.31 519.23 520.66 516.77 479.96 413.63 587.38"/><path class="cls-42" d="M316.78,555.6l57.3,20,.2.09,29.52,14.58,7.39-134a10.81,10.81,0,0,1-2.25-.67c-.33-.14-.65-.29-1-.46l-.08,0c-.25-.14-.49-.28-.72-.44l-.28-.18Z"/><path class="cls-42" d="M315.4,151.72V256.47l77.84-29a10.93,10.93,0,0,1,1-8Z"/><path class="cls-42" d="M315.4,47.33v92l18-38.51a10.38,10.38,0,0,1-1.64-1.4c-.15-.16-.29-.31-.43-.48a2.47,2.47,0,0,1-.32-.39c-.14-.18-.27-.35-.4-.54s-.23-.34-.33-.51a11,11,0,0,1-.9-1.82c-.08-.21-.15-.43-.22-.63l-.18-.65c0-.21-.1-.43-.14-.66s-.07-.43-.1-.65a5.2,5.2,0,0,1-.06-.68c0-.23,0-.45,0-.68s0-.45,0-.66a2.74,2.74,0,0,1,0-.5,1.4,1.4,0,0,1,0-.23c0-.18.05-.38.09-.55a9.83,9.83,0,0,1,.36-1.49l.15-.42a7.29,7.29,0,0,1,.52-1.18c.1-.19.19-.39.3-.56a3.76,3.76,0,0,1,.31-.5,11,11,0,0,1,1.2-1.52c.16-.16.32-.33.49-.48a9.41,9.41,0,0,1,.83-.71.35.35,0,0,0,.09-.06l.08-.06Z"/><path class="cls-42" d="M495.68,203.58l41.25,88.79a10.73,10.73,0,0,1,3.15-.47,11.12,11.12,0,0,1,10,6.24l54.55-17.22-38.65-56L499,199.5l-.09.16a10.33,10.33,0,0,1-.54,1l-.31.46a11.15,11.15,0,0,1-2.29,2.41A.34.34,0,0,0,495.68,203.58Z"/><path class="cls-42" d="M317.32,259.72l56.6,44a11,11,0,0,1,7.27-2.72h.23l18.05-66.08a11.12,11.12,0,0,1-4.73-4Z"/><path class="cls-42" d="M409.67,234.29l39.19,85.4a10.63,10.63,0,0,1,2.47-.28,11.16,11.16,0,0,1,10.17,6.7l67.64-21.36A11.73,11.73,0,0,1,529,303a11,11,0,0,1,4.59-9l-40.7-87.59-.52-1.11s0,0-.06,0c-.22.07-.43.13-.65.18l-.67.14c-.15,0-.32.06-.49.09s-.41.05-.62.06a8.9,8.9,0,0,1-.9,0c-.31,0-.6,0-.91,0s-.52,0-.78-.09a3.26,3.26,0,0,1-.47-.09l-.36-.07-.63-.17c-.24-.08-.5-.15-.74-.24a11.51,11.51,0,0,1-2.21-1.13,4.28,4.28,0,0,1-.61-.44,9.22,9.22,0,0,1-1.15-1,4.43,4.43,0,0,1-.37-.39,1.54,1.54,0,0,1-.17-.19c-.14-.15-.27-.32-.4-.48l-.45-.64c-.15-.23-.29-.47-.42-.71a3.17,3.17,0,0,1-.23-.45.84.84,0,0,1-.11-.21l-64,23.85a11.64,11.64,0,0,1,.09,1.45A11.15,11.15,0,0,1,409.67,234.29Z"/><path class="cls-42" d="M457.9,339.39l6.82,14.86L579,391.69l-36.21-77.95a10.92,10.92,0,0,1-2.68.32,11,11,0,0,1-9.73-5.79l-68,21.45c0,.25,0,.5,0,.76A11,11,0,0,1,457.9,339.39Z"/><path class="cls-42" d="M416.11,434.69l.27.07.06,0a7.72,7.72,0,0,1,.85.29,1,1,0,0,1,.18.07c.23.1.46.2.69.32a6.46,6.46,0,0,1,1,.6,9.13,9.13,0,0,1,1.54,1.18,10.94,10.94,0,0,1,1.88,2.29c.15.24.29.49.41.73a2.81,2.81,0,0,1,.17.35,2.67,2.67,0,0,1,.2.46,2,2,0,0,1,.15.38,4.26,4.26,0,0,1,.25.71.78.78,0,0,1,.05.18,3.77,3.77,0,0,1,.14.58,2.63,2.63,0,0,1,.1.47,10.75,10.75,0,0,1,.18,1.84L515,472.65,462,357.27l-32.93-10.8a11,11,0,0,1-8.38,5.1Z"/><path class="cls-42" d="M407.64,588.23l62.46-65.05,31.07-32.34,13.76-14.33L423.69,449h0a6.48,6.48,0,0,1-.31.81,10.91,10.91,0,0,1-2.48,3.57c-.18.18-.36.34-.55.5a11.77,11.77,0,0,1-1.21.89,11.2,11.2,0,0,1-4.21,1.6Z"/><path class="cls-42" d="M374.09,156.81l26.38,57.45a11.27,11.27,0,0,1,3.51-.57,11.15,11.15,0,0,1,9.89,6.09l64.1-23.9a.71.71,0,0,1,0-.21,1,1,0,0,1,0-.17c0-.25,0-.49,0-.73s0-.53,0-.8.05-.52.09-.78a13.14,13.14,0,0,1,.32-1.51l-101-38.41A10.81,10.81,0,0,1,374.09,156.81Z"/><path class="cls-42" d="M392.26,312.05a10.79,10.79,0,0,1-1.17,4.94l20.56,16a11.06,11.06,0,0,1,18.23,3.11l10.6-3.36a11.33,11.33,0,0,1-.23-2.26,11,11,0,0,1,5.16-9.36l-39.22-85.49a10.86,10.86,0,0,1-3.12.18l-18,65.87A11,11,0,0,1,392.26,312.05Z"/><path class="cls-42" d="M315.82,147.18h0l80.71,69.38.65-.55-26.46-57.65a11.35,11.35,0,0,1-2.87.37,11.09,11.09,0,0,1-11.07-11.08,11,11,0,0,1,4.52-8.91L343,102.31h0a.23.23,0,0,1-.11,0c-.19.06-.39.11-.58.15a7.54,7.54,0,0,1-.9.18,5,5,0,0,1-.65.08,11.5,11.5,0,0,1-2.49,0l-.72-.13-.19,0-.55-.13Z"/><path class="cls-42" d="M402.16,446.26c0-.29,0-.59,0-.88,0-.11,0-.23,0-.35s0-.23,0-.34,0-.19,0-.3,0-.48.09-.71.07-.36.11-.53a9.71,9.71,0,0,1,.3-1.18,3.54,3.54,0,0,1,.14-.39c0-.12.08-.22.13-.34s.13-.32.21-.47a2.42,2.42,0,0,1,.19-.4c0-.09.09-.18.14-.27s.17-.3.27-.46a10.38,10.38,0,0,1,.59-.88c.22-.28.45-.56.68-.82s.24-.26.37-.38a6.69,6.69,0,0,1,.74-.68.58.58,0,0,1,.17-.14,5.51,5.51,0,0,1,.73-.54l0,0a6.9,6.9,0,0,1,.87-.52,8.11,8.11,0,0,1,1.11-.54l.78-.28.5-.14a1.83,1.83,0,0,1,.39-.09,7.1,7.1,0,0,1,.8-.17h0a7.46,7.46,0,0,1,.81-.1h.05L417,351.26a11.1,11.1,0,0,1-7.4-15.17L388.88,320a11,11,0,0,1-7.69,3.13,10.09,10.09,0,0,1-1.92-.17L317.42,549.28l86.82-97.39a7.25,7.25,0,0,1-.46-.67h0a4.14,4.14,0,0,1-.35-.62c-.06-.11-.13-.23-.18-.34a10.35,10.35,0,0,1-.82-2.28,5.93,5.93,0,0,1-.16-.84c0-.12,0-.24-.06-.37a.07.07,0,0,1,0-.05C402.19,446.56,402.18,446.42,402.16,446.26Z"/><path class="cls-42" d="M316,40.25l20.52,40.88a8.25,8.25,0,0,1,1.41-.32,3.87,3.87,0,0,1,.54-.08,6.33,6.33,0,0,1,.64-.06c.21,0,.43,0,.65,0a4,4,0,0,1,.6,0,3,3,0,0,1,.6,0,12,12,0,0,1,1.21.19l.53.13,35.06-74.8Z"/><path class="cls-42" d="M293.39,40.25,272.87,81.13a8.25,8.25,0,0,0-1.41-.32,4,4,0,0,0-.53-.08c-.21,0-.43,0-.64-.06s-.44,0-.66,0a4.09,4.09,0,0,0-.6,0,3,3,0,0,0-.6,0,3.94,3.94,0,0,0-.6.08,3.75,3.75,0,0,0-.6.11l-.54.13L231.64,6.24Z"/><path class="cls-42" d="M178.87,343l-29.36,9.62,5.31-11.59a11.09,11.09,0,0,0,12.74-4.85l11.06,3.49c0,.27,0,.55,0,.82A11,11,0,0,0,178.87,343Z"/><path class="cls-42" d="M257,470.35a5.77,5.77,0,0,1-2.44-.55L227.1,456.93a5.77,5.77,0,0,1-2.78-7.67L243,409.49c-3.91-1.85-7.72-3.67-11.47-5.5l-18.68,39.88a5.74,5.74,0,0,1-5.22,3.32,5.65,5.65,0,0,1-2.45-.55l-27.46-12.86a5.78,5.78,0,0,1-2.78-7.67l19-40.51-2.61-1.25c-3.87-1.87-7.79-3.76-11.76-5.62L143.74,362a5.77,5.77,0,0,1-2.31-8.49l20.85-30.27a5.76,5.76,0,0,1,7.27-1.92c7.86,3.83,16.72,8.07,18.86,9a5.51,5.51,0,0,1,1,.37,7.14,7.14,0,0,0,3,.78q2.26,0,4.13-2.67l57.53-122.8c1.26-5.6-1-9.41-7.15-12.31a6.22,6.22,0,0,1-1.06-.64c-2.13-1.12-11-5.16-18.81-8.66a5.76,5.76,0,0,1-2.88-7.71L238,147.25a5.74,5.74,0,0,1,5.22-3.32,5.82,5.82,0,0,1,2.45.54l37.91,17.78a5.6,5.6,0,0,1,1.13.69c3.64,1.7,7.36,3.37,11.14,5.06l18.77-40a5.74,5.74,0,0,1,7.66-2.77l27.48,12.87a5.75,5.75,0,0,1,3,3.26,5.81,5.81,0,0,1-.2,4.41l-18.25,38.94c3.77,1.68,7.69,3.44,11.59,5.23L364,151.13a5.78,5.78,0,0,1,7.67-2.78l27.49,12.88a5.75,5.75,0,0,1,3,3.26,5.81,5.81,0,0,1-.2,4.41L383,209.32c26.72,16.22,57.23,41.84,42.89,82.07-7.13,20.15-20,32.84-37.68,37.28,20.13,21.07,21.67,45.46,4.79,74.22-14,23.84-33.14,35.43-58.57,35.43h0c-14.7,0-31.67-3.82-53.07-12L262.26,467A5.77,5.77,0,0,1,257,470.35Z"/><path class="cls-41" d="M407.81,289.47c10.77-30.23-9.66-51.62-39.89-69.15l18.8-40.13-24.43-11.44L344,207.82c-6.42-3-13-5.95-19.62-8.88l18.42-39.32-24.41-11.44-18.8,40.11c-5.34-2.37-10.58-4.7-15.64-7.07l.05-.13L250.31,165.3,238.1,191.39s18.2,8.1,17.74,8.3c9.89,4.63,10.42,11.88,9,17.28l-21.41,45.71a22.56,22.56,0,0,1,2.5,1.38l-2.58-1.2-30,64c-1.89,2.91-6,7-13,3.79.18.42-17.75-8.32-17.75-8.32l-18.52,26.89,31.78,14.89c5.92,2.78,11.69,5.61,17.38,8.32l-19,40.59,24.4,11.43,18.81-40.15c6.63,3.27,13.09,6.36,19.42,9.32l-18.73,40,24.42,11.44,19-40.5c42.16,16.88,75.75,20,97.38-16.89,17.43-29.7,9.31-50.4-11.38-66.92C385.16,320.17,400,311.61,407.81,289.47ZM333,360.24c-14.19,30.33-64.5,2.56-81.06-5.18l25.19-53.77C293.68,309.05,347.81,328.61,333,360.24Zm24.18-81.18c-12.93,27.59-54.73,4.08-68.52-2.38l22.85-48.76C325.28,234.37,370.65,250.28,357.17,279.06Z"/></g></g></g></svg>