<svg xmlns="http://www.w3.org/2000/svg" viewBox="0 0 2577.34 595"><defs><style>.cls-1{fill:#fff;}</style></defs><g id="Layer_2" data-name="Layer 2"><g id="Layer_1-2" data-name="Layer 1"><path class="cls-1" d="M786,225.63q-9.69,9.88-25.88,9.88H729.93a1.74,1.74,0,0,1-2-2V99.22a1.75,1.75,0,0,1,2-2h28.44q17,0,26.67,9.39t9.68,26.76q0,22.13-16.4,30.22c-.26.13-.39.27-.39.4a.53.53,0,0,0,.2.39Q795.5,174.48,795.51,198,795.71,215.76,786,225.63ZM742,110.28v47.6a.7.7,0,0,0,.79.79h15.6q10.67,0,16.6-6.31t5.92-17.78q0-11.85-5.92-18.47t-16.6-6.62h-15.6A.7.7,0,0,0,742,110.28Zm33.58,105.78q5.93-7,5.92-19.66,0-12.84-5.92-20t-16.4-7.11H742.77a.7.7,0,0,0-.79.79v52.15a.7.7,0,0,0,.79.79h16.39Q769.63,223.07,775.56,216.06Z"/><path class="cls-1" d="M875.9,233.54V99.22a1.75,1.75,0,0,1,2-2H888a1.75,1.75,0,0,1,2,2V233.54a1.74,1.74,0,0,1-2,2H877.87A1.74,1.74,0,0,1,875.9,233.54Z"/><path class="cls-1" d="M1040.24,99.22v8.3a1.75,1.75,0,0,1-2,2h-26.07a.7.7,0,0,0-.79.79V233.54a1.74,1.74,0,0,1-2,2H999.35a1.74,1.74,0,0,1-2-2V110.28a.7.7,0,0,0-.79-.79H972.09a1.74,1.74,0,0,1-2-2v-8.3a1.75,1.75,0,0,1,2-2h66.17A1.75,1.75,0,0,1,1040.24,99.22Z"/><path class="cls-1" d="M1120.14,227.81q-9.2-9.28-9.19-24.89V129.64q0-15.4,9.19-24.69t24.39-9.28q15.4,0,24.59,9.18t9.19,24.79V133a1.74,1.74,0,0,1-2,2l-10.27.6a1.75,1.75,0,0,1-2-2v-4.94q0-9.29-5.33-15t-14.22-5.73q-8.7,0-14.12,5.73t-5.43,15v75.46q0,9.27,5.43,15t14.12,5.72q8.9,0,14.22-5.72t5.33-15v-4.94a1.75,1.75,0,0,1,2-2l10.27.59a1.75,1.75,0,0,1,2,2v3.16q0,15.6-9.29,24.89t-24.49,9.28Q1129.32,237.09,1120.14,227.81Z"/><path class="cls-1" d="M1267.69,227.61q-9.39-9.48-9.39-25.08v-72.3q0-15.6,9.39-25.09t24.59-9.47q15.4,0,24.88,9.47t9.49,25.09v72.3q0,15.39-9.49,25t-24.88,9.58Q1277.07,237.09,1267.69,227.61Zm39.3-8.79q5.64-6,5.63-15.5V129.64q0-9.67-5.63-15.7t-14.71-6q-8.9,0-14.42,6t-5.53,15.7v73.68q0,9.48,5.53,15.5t14.42,6Q1301.36,224.84,1307,218.82Z"/><path class="cls-1" d="M1411,233.54V99.22a1.75,1.75,0,0,1,2-2H1423a1.75,1.75,0,0,1,2,2V233.54a1.74,1.74,0,0,1-2,2H1413A1.74,1.74,0,0,1,1411,233.54Z"/><path class="cls-1" d="M1570,97.24h9.88a1.76,1.76,0,0,1,2,2V233.54a1.75,1.75,0,0,1-2,2h-11.65a2.17,2.17,0,0,1-2.18-1.58l-38.51-102.12c-.14-.39-.33-.56-.6-.49s-.39.29-.39.69l.2,101.53a1.74,1.74,0,0,1-2,2h-10.07a1.74,1.74,0,0,1-2-2V99.22a1.75,1.75,0,0,1,2-2h11.45a2.18,2.18,0,0,1,2.18,1.59L1567,201.14c.13.4.33.57.59.5s.4-.3.4-.7V99.22A1.75,1.75,0,0,1,1570,97.24Z"/><path class="cls-1" d="M1785.69,233.73,1759.62,99.42V99a1.57,1.57,0,0,1,1.77-1.78h10.47A1.9,1.9,0,0,1,1774,99l18.56,103.9c.13.26.26.4.4.4s.26-.14.39-.4l16-103.9a1.93,1.93,0,0,1,2-1.78h9.08a1.79,1.79,0,0,1,2,1.78l16.79,103.9c.13.26.26.4.39.4s.26-.14.4-.4L1857,99a1.94,1.94,0,0,1,2-1.78h10.47a1.67,1.67,0,0,1,1.78,2.18l-24.5,134.31a1.88,1.88,0,0,1-2.17,1.78h-9.68a1.92,1.92,0,0,1-2-1.78l-16.6-104.29c-.13-.26-.29-.39-.49-.39s-.3.13-.3.39l-16.19,104.29a1.79,1.79,0,0,1-2,1.78h-9.48A2,2,0,0,1,1785.69,233.73Z"/><path class="cls-1" d="M1950.42,233.54V99.22a1.75,1.75,0,0,1,2-2h10.07a1.76,1.76,0,0,1,2,2V233.54a1.75,1.75,0,0,1-2,2H1952.4A1.74,1.74,0,0,1,1950.42,233.54Z"/><path class="cls-1" d="M2055.3,227.41q-9.08-9.67-9.08-25.28v-4.54a1.75,1.75,0,0,1,2-2h9.68a1.75,1.75,0,0,1,2,2v3.95q0,10.47,5.33,16.89a17.13,17.13,0,0,0,13.83,6.41,17.81,17.81,0,0,0,13.82-6.12q5.53-6.12,5.54-16.19A23.6,23.6,0,0,0,2095.7,191a30.67,30.67,0,0,0-6.91-8.49q-4.26-3.66-14.13-11.16-9.87-7.32-15.6-12.55a42.44,42.44,0,0,1-9.39-12.54,38.05,38.05,0,0,1-3.65-17.18q0-15.41,8.89-24.4t23.11-9q15,0,24,9.77t9,26v4.94a1.75,1.75,0,0,1-2,2h-9.88a1.74,1.74,0,0,1-2-2v-5.14q0-10.47-5.23-16.89a17.09,17.09,0,0,0-13.93-6.42,16.9,16.9,0,0,0-13,5.63q-5.13,5.63-5.13,15.9a24.17,24.17,0,0,0,2.27,10.77,29.53,29.53,0,0,0,6.81,8.78q4.55,4.15,13.44,10.87A206.9,206.9,0,0,1,2100,174a41.17,41.17,0,0,1,9,11.85,34.82,34.82,0,0,1,3.16,15.51q0,16.2-9.28,26t-23.9,9.77Q2064.39,237.09,2055.3,227.41Z"/><path class="cls-1" d="M2192.19,233.54V99.22a1.75,1.75,0,0,1,2-2h30.42q15.21,0,24.3,10T2258,134v64.79q0,16.8-9.08,26.77t-24.3,10h-30.42A1.74,1.74,0,0,1,2192.19,233.54ZM2207,223.27l17.38-.2a16.77,16.77,0,0,0,13.93-6.72q5.24-6.71,5.43-18.17v-63.6q0-11.66-5.14-18.37t-14.22-6.72H2207a.7.7,0,0,0-.79.79v112.2A.7.7,0,0,0,2207,223.27Z"/><path class="cls-1" d="M2349.32,227.61q-9.39-9.48-9.38-25.08v-72.3q0-15.6,9.38-25.09t24.59-9.47q15.4,0,24.89,9.47t9.48,25.09v72.3q0,15.39-9.48,25t-24.89,9.58Q2358.7,237.09,2349.32,227.61Zm39.3-8.79q5.64-6,5.63-15.5V129.64q0-9.67-5.63-15.7t-14.71-6q-8.89,0-14.42,6t-5.53,15.7v73.68q0,9.48,5.53,15.5t14.42,6Q2383,224.84,2388.62,218.82Z"/><path class="cls-1" d="M2555.24,97.24h10.27a1.75,1.75,0,0,1,2,2V233.54a1.74,1.74,0,0,1-2,2h-10.08a1.74,1.74,0,0,1-2-2V127.66c0-.39-.1-.59-.3-.59a1.09,1.09,0,0,0-.69.4l-20.54,42.66a2,2,0,0,1-2,1.38,2.15,2.15,0,0,1-2.17-1.38l-20.54-42.47a1.11,1.11,0,0,0-.7-.39c-.19,0-.29.2-.29.59V233.54a1.74,1.74,0,0,1-2,2H2494.2a1.74,1.74,0,0,1-2-2V99.22a1.75,1.75,0,0,1,2-2h10.27a2.32,2.32,0,0,1,2.37,1.39l22.52,45.63a.64.64,0,0,0,1.18,0l22.32-45.63A2.34,2.34,0,0,1,2555.24,97.24Z"/><path class="cls-1" d="M783.71,359.46h-42a.64.64,0,0,0-.73.73v45.27a.64.64,0,0,0,.73.73H768.2A1.61,1.61,0,0,1,770,408v7.85a1.61,1.61,0,0,1-1.82,1.83H741.73a.64.64,0,0,0-.73.73v55.67a1.62,1.62,0,0,1-1.83,1.83h-9.31a1.61,1.61,0,0,1-1.82-1.83V350a1.61,1.61,0,0,1,1.82-1.83h53.85a1.62,1.62,0,0,1,1.83,1.83v7.66A1.62,1.62,0,0,1,783.71,359.46Z"/><path class="cls-1" d="M862.11,468.62q-8.67-8.78-8.67-23.19V378.62q0-14.42,8.67-23.18t22.73-8.76q14.24,0,23,8.76t8.76,23.18v66.81q0,14.25-8.76,23.09t-23,8.86Q870.79,477.38,862.11,468.62Zm36.33-8.13q5.2-5.57,5.2-14.33V378.08q0-9-5.2-14.51T884.84,358a17.23,17.23,0,0,0-13.33,5.57q-5.12,5.56-5.11,14.51v68.08q0,8.77,5.11,14.33a17.23,17.23,0,0,0,13.33,5.57Q893.22,466.06,898.44,460.49Z"/><path class="cls-1" d="M1043.47,474.46l-18.62-56.41a.73.73,0,0,0-.73-.55h-15.89a.65.65,0,0,0-.73.74v55.85a1.61,1.61,0,0,1-1.82,1.83h-9.31a1.62,1.62,0,0,1-1.83-1.83V350a1.62,1.62,0,0,1,1.83-1.83h30.12q13.32,0,21.54,9.77t8.21,25.46q0,11.86-5.11,20.44a27.77,27.77,0,0,1-13.87,12.05.66.66,0,0,0-.55.91l19.9,57.14.18.73c0,.85-.55,1.28-1.64,1.28h-9.49A2.12,2.12,0,0,1,1043.47,474.46Zm-36-114.27v46.18a.65.65,0,0,0,.73.73h16.43a16.36,16.36,0,0,0,13.51-6.48q5.11-6.48,5.11-17.25T1038.17,366a16.28,16.28,0,0,0-13.51-6.57h-16.43A.65.65,0,0,0,1007.5,360.19Z"/><path class="cls-1" d="M1275.11,466.79q-8.94,9.13-23.91,9.13h-27.93a1.62,1.62,0,0,1-1.83-1.83V350a1.62,1.62,0,0,1,1.83-1.83h26.28q15.71,0,24.65,8.67t8.94,24.73q0,20.44-15.15,27.93c-.25.12-.36.25-.36.37a.48.48,0,0,0,.18.36q16.05,9.32,16.06,31Q1284.05,457.67,1275.11,466.79Zm-40.71-106.6v44a.64.64,0,0,0,.73.73h14.42q9.87,0,15.34-5.84t5.47-16.43q0-11-5.47-17.07t-15.34-6.11h-14.42A.64.64,0,0,0,1234.4,360.19Zm31,97.75q5.49-6.48,5.48-18.16,0-11.88-5.48-18.44t-15.15-6.57h-15.15a.64.64,0,0,0-.73.73v48.19a.64.64,0,0,0,.73.73h15.15Q1260,464.42,1265.43,457.94Z"/><path class="cls-1" d="M1365.65,467.7q-8.58-9.68-8.58-25.55V350a1.61,1.61,0,0,1,1.82-1.83h9.31A1.62,1.62,0,0,1,1370,350v93.64q0,10,5,16.24a16.17,16.17,0,0,0,13.23,6.21,16.63,16.63,0,0,0,13.51-6.21q5.12-6.19,5.11-16.24V350a1.62,1.62,0,0,1,1.83-1.83H1418a1.61,1.61,0,0,1,1.82,1.83v92.18q0,15.89-8.67,25.55t-22.91,9.68Q1374.23,477.38,1365.65,467.7Z"/><path class="cls-1" d="M1502.74,468.44q-8.4-9-8.4-23.37v-4.2a1.62,1.62,0,0,1,1.82-1.83h8.95a1.62,1.62,0,0,1,1.82,1.83v3.65q0,9.68,4.93,15.61a15.86,15.86,0,0,0,12.78,5.93,16.49,16.49,0,0,0,12.78-5.66q5.1-5.65,5.11-15a21.89,21.89,0,0,0-2.46-10.68,28.71,28.71,0,0,0-6.39-7.85q-3.93-3.37-13-10.31-9.14-6.75-14.43-11.59a39.3,39.3,0,0,1-8.67-11.59,35.1,35.1,0,0,1-3.37-15.88q0-14.23,8.21-22.55t21.36-8.3q13.86,0,22.18,9t8.3,24v4.56a1.61,1.61,0,0,1-1.82,1.83h-9.13a1.62,1.62,0,0,1-1.83-1.83v-4.74q0-9.68-4.83-15.61a15.79,15.79,0,0,0-12.87-5.93,15.58,15.58,0,0,0-12,5.2q-4.76,5.21-4.75,14.69a22.38,22.38,0,0,0,2.1,9.95,27.51,27.51,0,0,0,6.3,8.13q4.2,3.82,12.41,10a188,188,0,0,1,16.34,13.05,38,38,0,0,1,8.31,10.95,32.26,32.26,0,0,1,2.92,14.33q0,15-8.58,24t-22.09,9Q1511.13,477.38,1502.74,468.44Z"/><path class="cls-1" d="M1646.21,473.91V419.33a1.44,1.44,0,0,0-.18-.91l-25.37-68.09-.19-.73c0-1,.55-1.46,1.65-1.46H1632a2.12,2.12,0,0,1,2.19,1.46l17.89,53.49a.58.58,0,0,0,.55.36.6.6,0,0,0,.55-.36L1671,349.6a2.12,2.12,0,0,1,2.19-1.46h9.85a1.56,1.56,0,0,1,1.37.64,1.51,1.51,0,0,1,.09,1.55l-25.19,68.09a1.44,1.44,0,0,0-.18.91v54.58a1.61,1.61,0,0,1-1.82,1.82H1648A1.61,1.61,0,0,1,1646.21,473.91Z"/><path class="cls-1" d="M1903.77,357.72q8.22,9.76,8.22,25.65,0,15.7-8,25.28t-21.18,9.59H1864a.64.64,0,0,0-.73.72v55.13a1.61,1.61,0,0,1-1.82,1.83h-9.31a1.62,1.62,0,0,1-1.83-1.83V349.78a1.61,1.61,0,0,1,1.83-1.82h30.12Q1895.56,348,1903.77,357.72Zm-9.85,43.35q5.1-6.56,5.11-17.52t-5.11-17.61a16,16,0,0,0-13.33-6.66H1864a.64.64,0,0,0-.73.72v46.92a.65.65,0,0,0,.73.73h16.61A16.09,16.09,0,0,0,1893.92,401.07Z"/><path class="cls-1" d="M2042,359.46h-42.35a.64.64,0,0,0-.73.73v45.27a.64.64,0,0,0,.73.73h26.65a1.61,1.61,0,0,1,1.82,1.82v7.85a1.61,1.61,0,0,1-1.82,1.83h-26.65a.64.64,0,0,0-.73.73v45.45a.64.64,0,0,0,.73.73H2042a1.61,1.61,0,0,1,1.82,1.82v7.67a1.61,1.61,0,0,1-1.82,1.83h-54.22a1.61,1.61,0,0,1-1.82-1.83V350a1.61,1.61,0,0,1,1.82-1.83H2042a1.61,1.61,0,0,1,1.82,1.83v7.66A1.61,1.61,0,0,1,2042,359.46Z"/><path class="cls-1" d="M2124.55,468.62q-8.67-8.78-8.67-23.19V378.62q0-14.42,8.67-23.18t22.73-8.76q14.23,0,23,8.76t8.76,23.18v66.81q0,14.25-8.76,23.09t-23,8.86Q2133.22,477.38,2124.55,468.62Zm36.33-8.13q5.2-5.57,5.2-14.33V378.08q0-9-5.2-14.51t-13.6-5.57a17.19,17.19,0,0,0-13.32,5.57q-5.11,5.56-5.12,14.51v68.08q0,8.77,5.12,14.33a17.19,17.19,0,0,0,13.32,5.57Q2155.68,466.06,2160.88,460.49Z"/><path class="cls-1" d="M2310.29,357.72q8.21,9.76,8.21,25.65,0,15.7-8,25.28t-21.17,9.59h-18.81a.64.64,0,0,0-.73.72v55.13a1.61,1.61,0,0,1-1.82,1.83h-9.31a1.62,1.62,0,0,1-1.83-1.83V349.78a1.61,1.61,0,0,1,1.83-1.82h30.12Q2302.07,348,2310.29,357.72Zm-9.86,43.35q5.1-6.56,5.11-17.52t-5.11-17.61a16,16,0,0,0-13.32-6.66h-16.62a.64.64,0,0,0-.73.72v46.92a.65.65,0,0,0,.73.73h16.62A16.08,16.08,0,0,0,2300.43,401.07Z"/><path class="cls-1" d="M2392.43,474.09V350a1.62,1.62,0,0,1,1.83-1.83h9.31a1.61,1.61,0,0,1,1.82,1.83v113.9a.64.64,0,0,0,.73.73h41.8a1.61,1.61,0,0,1,1.83,1.82v7.67a1.62,1.62,0,0,1-1.83,1.83h-53.66A1.62,1.62,0,0,1,2392.43,474.09Z"/><path class="cls-1" d="M2575.52,359.46h-42.35a.64.64,0,0,0-.73.73v45.27a.64.64,0,0,0,.73.73h26.65a1.61,1.61,0,0,1,1.82,1.82v7.85a1.61,1.61,0,0,1-1.82,1.83h-26.65a.64.64,0,0,0-.73.73v45.45a.64.64,0,0,0,.73.73h42.35a1.61,1.61,0,0,1,1.82,1.82v7.67a1.61,1.61,0,0,1-1.82,1.83H2521.3a1.61,1.61,0,0,1-1.82-1.83V350a1.61,1.61,0,0,1,1.82-1.83h54.22a1.61,1.61,0,0,1,1.82,1.83v7.66A1.61,1.61,0,0,1,2575.52,359.46Z"/><path class="cls-1" d="M609.38,281.65a2.68,2.68,0,0,0-.07-.27,1.17,1.17,0,0,0-.1-.26,1.38,1.38,0,0,0-.14-.24l-.09-.13-39.84-57.69,12.34-50.77a1.6,1.6,0,0,0,0-.72.35.35,0,0,0,0-.14s0,0,0-.05a.65.65,0,0,0-.08-.22.74.74,0,0,0-.14-.28.16.16,0,0,0,0-.09.55.55,0,0,0-.07-.09h0a1,1,0,0,0-.16-.19l-59.73-65.31-.08-.09,0,0a1.38,1.38,0,0,0-.26-.23l-.21-.14-.12,0L433.16,58.91,383.4.79c0-.06-.09-.12-.15-.18l-.1-.11-.06,0s0,0,0,0a.14.14,0,0,0-.1-.07.71.71,0,0,0-.23-.14,1.74,1.74,0,0,0-.45-.17,1.64,1.64,0,0,0-.38,0,1.91,1.91,0,0,0-.9.23l-.08,0L312.64,37.86l-.09,0,0,0a.84.84,0,0,0-.23.18.33.33,0,0,0-.15.16,1.82,1.82,0,0,0-.47,1.21v123l-12.1,25.82-1.86-.83v-148a1.86,1.86,0,0,0-.46-1.21.41.41,0,0,0-.16-.16.84.84,0,0,0-.23-.18l0,0-.09,0L228.5.27l-.08,0a1.91,1.91,0,0,0-.9-.23,1.69,1.69,0,0,0-.38,0,1.89,1.89,0,0,0-.45.17.83.83,0,0,0-.23.14.17.17,0,0,0-.1.07s0,0-.05,0l-.05,0-.11.11c-.06.06-.1.12-.15.18L176.25,58.91,88.89,104.66l-.11,0a1.18,1.18,0,0,0-.22.14,1.38,1.38,0,0,0-.26.23l0,0-.07.09L28.46,170.5a.75.75,0,0,0-.17.19h0l-.08.09a.16.16,0,0,0-.05.09.92.92,0,0,0-.14.28.65.65,0,0,0-.08.22s0,0,0,.05a.7.7,0,0,0,0,.14,1.6,1.6,0,0,0,0,.72l12.34,50.77L.42,280.75l-.09.13a1.38,1.38,0,0,0-.14.24,2,2,0,0,0-.1.26,1.31,1.31,0,0,0-.06.27,1.27,1.27,0,0,0,0,.28,1.43,1.43,0,0,0,0,.29,1.16,1.16,0,0,0,.07.31,1.39,1.39,0,0,0,.12.28l26.24,48.33-1.38,63.53v.09a1.43,1.43,0,0,0,.1.64.72.72,0,0,0,.09.2s0,0,0,0a.68.68,0,0,0,.09.17.94.94,0,0,0,.16.2l63.6,80.2-2.75,45.26a1.89,1.89,0,0,0,.8,1.64l78,54.34a2.69,2.69,0,0,0,.29.16L203,594.75h0l.16.08h.1l.1,0a.35.35,0,0,1,.11,0h.12a0,0,0,0,0,0,0l.32,0h0l.25,0h.05l.33-.09.17-.08a.05.05,0,0,0,.05,0,.87.87,0,0,0,.19-.1L236.66,579l59.73-20.83h.05l0,0,.21-.09a.66.66,0,0,0,.2-.11l.14-.1.23-.22a2.06,2.06,0,0,0,.25-.4s.05-.11.08-.17a.24.24,0,0,0,0-.09l0-.14a.94.94,0,0,0,0-.16s0,0,0,0v0a1.25,1.25,0,0,0,0-.19.71.71,0,0,0,0-.21V410.4c4.79,1.54,9.44,2.84,14,3.84v142a.71.71,0,0,0,0,.21.65.65,0,0,0,0,.19v0s0,0,0,0,0,.11,0,.16a.74.74,0,0,0,0,.14.24.24,0,0,0,0,.09c0,.06.05.12.08.17a2.11,2.11,0,0,0,.26.4l.23.22.14.1a.52.52,0,0,0,.19.11,1,1,0,0,0,.22.09s0,0,0,0H313L372.75,579l31.69,15.64a.93.93,0,0,0,.2.1s0,0,.05,0l.16.08a3.37,3.37,0,0,0,.34.09h.05l.24,0h0l.32,0s0,0,0,0H406s.06,0,.1,0a.23.23,0,0,0,.1,0h.1a.48.48,0,0,0,.16-.08h0l37.46-17.13a2.85,2.85,0,0,0,.3-.16l78-54.34a1.87,1.87,0,0,0,.8-1.64l-2.74-45.26,63.6-80.2a1.3,1.3,0,0,0,.15-.2.68.68,0,0,0,.09-.17s0,0,0,0a.72.72,0,0,0,.09-.2,1.6,1.6,0,0,0,.11-.64v-.09l-1.39-63.53,26.24-48.33a1,1,0,0,0,.12-.28,1.77,1.77,0,0,0,.08-.31,2.83,2.83,0,0,0,0-.29A2.46,2.46,0,0,0,609.38,281.65Zm-43.55-60.72L500,195.9a2.09,2.09,0,0,0,0-.43c0-.23,0-.47,0-.7A11.09,11.09,0,0,0,489,183.69l-.68,0a3.58,3.58,0,0,0-.45,0,11.62,11.62,0,0,0-2,.37l-.49.17a10.26,10.26,0,0,0-2.65,1.32,5.46,5.46,0,0,0-.48.36,7.72,7.72,0,0,0-.87.74l-.35.35a3,3,0,0,0-.29.32,9.63,9.63,0,0,0-.76.93L382.44,151.2l48.28,5.52,146.65,16.75ZM402.16,446.26c0,.16,0,.3,0,.45s0,0,0,.05a2.47,2.47,0,0,0,0,.38,6.07,6.07,0,0,0,.16.83,10.35,10.35,0,0,0,.82,2.28c.05.11.12.23.18.34a4.14,4.14,0,0,0,.35.62h0a7.25,7.25,0,0,0,.46.67l-86.82,97.39,37.67-137.85c9.09-4.5,17.09-12.15,23.91-23.77,14.34-24.44,11.38-42.78-1.64-57.71l1.91-7a10.09,10.09,0,0,0,1.92.17,11,11,0,0,0,7.69-3.13l20.71,16.09a11.1,11.1,0,0,0,7.4,15.17l-4.58,83.07h-.05a7.46,7.46,0,0,0-.81.1h0a7.1,7.1,0,0,0-.8.17,1.83,1.83,0,0,0-.39.09l-.5.14-.78.28a8.11,8.11,0,0,0-1.11.54,6.9,6.9,0,0,0-.87.52l0,0a5.51,5.51,0,0,0-.73.54.58.58,0,0,0-.17.14,6.69,6.69,0,0,0-.74.68c-.13.12-.25.25-.37.38s-.46.54-.68.82a10.38,10.38,0,0,0-.59.88c-.1.16-.19.31-.27.46s-.1.18-.14.27a2.42,2.42,0,0,0-.19.4c-.08.15-.14.32-.21.47s-.09.22-.13.34-.1.25-.14.39a9.71,9.71,0,0,0-.3,1.18c0,.17-.08.35-.11.53l-.09.71c0,.11,0,.2,0,.3s0,.23,0,.34,0,.24,0,.35C402.13,445.68,402.14,446,402.16,446.26ZM367.62,320.74a50.64,50.64,0,0,0,6.1-.55,10.84,10.84,0,0,0,2,1.5l-1.39,5.07A79.66,79.66,0,0,0,367.62,320.74Zm.23-162a11.35,11.35,0,0,0,2.87-.37l8.38,18.25-16.81-7.87-6.14,13.11L339.2,167.29l3.59-7.67-24.41-11.44-.4.86-2.16-1.85h0l21-44.78.55.13.19,0,.72.13a11.5,11.5,0,0,0,2.49,0,5,5,0,0,0,.65-.08,7.54,7.54,0,0,0,.9-.18c.19,0,.39-.09.58-.15a.23.23,0,0,0,.11,0h0l18.29,36.44a11,11,0,0,0-4.52,8.91A11.09,11.09,0,0,0,367.85,158.74ZM477.94,195.5a1,1,0,0,0,0,.17.71.71,0,0,0,0,.21l-64.1,23.9a11.15,11.15,0,0,0-9.89-6.09,11.27,11.27,0,0,0-3.51.57l-14.71-32,1-2-2.41-1.13-10.22-22.25a10.81,10.81,0,0,0,3.29-3.54l101,38.41a6.14,6.14,0,0,0-.18.74,6.53,6.53,0,0,0-.14.77c0,.26-.06.52-.09.78s0,.53,0,.8S477.93,195.25,477.94,195.5ZM430.79,339.71l11-3.49a11.09,11.09,0,0,0,12.74,4.85l5.32,11.59L430.53,343a11,11,0,0,0,.28-2.51C430.81,340.26,430.8,340,430.79,339.71Zm9.46-9.23a11.5,11.5,0,0,0,.23,2.27l-10.6,3.35A11.06,11.06,0,0,0,411.65,333l-20.56-16a10.8,10.8,0,0,0,1.15-4.46c6.47-5,11.82-12.47,15.57-23.06,6-17,2.27-31.12-7.54-43.39l2.8-10.27a10.86,10.86,0,0,0,3.12-.18l39.22,85.49A11,11,0,0,0,440.25,330.48ZM397.18,216c-.22.18-.43.36-.65.56l-19.15-16.46,6.32-13.48Zm-59.62-45.24,17,14.57L344,207.82c-6.42-3-13-5.95-19.62-8.88Zm30.36,49.54,7.83-16.71,18.49,15.9a10.93,10.93,0,0,0-1,8l-9.15,3.41A167.21,167.21,0,0,0,367.92,220.32Zm26.82,10.55a11.12,11.12,0,0,0,4.73,4l-2.12,7.79a89.16,89.16,0,0,0-9.82-9.13Zm26,120.7a11,11,0,0,0,8.38-5.1L462,357.27,515,472.65l-90.67-27.41a10.75,10.75,0,0,0-.18-1.84,2.63,2.63,0,0,0-.1-.47,3.77,3.77,0,0,0-.14-.58.78.78,0,0,0-.05-.18,4.26,4.26,0,0,0-.25-.71,2,2,0,0,0-.15-.38,2.67,2.67,0,0,0-.2-.46,2.81,2.81,0,0,0-.17-.35c-.12-.24-.26-.49-.41-.73a10.94,10.94,0,0,0-1.88-2.29,9.13,9.13,0,0,0-1.54-1.18,6.46,6.46,0,0,0-1-.6c-.23-.12-.46-.22-.69-.32a1,1,0,0,0-.18-.07,7.72,7.72,0,0,0-.85-.29l-.06,0-.27-.07Zm37.2-12.18a11,11,0,0,0,4.51-8.91c0-.26,0-.51,0-.76l68-21.45a11,11,0,0,0,9.73,5.79,10.92,10.92,0,0,0,2.68-.32L579,391.69,464.72,354.25ZM529,303a11.73,11.73,0,0,0,.14,1.77L461.5,326.11a11.16,11.16,0,0,0-10.17-6.7,10.63,10.63,0,0,0-2.47.28l-39.19-85.4a11.15,11.15,0,0,0,5.39-9.52,11.64,11.64,0,0,0-.09-1.45l64-23.85a.84.84,0,0,0,.11.21,3.17,3.17,0,0,0,.23.45c.13.24.27.47.42.71l.45.64c.13.16.26.33.4.48a1.54,1.54,0,0,0,.17.19,4.43,4.43,0,0,0,.37.39,9.22,9.22,0,0,0,1.15,1,4.28,4.28,0,0,0,.61.44,11.51,11.51,0,0,0,2.21,1.13c.24.09.5.16.74.24l.63.17.36.07a3.26,3.26,0,0,0,.47.09c.26,0,.51.07.78.09s.6,0,.91,0a8.9,8.9,0,0,0,.9,0c.21,0,.42,0,.62-.06s.34,0,.49-.09l.67-.14a5.25,5.25,0,0,0,.65-.18h.06l.52,1.1L533.59,294A11,11,0,0,0,529,303Zm46-133.53-196-22.39c0-.15,0-.31,0-.46l140.3-38.15Zm-60.24-63.64L377.9,143a10.93,10.93,0,0,0-2.09-3l56.72-77.21ZM382.34,5.25l47.27,55.22-56.8,77.3a11.22,11.22,0,0,0-8.18-.7l-8.19-16.28-10.1-20.14.22-.18.21-.18c.16-.12.3-.24.44-.36s.42-.4.61-.6.35-.37.5-.56.32-.4.47-.61a10.82,10.82,0,0,0,1.37-2.58l.15-.43a10,10,0,0,0,.36-1.48c0-.18.06-.37.09-.55a1.52,1.52,0,0,0,0-.23,2.89,2.89,0,0,0,0-.5c0-.22,0-.45,0-.67s0-.45,0-.68a5.05,5.05,0,0,0-.06-.68c0-.2-.05-.41-.09-.6a.23.23,0,0,0,0-.11,5.22,5.22,0,0,0-.11-.57,11.65,11.65,0,0,0-.39-1.23c-.09-.23-.18-.47-.28-.7s-.23-.47-.36-.7-.25-.45-.39-.67-.29-.44-.44-.64a7.11,7.11,0,0,0-.49-.6c-.15-.18-.3-.36-.47-.53a10.88,10.88,0,0,0-1.63-1.39Zm-4.57,1L342.71,81l-.53-.13a12,12,0,0,0-1.21-.19l-.6,0a4,4,0,0,0-.6,0c-.22,0-.44,0-.65,0a6.33,6.33,0,0,0-.64.06,3.87,3.87,0,0,0-.54.08,8.25,8.25,0,0,0-1.41.32L316,40.25ZM315.4,47.33,333.2,82.8l-.08.06a.35.35,0,0,1-.09.06,9.41,9.41,0,0,0-.83.71c-.17.15-.33.32-.49.48a11,11,0,0,0-1.2,1.52,3.76,3.76,0,0,0-.31.5c-.11.17-.2.37-.3.56a7.29,7.29,0,0,0-.52,1.18l-.15.42a9.83,9.83,0,0,0-.36,1.49c0,.17-.06.37-.09.55a1.4,1.4,0,0,0,0,.23,2.74,2.74,0,0,0,0,.5c0,.21,0,.44,0,.66s0,.45,0,.68a5.2,5.2,0,0,0,.06.68c0,.22.07.44.1.65s.09.45.14.66l.18.65c.07.2.14.42.22.63a10.52,10.52,0,0,0,.9,1.81c.1.18.22.35.33.52s.26.36.4.54a2.47,2.47,0,0,0,.32.39c.14.17.28.32.43.48a10.38,10.38,0,0,0,1.64,1.4l-18,38.51Zm0,104.39.94.81-.94,2Zm-3.9,76.2.18.08c1.08.5,2.33,1.05,3.72,1.66,7.79,3.41,20,8.58,29.59,15.78,1.17.87,2.3,1.78,3.37,2.71,9.23,8,14.77,18.19,8.81,30.91a23.4,23.4,0,0,1-5.36,7.45,20.37,20.37,0,0,1-3.1,2.3c-9,5.45-21.62,3.49-33.31-.42q-1.87-.63-3.72-1.32c-5.06-1.89-9.84-4.05-14-6-1.31-.62-2.55-1.22-3.72-1.79-2.06-1-3.87-1.89-5.35-2.59L294,265.25l3.72-7.92ZM207.26,445c0-.11,0-.23,0-.34s0-.19,0-.3-.05-.48-.09-.71-.06-.36-.1-.53a9.76,9.76,0,0,0-.31-1.18c0-.14-.09-.26-.14-.39s-.08-.22-.13-.34-.13-.32-.2-.47a3.73,3.73,0,0,0-.2-.4,1.74,1.74,0,0,0-.14-.27,3.22,3.22,0,0,0-.27-.46,10.38,10.38,0,0,0-.59-.88c-.21-.28-.44-.56-.67-.82l-.38-.38a6.69,6.69,0,0,0-.74-.68.7.7,0,0,0-.16-.14,7.22,7.22,0,0,0-.73-.54s0,0,0,0a12.62,12.62,0,0,0-2-1.06c-.25-.1-.51-.19-.78-.28l-.5-.14a1.89,1.89,0,0,0-.38-.09,7.78,7.78,0,0,0-.81-.17h0a7.46,7.46,0,0,0-.81-.1h0l-1.13-20.56,22.85,10.71,18.81-40.15q5.49,2.7,10.82,5.25l3.87,14.16-14,29.88,24.42,11.43.55-1.16L292,549.28l-86.82-97.39c.17-.22.32-.44.47-.67h0a5.22,5.22,0,0,0,.34-.62,2.79,2.79,0,0,0,.18-.34A10.35,10.35,0,0,0,207,448a6.11,6.11,0,0,0,.17-.83c0-.13,0-.25.05-.38a.07.07,0,0,0,0-.05c0-.15,0-.29,0-.45s0-.58,0-.88A2.11,2.11,0,0,0,207.26,445Zm40.85-306.28,18.28-36.44h0a.17.17,0,0,0,.1,0c.19.06.4.11.59.15a7,7,0,0,0,.89.18,5,5,0,0,0,.66.08,11.42,11.42,0,0,0,2.48,0l.72-.13.19,0,.55-.13,21,44.78h0L264.68,172l-14.37-6.74L238.1,191.39l2.68,1.2-27.91,24c-.21-.2-.43-.38-.65-.56l26.46-57.65a11.35,11.35,0,0,0,2.87.37,11.09,11.09,0,0,0,11.08-11.08A11,11,0,0,0,248.11,138.75Zm7.73,60.94c9.89,4.63,10.42,11.88,9,17.28l-11.42,24.39-37.29-13.9a11.45,11.45,0,0,0,.33-2.69,11,11,0,0,0-1.33-5.26l29.35-25.24C249.71,196.62,256.11,199.57,255.84,199.69Zm-106.33,153,5.31-11.59a11.09,11.09,0,0,0,12.74-4.85l4.57,1.44-6.74,9.8ZM246,264.06l-2.58-1.2-16.31,34.8-17.15-62.77a11.21,11.21,0,0,0,4.74-4l37.2,13.86-8.4,18A22.56,22.56,0,0,1,246,264.06Zm-21.65,37.62a11,11,0,0,0-6.15,15l-.32.68-17.24,13.41-.19-.08c.18.42-17.75-8.32-17.75-8.32l-8.33,12.1-5.42-1.71a11.5,11.5,0,0,0,.23-2.27,11,11,0,0,0-5.16-9.36l39.23-85.49a10.77,10.77,0,0,0,3.11.18Zm-9.95,23.1-1,2.11c-1.4,2.15-4,4.95-8.12,5Zm-5.44-110.52a11.27,11.27,0,0,0-3.51-.57,11.15,11.15,0,0,0-9.89,6.09l-64.09-23.9a1.41,1.41,0,0,0,0-.21,1,1,0,0,0,0-.17c0-.25,0-.49,0-.73s0-.53,0-.8-.05-.52-.09-.78a5,5,0,0,0-.14-.77,6.14,6.14,0,0,0-.18-.74l101-38.41a11,11,0,0,0,3.29,3.54Zm-14.5,9.06a11.64,11.64,0,0,0-.09,1.45,11.15,11.15,0,0,0,5.39,9.52l-39.18,85.4a10.78,10.78,0,0,0-2.48-.28,11.14,11.14,0,0,0-10.16,6.7L80.26,304.75A11.73,11.73,0,0,0,80.4,303a11,11,0,0,0-4.58-9l40.7-87.59.51-1.1h.06a5.39,5.39,0,0,0,.66.18l.66.14c.15,0,.32.06.49.09s.41.05.63.06a8.57,8.57,0,0,0,.89,0c.31,0,.6,0,.91,0s.53,0,.78-.09a3.7,3.7,0,0,0,.48-.09l.35-.07.63-.17.75-.24a11.15,11.15,0,0,0,2.2-1.13,3.78,3.78,0,0,0,.61-.44,9.31,9.31,0,0,0,1.16-1c.14-.13.25-.26.37-.39s.11-.12.16-.19.27-.32.4-.48.31-.43.45-.64.29-.47.42-.71a2.38,2.38,0,0,0,.23-.45,1.43,1.43,0,0,0,.12-.21ZM79.06,308.27l68,21.45c0,.25,0,.5,0,.76a11,11,0,0,0,4.5,8.91l-6.82,14.86L30.43,391.69l36.22-77.95a10.84,10.84,0,0,0,2.67.32A11.06,11.06,0,0,0,79.06,308.27Zm68.33,49,19.93-6.53L189.23,361l4.06,73.69-.27.07-.06,0a8.51,8.51,0,0,0-.85.29l-.18.07c-.23.1-.46.2-.69.32a6.91,6.91,0,0,0-1.05.6,8.68,8.68,0,0,0-1.53,1.18,11,11,0,0,0-1.89,2.29c-.15.24-.29.49-.41.73a2.72,2.72,0,0,0-.16.35,2.11,2.11,0,0,0-.21.46,3,3,0,0,0-.15.38,4.23,4.23,0,0,0-.24.71.76.76,0,0,0-.06.18,3.77,3.77,0,0,0-.14.58,3.94,3.94,0,0,0-.1.47,9.26,9.26,0,0,0-.13.92,7,7,0,0,0,0,.92L94.45,472.65ZM193,362.79l2.89,1.35c5.92,2.78,11.69,5.61,17.38,8.32l-17.65,37.71Zm61.61,35.76-1.88-6.86,4.17,2Zm29.29-217.33.05-.13-15.62-7.32L294,151.72v34.09C290.59,184.28,287.23,182.76,283.94,181.22ZM294,139.32l-18-38.51a10.38,10.38,0,0,0,1.64-1.4c.15-.16.29-.31.43-.48a2.47,2.47,0,0,0,.32-.39c.15-.18.27-.35.4-.54a5.69,5.69,0,0,0,.33-.52,10.52,10.52,0,0,0,.9-1.81c.08-.21.15-.43.22-.63s.13-.44.18-.65.1-.43.14-.66.08-.43.1-.65.05-.45.07-.68,0-.45,0-.68,0-.45,0-.66a4,4,0,0,0,0-.5,1.29,1.29,0,0,0,0-.23,4.85,4.85,0,0,0-.09-.55,7.91,7.91,0,0,0-.36-1.49l-.15-.42a8.24,8.24,0,0,0-.51-1.18c-.11-.19-.19-.39-.31-.56a3.76,3.76,0,0,0-.31-.5,9.66,9.66,0,0,0-1.2-1.52c-.15-.16-.32-.33-.49-.48a8.16,8.16,0,0,0-.83-.71.35.35,0,0,1-.09-.06l-.08-.06L294,47.33Zm-.61-99.07L272.87,81.13a8.25,8.25,0,0,0-1.41-.32,4,4,0,0,0-.53-.08c-.21,0-.43,0-.64-.06s-.44,0-.66,0a4.09,4.09,0,0,0-.6,0l-.6,0a3.94,3.94,0,0,0-.6.08,3.75,3.75,0,0,0-.6.11l-.54.13L231.64,6.24Zm-66.33-35,36.26,77.37A10.88,10.88,0,0,0,261.69,84c-.16.17-.32.35-.47.53s-.33.39-.49.6-.29.42-.43.64-.27.44-.4.67-.24.46-.36.7-.19.47-.28.7a11.57,11.57,0,0,0-.38,1.23c0,.18-.09.38-.12.57a.45.45,0,0,0,0,.11c0,.19-.06.4-.08.6a5.05,5.05,0,0,0-.07.68c0,.23,0,.45,0,.68s0,.45,0,.67a2.89,2.89,0,0,0,0,.5.8.8,0,0,0,0,.23c0,.18.05.37.08.55a10,10,0,0,0,.36,1.48c.05.15.11.29.16.43a10.15,10.15,0,0,0,1.37,2.58,6.5,6.5,0,0,0,.46.61c.15.19.33.38.5.56s.41.41.61.6.28.24.44.36l.22.18c.06.06.14.11.21.18L253,120.79l-8.18,16.28a11.25,11.25,0,0,0-8.19.7l-56.8-77.3ZM176.87,62.77,233.6,140a10.72,10.72,0,0,0-2.09,3L94.69,105.81ZM90.24,108.45,230.53,146.6l0,.46-196,22.39ZM32,173.47l146.65-16.75L227,151.2l-97.55,37.11a9.53,9.53,0,0,0-.75-.93,3.06,3.06,0,0,0-.3-.32l-.34-.35a8.72,8.72,0,0,0-.87-.74,5.6,5.6,0,0,0-.49-.36,10.11,10.11,0,0,0-2.65-1.32l-.49-.17a11.62,11.62,0,0,0-2-.37,3.42,3.42,0,0,0-.45,0l-.68,0a11.09,11.09,0,0,0-11.08,11.08c0,.23,0,.47,0,.7a2.09,2.09,0,0,0,0,.43l-65.84,25ZM43.47,225l66.94-25.45a.65.65,0,0,0,.09.16,8.38,8.38,0,0,0,.53,1c.11.15.21.31.31.46a11.15,11.15,0,0,0,2.29,2.41.34.34,0,0,1,.09.08L72.47,292.37a10.73,10.73,0,0,0-3.15-.47,11.13,11.13,0,0,0-10,6.24L4.82,280.92ZM30,329.81,5.69,285.09l42.73,13.49,9.9,3.12a11.15,11.15,0,0,0,4.92,10.54L29,386l1.21-55.24A1.84,1.84,0,0,0,30,329.81ZM30,395.73l112.52-36.87-52,113.22ZM167.19,574.31l-77-53.65L92.63,480,195.78,587.38ZM139.3,523.18l-31.07-32.34L94.48,476.51,185.71,449h0a8.53,8.53,0,0,0,.31.81,10.94,10.94,0,0,0,2.49,3.57,5.27,5.27,0,0,0,.55.5,11.64,11.64,0,0,0,1.2.89,11.26,11.26,0,0,0,4.21,1.6l7.28,131.91Zm96,52.39a1.76,1.76,0,0,0-.2.09L205.6,590.24l-7.39-134a10.63,10.63,0,0,0,2.25-.67c.34-.14.66-.29,1-.46l.07,0c.25-.14.49-.28.72-.44l.28-.18L292.62,555.6Zm58.68-33L265.62,438.69l16-34.14c4.22,1.68,8.34,3.23,12.38,4.62Zm3.72-169.67q-1.85-.36-3.72-.81c-16.63-4-33.68-13.11-42.07-17l25.19-53.77c4,1.86,10.08,4.4,16.88,7.61,1.22.57,2.46,1.17,3.72,1.79a156.75,156.75,0,0,1,14,7.7q1.89,1.19,3.72,2.43c14.48,9.94,25.26,23.06,17.59,39.42-3.76,8-10.06,12-17.59,13.33a37.08,37.08,0,0,1-3.72.44A54.5,54.5,0,0,1,297.72,372.9ZM315.4,415c13,2.43,24.82,2.25,35.32-1.68L315.4,542.57Zm88.4,175.24-29.52-14.58a1.76,1.76,0,0,0-.2-.09l-57.3-20,90.11-101.11.28.18c.23.16.48.3.72.44l.08,0c.32.17.64.32,1,.46a10.81,10.81,0,0,0,2.25.67Zm11.12-133.92a11.2,11.2,0,0,0,4.21-1.6,11.77,11.77,0,0,0,1.21-.89c.19-.16.37-.32.55-.5a10.91,10.91,0,0,0,2.48-3.57,6.48,6.48,0,0,0,.31-.81h0l91.24,27.56-13.76,14.33L470.1,523.18l-62.45,65.05Zm27.29,118-28.58,13.07L516.77,480l2.46,40.7Zm76.6-102.23-52-113.22,112.52,36.87Zm60.62-142.27a1.73,1.73,0,0,0-.21.92l1.2,55.24-34.26-73.73a11,11,0,0,0,4.92-10.54l9.9-3.12,42.74-13.49ZM550,298.14a11.12,11.12,0,0,0-10-6.24,10.73,10.73,0,0,0-3.15.47l-41.25-88.79a.34.34,0,0,1,.09-.08,11.15,11.15,0,0,0,2.29-2.41l.31-.46a10.33,10.33,0,0,0,.54-1l.09-.16L565.94,225l38.65,56Z"/></g></g></svg>