<svg xmlns="http://www.w3.org/2000/svg" viewBox="0 0 939.42 905.95"><defs><style>.cls-1{isolation:isolate;}.cls-2{opacity:0.8;mix-blend-mode:multiply;}.cls-3{fill:none;opacity:0;}.cls-10,.cls-11,.cls-12,.cls-13,.cls-14,.cls-15,.cls-16,.cls-17,.cls-18,.cls-19,.cls-20,.cls-21,.cls-22,.cls-23,.cls-24,.cls-25,.cls-26,.cls-27,.cls-28,.cls-29,.cls-30,.cls-31,.cls-32,.cls-33,.cls-34,.cls-4,.cls-5,.cls-6,.cls-7,.cls-8,.cls-9{fill:#b3b3b3;}.cls-4{opacity:0.02;}.cls-5{opacity:0.04;}.cls-6{opacity:0.06;}.cls-7{opacity:0.08;}.cls-8{opacity:0.1;}.cls-9{opacity:0.12;}.cls-10{opacity:0.14;}.cls-11{opacity:0.15;}.cls-12{opacity:0.17;}.cls-13{opacity:0.19;}.cls-14{opacity:0.21;}.cls-15{opacity:0.23;}.cls-16{opacity:0.25;}.cls-17{opacity:0.27;}.cls-18{opacity:0.29;}.cls-19{opacity:0.31;}.cls-20{opacity:0.33;}.cls-21{opacity:0.35;}.cls-22{opacity:0.37;}.cls-23{opacity:0.39;}.cls-24{opacity:0.41;}.cls-25{opacity:0.43;}.cls-26{opacity:0.45;}.cls-27{opacity:0.46;}.cls-28{opacity:0.48;}.cls-29{opacity:0.5;}.cls-30{opacity:0.52;}.cls-31{opacity:0.54;}.cls-32{opacity:0.56;}.cls-33{opacity:0.58;}.cls-34{opacity:0.6;}.cls-35{font-size:96.3px;letter-spacing:0.3em;}.cls-35,.cls-39{fill:#010101;font-family:BarlowCondensed-Regular, Barlow Condensed;}.cls-36{letter-spacing:0.27em;}.cls-37{letter-spacing:0.29em;}.cls-38{letter-spacing:0.3em;}.cls-39{font-size:89px;letter-spacing:0.3em;}.cls-40{letter-spacing:0.28em;}.cls-41{letter-spacing:0.3em;}.cls-42{fill:#f9ed29;}.cls-43{fill:#464646;}.cls-44{fill:#2e2e2f;}.cls-45{fill:#252424;}.cls-46{fill:#383637;}.cls-47{fill:#3f3e3f;}.cls-48{fill:#2b2a2b;}.cls-49{fill:#272626;}.cls-50{fill:#1b1a1b;}.cls-51{fill:#171718;}.cls-52{fill:#231f20;}.cls-53{fill:#131213;}.cls-54{fill:#191819;}.cls-55{fill:#3d3c3c;}.cls-56{fill:#151415;}.cls-57{fill:#1f1e1f;}.cls-58{fill:#2a2929;}.cls-59{fill:#333132;}.cls-60{fill:#424142;}.cls-61{fill:#232122;}.cls-62{fill:#f5eb0d;}.cls-63{fill:#191919;}</style></defs><g class="cls-1"><g id="Layer_2" data-name="Layer 2"><g id="Layer_1-2" data-name="Layer 1"><g id="shadow" class="cls-2"><ellipse class="cls-3" cx="469.71" cy="649.27" rx="281.96" ry="17.99"/><ellipse class="cls-4" cx="469.71" cy="649.27" rx="274.57" ry="17.52"/><ellipse class="cls-5" cx="469.71" cy="649.27" rx="267.18" ry="17.05"/><ellipse class="cls-6" cx="469.71" cy="649.27" rx="259.79" ry="16.58"/><ellipse class="cls-7" cx="469.71" cy="649.27" rx="252.41" ry="16.11"/><ellipse class="cls-8" cx="469.71" cy="649.27" rx="245.02" ry="15.63"/><ellipse class="cls-9" cx="469.71" cy="649.27" rx="237.63" ry="15.16"/><ellipse class="cls-10" cx="469.71" cy="649.27" rx="230.24" ry="14.69"/><ellipse class="cls-11" cx="469.71" cy="649.27" rx="222.85" ry="14.22"/><ellipse class="cls-12" cx="469.71" cy="649.27" rx="215.46" ry="13.75"/><ellipse class="cls-13" cx="469.71" cy="649.27" rx="208.07" ry="13.28"/><ellipse class="cls-14" cx="469.71" cy="649.27" rx="200.68" ry="12.81"/><ellipse class="cls-15" cx="469.71" cy="649.27" rx="193.29" ry="12.33"/><ellipse class="cls-16" cx="469.71" cy="649.27" rx="185.9" ry="11.86"/><ellipse class="cls-17" cx="469.71" cy="649.27" rx="178.51" ry="11.39"/><ellipse class="cls-18" cx="469.71" cy="649.27" rx="171.12" ry="10.92"/><ellipse class="cls-19" cx="469.71" cy="649.27" rx="163.73" ry="10.45"/><ellipse class="cls-20" cx="469.71" cy="649.27" rx="156.34" ry="9.98"/><ellipse class="cls-21" cx="469.71" cy="649.27" rx="148.96" ry="9.5"/><ellipse class="cls-22" cx="469.71" cy="649.27" rx="141.57" ry="9.03"/><ellipse class="cls-23" cx="469.71" cy="649.27" rx="134.18" ry="8.56"/><ellipse class="cls-24" cx="469.71" cy="649.27" rx="126.79" ry="8.09"/><ellipse class="cls-25" cx="469.71" cy="649.27" rx="119.4" ry="7.62"/><ellipse class="cls-26" cx="469.71" cy="649.27" rx="112.01" ry="7.15"/><ellipse class="cls-27" cx="469.71" cy="649.27" rx="104.62" ry="6.68"/><ellipse class="cls-28" cx="469.71" cy="649.27" rx="97.23" ry="6.2"/><ellipse class="cls-29" cx="469.71" cy="649.27" rx="89.84" ry="5.73"/><ellipse class="cls-30" cx="469.71" cy="649.27" rx="82.45" ry="5.26"/><ellipse class="cls-31" cx="469.71" cy="649.27" rx="75.06" ry="4.79"/><ellipse class="cls-32" cx="469.71" cy="649.27" rx="67.67" ry="4.32"/><ellipse class="cls-33" cx="469.71" cy="649.27" rx="60.28" ry="3.85"/><ellipse class="cls-34" cx="469.71" cy="649.27" rx="52.89" ry="3.38"/></g><text class="cls-35" transform="translate(0 770.14)">BI<tspan class="cls-36" x="121.72" y="0">T</tspan><tspan x="188.37" y="0">COIN WI</tspan><tspan class="cls-37" x="645.6" y="0">S</tspan><tspan class="cls-38" x="713.88" y="0">DOM</tspan></text><text class="cls-39" transform="translate(0.57 887.35)">FOR BU<tspan class="cls-40" x="376.28" y="0">S</tspan><tspan class="cls-41" x="438.31" y="0">Y PEOPLE</tspan></text><path class="cls-42" d="M462.73,259.17V39.48a1.8,1.8,0,0,0-.47-1.21.33.33,0,0,0-.15-.16.84.84,0,0,0-.23-.18l0,0-.08,0L393.51.27l-.08,0a1.91,1.91,0,0,0-.9-.23,1.64,1.64,0,0,0-.38,0,2.18,2.18,0,0,0-.45.16,1,1,0,0,0-.23.15.14.14,0,0,0-.1.07s0,0-.05,0,0,0-.06,0l-.1.11c-.06.06-.1.12-.15.18L341.25,58.91,253.9,104.66l-.12,0-.21.14a1.38,1.38,0,0,0-.26.23l0,0-.08.09L193.46,170.5a1,1,0,0,0-.16.19h0a.55.55,0,0,0-.07.09.16.16,0,0,0-.05.09.74.74,0,0,0-.14.28.65.65,0,0,0-.08.22s0,0,0,.05a.35.35,0,0,0,0,.14,1.6,1.6,0,0,0,0,.72l12.34,50.77-39.84,57.69-.09.13a1.38,1.38,0,0,0-.14.24,1.17,1.17,0,0,0-.1.26,2.68,2.68,0,0,0-.07.27,2.46,2.46,0,0,0,0,.28,2.83,2.83,0,0,0,0,.29,1.77,1.77,0,0,0,.08.31,1,1,0,0,0,.12.28l26.24,48.33-1.39,63.53v.09a1.6,1.6,0,0,0,.11.64.72.72,0,0,0,.09.2s0,0,0,0a.68.68,0,0,0,.09.17,1.3,1.3,0,0,0,.15.2l63.6,80.2-2.74,45.26a1.87,1.87,0,0,0,.8,1.64l78,54.34a2.85,2.85,0,0,0,.3.16L368,594.75h0a.48.48,0,0,0,.16.08h.1a.23.23,0,0,0,.1,0s.08,0,.1,0h.13s0,0,0,0l.32,0h0l.24,0h.05a3.37,3.37,0,0,0,.34-.09l.16-.08s0,0,0,0a.93.93,0,0,0,.2-.1L401.66,579l59.73-20.83h0l0,0h0a1,1,0,0,0,.22-.09,1.41,1.41,0,0,0,.33-.22,2.29,2.29,0,0,0,.23-.21,2.11,2.11,0,0,0,.26-.4s.05-.12.08-.17a.24.24,0,0,0,0-.09.74.74,0,0,0,0-.14c0-.05,0-.11,0-.16s0,0,0,0v0a.65.65,0,0,0,0-.19.71.71,0,0,0,0-.21ZM332.2,574.31l-77-53.65,2.46-40.7L360.78,587.38ZM213.43,298.58l9.9,3.12a11,11,0,0,0,4.92,10.54L194,386l1.2-55.24a1.73,1.73,0,0,0-.21-.92l-24.29-44.72Zm18.22,15.16a10.92,10.92,0,0,0,2.68.32,11,11,0,0,0,9.73-5.79l68,21.45c0,.25,0,.5,0,.76a11,11,0,0,0,4.51,8.91l-6.82,14.86L195.44,391.69Zm49.87-107.33.52-1.11s0,0,.06,0c.22.07.43.13.65.18l.67.14c.15,0,.32.06.49.09s.4.05.62.06a8.9,8.9,0,0,0,.9,0c.31,0,.6,0,.91,0s.52,0,.78-.09a3.26,3.26,0,0,0,.47-.09l.36-.07.63-.17c.24-.08.5-.15.74-.24a11.51,11.51,0,0,0,2.21-1.13,4.28,4.28,0,0,0,.61-.44,9.22,9.22,0,0,0,1.15-1,4.43,4.43,0,0,0,.37-.39,1.54,1.54,0,0,0,.17-.19c.14-.15.27-.32.4-.48l.45-.64c.15-.24.29-.47.42-.71a3.17,3.17,0,0,0,.23-.45.84.84,0,0,0,.11-.21l64,23.85a11.64,11.64,0,0,0-.09,1.45,11.15,11.15,0,0,0,5.39,9.52l-39.19,85.4a10.63,10.63,0,0,0-2.47-.28,11.16,11.16,0,0,0-10.17,6.7l-67.64-21.36a11.73,11.73,0,0,0,.14-1.77,11,11,0,0,0-4.59-9ZM459,256.47l-77.84-29a10.93,10.93,0,0,0-1-8L459,151.72ZM323.08,341.56a11,11,0,0,0,9.49-5.34l11.05,3.49c0,.27,0,.55,0,.82a11,11,0,0,0,.28,2.51l-29.37,9.62,5.32-11.59A11.13,11.13,0,0,0,323.08,341.56Zm31.58-12.09a11,11,0,0,0-10.13,6.63l-10.6-3.36a11.33,11.33,0,0,0,.23-2.26,11,11,0,0,0-5.16-9.36l39.22-85.49a10.86,10.86,0,0,0,3.12.18l18,65.87a11,11,0,0,0-7.18,10.37,10.79,10.79,0,0,0,1.17,4.94l-20.56,16A11,11,0,0,0,354.66,329.47Zm45.66-172.66-26.38,57.45a11.27,11.27,0,0,0-3.51-.57,11.15,11.15,0,0,0-9.89,6.09l-64.1-23.9a.71.71,0,0,0,0-.21,1,1,0,0,0,0-.17c0-.25,0-.49,0-.74s0-.52,0-.79-.05-.52-.09-.78a13.14,13.14,0,0,0-.32-1.51l101-38.41A10.81,10.81,0,0,0,400.32,156.81Zm-55,189.66a11,11,0,0,0,8.38,5.1l4.59,83.12-.27.07a.09.09,0,0,0-.06,0,7.72,7.72,0,0,0-.85.29,1,1,0,0,0-.18.07c-.23.1-.46.2-.69.32a6.46,6.46,0,0,0-1.05.6,9.13,9.13,0,0,0-1.54,1.18,10.94,10.94,0,0,0-1.88,2.29c-.15.24-.29.49-.41.73a2.81,2.81,0,0,0-.17.35,2.07,2.07,0,0,0-.2.46,2,2,0,0,0-.15.38,4.26,4.26,0,0,0-.25.71.78.78,0,0,0-.05.18,3.77,3.77,0,0,0-.14.58,2.63,2.63,0,0,0-.1.47,10.75,10.75,0,0,0-.18,1.84l-90.67,27.41L312.4,357.27ZM393.22,301H393l-18.05-66.08a11.12,11.12,0,0,0,4.73-4l77.42,28.85-56.61,44A11,11,0,0,0,393.22,301Zm38.19-198.66a.23.23,0,0,0,.11,0c.19.06.39.11.58.15a7.54,7.54,0,0,0,.9.18,5,5,0,0,0,.65.08,11.5,11.5,0,0,0,2.49,0l.72-.13.19,0,.55-.13,21,44.78h0l-80.71,69.38-.65-.55,26.46-57.65a11.35,11.35,0,0,0,2.87.37,11.09,11.09,0,0,0,11.07-11.08,11,11,0,0,0-4.52-8.91l18.29-36.44ZM370.63,451.22h0a4.14,4.14,0,0,0,.35-.62c.06-.11.13-.23.18-.34A10.35,10.35,0,0,0,372,448a5.93,5.93,0,0,0,.16-.84,2.2,2.2,0,0,0,.05-.37s0,0,0-.05,0-.29,0-.45,0-.59,0-.88c0-.11,0-.23,0-.35s0-.23,0-.34,0-.19,0-.3l-.09-.71c0-.18-.07-.36-.11-.53a9.71,9.71,0,0,0-.3-1.18,3.54,3.54,0,0,0-.14-.39c0-.12-.08-.22-.13-.34s-.13-.32-.21-.47a2.42,2.42,0,0,0-.19-.4c0-.09-.09-.18-.14-.27s-.17-.3-.27-.46a10.38,10.38,0,0,0-.59-.88c-.22-.28-.45-.56-.68-.82s-.24-.26-.37-.38a7.73,7.73,0,0,0-.74-.68.58.58,0,0,0-.17-.14,5.51,5.51,0,0,0-.73-.54l0,0a6.9,6.9,0,0,0-.87-.52,8.11,8.11,0,0,0-1.11-.54l-.78-.28-.5-.14a1.83,1.83,0,0,0-.39-.09,7.1,7.1,0,0,0-.8-.17h0a7.46,7.46,0,0,0-.81-.1H362l-4.58-83.07a11.1,11.1,0,0,0,7.4-15.17L385.53,320a11,11,0,0,0,7.69,3.13,10.09,10.09,0,0,0,1.92-.17L457,549.28l-86.82-97.39A7.25,7.25,0,0,0,370.63,451.22ZM459,139.32l-18-38.51a10.93,10.93,0,0,0,1.64-1.4c.15-.16.29-.31.43-.48a2.47,2.47,0,0,0,.32-.39c.14-.18.27-.35.4-.54s.23-.34.33-.52a10.52,10.52,0,0,0,.9-1.81c.08-.21.15-.43.22-.63l.18-.65c.05-.21.1-.43.14-.66s.07-.43.1-.65a5.2,5.2,0,0,0,.06-.68c0-.23,0-.45,0-.68s0-.45,0-.66a2.74,2.74,0,0,0,0-.5,1.4,1.4,0,0,0,0-.23c0-.18-.05-.38-.09-.55a9.83,9.83,0,0,0-.36-1.49l-.15-.42a7.29,7.29,0,0,0-.52-1.18c-.1-.19-.19-.39-.3-.56a3.76,3.76,0,0,0-.31-.5,11,11,0,0,0-1.2-1.52c-.16-.16-.32-.33-.49-.48a9.41,9.41,0,0,0-.83-.71l-.09-.06-.08-.06L459,47.33ZM350.72,449h0a6.48,6.48,0,0,0,.31.81,10.91,10.91,0,0,0,2.48,3.57c.18.18.36.34.55.5a11.77,11.77,0,0,0,1.21.89,11.2,11.2,0,0,0,4.21,1.6l7.27,131.91-62.45-65.05-31.07-32.34-13.76-14.33Zm47.93-127.26a11,11,0,0,0,4.19-15.12L459,263V542.57ZM458.4,40.25,437.88,81.13a8.25,8.25,0,0,0-1.41-.32,3.87,3.87,0,0,0-.54-.08,6.33,6.33,0,0,0-.64-.06c-.21,0-.43,0-.65,0a4,4,0,0,0-.6,0l-.6,0a4.25,4.25,0,0,0-.61.08,4,4,0,0,0-.6.11l-.54.13L396.64,6.24ZM426.7,84c-.17.17-.32.35-.47.53a7.11,7.11,0,0,0-.49.6c-.15.2-.29.42-.44.64s-.26.43-.39.67-.25.46-.36.7-.19.47-.28.7a11.65,11.65,0,0,0-.39,1.23,5.22,5.22,0,0,0-.11.57.23.23,0,0,0,0,.11c0,.19-.06.4-.09.6a5.05,5.05,0,0,0-.06.68c0,.23,0,.45,0,.68s0,.45,0,.67a2.89,2.89,0,0,0,0,.5,1.52,1.52,0,0,0,0,.23c0,.18.05.37.09.55a10,10,0,0,0,.36,1.48l.15.43a10.82,10.82,0,0,0,1.37,2.58c.15.21.3.41.47.61s.33.38.5.56.4.41.61.6.28.24.44.36l.21.18.22.18L418,120.79l-8.19,16.28a11.22,11.22,0,0,0-8.18.7l-56.8-77.3L392.07,5.25l36.26,77.37A10.88,10.88,0,0,0,426.7,84ZM341.88,62.77,398.6,140a10.93,10.93,0,0,0-2.09,3L259.7,105.81Zm-86.64,45.68,140.3,38.15c0,.15,0,.31,0,.46l-196,22.39Zm88.45,48.27L392,151.2l-97.55,37.11a9.63,9.63,0,0,0-.76-.93,3,3,0,0,0-.29-.32l-.35-.35a7.72,7.72,0,0,0-.87-.74,5.46,5.46,0,0,0-.48-.36,10.26,10.26,0,0,0-2.65-1.32l-.49-.17a11.81,11.81,0,0,0-2-.37,3.58,3.58,0,0,0-.45,0l-.68,0a11.09,11.09,0,0,0-11.08,11.07c0,.24,0,.48,0,.71a2.09,2.09,0,0,0,0,.43l-65.84,25L197,173.47ZM208.47,225l66.94-25.45.09.16a10.33,10.33,0,0,0,.54,1l.31.46a11.15,11.15,0,0,0,2.29,2.41.34.34,0,0,1,.09.08l-41.25,88.79a10.73,10.73,0,0,0-3.15-.47,11.12,11.12,0,0,0-10,6.24l-54.55-17.22Zm99.1,133.91-52,113.22-60.55-76.35Zm92.56,216.8-29.52,14.58-7.39-134a10.81,10.81,0,0,0,2.25-.67c.33-.14.65-.29,1-.46l.08,0c.24-.14.49-.28.72-.44l.28-.18L457.63,555.6l-57.3,20A1.76,1.76,0,0,0,400.13,575.66Z"/><path class="cls-42" d="M774.38,281.65a1.31,1.31,0,0,0-.06-.27,2,2,0,0,0-.1-.26,1.38,1.38,0,0,0-.14-.24l-.09-.13-39.84-57.69,12.34-50.77a1.6,1.6,0,0,0,0-.72.7.7,0,0,0,0-.14s0,0,0-.05a.65.65,0,0,0-.08-.22.92.92,0,0,0-.14-.28.26.26,0,0,0,0-.09l-.08-.09h0a.75.75,0,0,0-.17-.19l-59.73-65.31-.07-.09,0,0a1.38,1.38,0,0,0-.26-.23,1.18,1.18,0,0,0-.22-.14l-.11,0L598.16,58.91,548.41.79c0-.06-.09-.12-.15-.18L548.15.5l0,0s0,0-.05,0a.17.17,0,0,0-.1-.07,1.28,1.28,0,0,0-.23-.15,2.41,2.41,0,0,0-.45-.16,1.69,1.69,0,0,0-.38,0,1.91,1.91,0,0,0-.9.23l-.08,0L477.65,37.86l-.09,0,0,0a.84.84,0,0,0-.23.18.41.41,0,0,0-.16.16,1.84,1.84,0,0,0-.46,1.21V556.22a.71.71,0,0,0,0,.21,1.25,1.25,0,0,0,0,.19v0s0,0,0,0a.94.94,0,0,0,0,.16l0,.14a.24.24,0,0,0,0,.09,1.3,1.3,0,0,0,.08.17,2.06,2.06,0,0,0,.25.4l.23.21.14.11a.66.66,0,0,0,.2.11l.21.09h0s0,0,0,0h0L537.75,579l31.7,15.64a.87.87,0,0,0,.19.1.05.05,0,0,0,.05,0l.17.08.33.09h0l.25,0h0l.32,0a0,0,0,0,0,0,0H571a.35.35,0,0,1,.11,0l.1,0h.1l.16-.08h0l37.46-17.13a2.69,2.69,0,0,0,.29-.16l78-54.34a1.89,1.89,0,0,0,.8-1.64l-2.75-45.26,63.6-80.2a.94.94,0,0,0,.16-.2.68.68,0,0,0,.09-.17s0,0,0,0a.72.72,0,0,0,.09-.2,1.43,1.43,0,0,0,.1-.64v-.09L748,331.14l26.24-48.33a1.39,1.39,0,0,0,.12-.28,1.16,1.16,0,0,0,.07-.31,1.43,1.43,0,0,0,0-.29A1.27,1.27,0,0,0,774.38,281.65Zm-5.66,3.44-24.28,44.72a1.84,1.84,0,0,0-.22.92L745.43,386l-34.26-73.73a11.15,11.15,0,0,0,4.92-10.54l9.9-3.12ZM578.63,587.38,681.78,480l2.46,40.7-77,53.65Zm-98.22-540,17.8,35.47-.08.06-.09.06a8.16,8.16,0,0,0-.83.71c-.17.15-.34.32-.49.48a9.66,9.66,0,0,0-1.2,1.52,3.76,3.76,0,0,0-.31.5,5,5,0,0,0-.31.56,8.24,8.24,0,0,0-.51,1.18l-.15.42a7.91,7.91,0,0,0-.36,1.49,4.85,4.85,0,0,0-.09.55,1.29,1.29,0,0,0,0,.23,4,4,0,0,0,0,.5c0,.21,0,.44,0,.66s0,.45,0,.68,0,.45.07.68.06.43.1.65.09.45.14.66.12.43.18.65.14.42.22.63a10.52,10.52,0,0,0,.9,1.81,5.69,5.69,0,0,0,.33.52c.13.19.25.36.4.54a2.47,2.47,0,0,0,.32.39c.14.17.28.32.43.48a10.93,10.93,0,0,0,1.64,1.4l-18,38.51ZM744,391.69,629.73,354.25l-6.82-14.86a11,11,0,0,0,4.5-8.91c0-.26,0-.51,0-.76l68-21.45a11.06,11.06,0,0,0,9.74,5.79,10.84,10.84,0,0,0,2.67-.32ZM589.24,444.32a9.26,9.26,0,0,0-.13-.92,3.94,3.94,0,0,0-.1-.47,3.77,3.77,0,0,0-.14-.58.76.76,0,0,0-.06-.18,4.23,4.23,0,0,0-.24-.71,3,3,0,0,0-.15-.38,2.11,2.11,0,0,0-.21-.46,2.72,2.72,0,0,0-.16-.35c-.12-.24-.26-.49-.41-.73a11,11,0,0,0-1.89-2.29,8.68,8.68,0,0,0-1.53-1.18,6.91,6.91,0,0,0-1.05-.6c-.23-.12-.46-.22-.69-.32l-.18-.07a8.51,8.51,0,0,0-.85-.29l-.06,0-.27-.07,4.58-83.12a11,11,0,0,0,8.39-5.1L627,357.27,680,472.65l-90.67-27.41A7,7,0,0,0,589.24,444.32ZM480.41,151.72l78.83,67.79a11,11,0,0,0-1.33,5.26,11.45,11.45,0,0,0,.33,2.69l-77.83,29Zm79.33,79.15a11.21,11.21,0,0,0,4.74,4L546.42,301h-.23a11,11,0,0,0-7.26,2.72l-56.6-44ZM595.54,343a11,11,0,0,0,.28-2.51c0-.27,0-.55,0-.82l11.06-3.49a11.09,11.09,0,0,0,12.74,4.85l5.31,11.59Zm47.82-151.36a6.14,6.14,0,0,0-.18.74,4.76,4.76,0,0,0-.14.77q-.06.39-.09.78c0,.27,0,.53,0,.79s0,.49,0,.74a1,1,0,0,0,0,.17,1.41,1.41,0,0,0,0,.21l-64.09,23.9a11.15,11.15,0,0,0-9.89-6.09,11.27,11.27,0,0,0-3.51.57L539.1,156.81a11,11,0,0,0,3.29-3.54Zm-93.27,110,18-65.87a10.77,10.77,0,0,0,3.11-.18l39.23,85.49a11,11,0,0,0-5.16,9.36,11.33,11.33,0,0,0,.23,2.26l-10.61,3.36A11.05,11.05,0,0,0,576.66,333l-20.57-16a10.8,10.8,0,0,0,1.18-4.94A11,11,0,0,0,550.09,301.68ZM698.59,294a11,11,0,0,0-4.58,9,11.73,11.73,0,0,0,.14,1.77L626.5,326.11a11.14,11.14,0,0,0-10.16-6.7,10.78,10.78,0,0,0-2.48.28l-39.18-85.4a11.15,11.15,0,0,0,5.39-9.52,11.64,11.64,0,0,0-.09-1.45l64-23.85a1.43,1.43,0,0,0,.12.21,2.38,2.38,0,0,0,.23.45c.13.24.27.47.42.71s.3.43.45.64.26.33.4.48.11.13.16.19.23.26.37.39a9.31,9.31,0,0,0,1.16,1,3.78,3.78,0,0,0,.61.44,11.15,11.15,0,0,0,2.2,1.13l.75.24.63.17.35.07a3.7,3.7,0,0,0,.48.09q.38.06.78.09c.31,0,.6,0,.91,0a8.57,8.57,0,0,0,.89,0c.22,0,.43,0,.63-.06s.33,0,.49-.09l.66-.14.66-.18a.07.07,0,0,0,.06,0l.51,1.11ZM521.78,147.66a11.09,11.09,0,0,0,11.08,11.08,11.35,11.35,0,0,0,2.87-.37L562.19,216c-.22.18-.44.36-.65.55l-80.71-69.38h0l21-44.78.55.13.19,0,.72.13a11.42,11.42,0,0,0,2.48,0,5,5,0,0,0,.66-.08,7,7,0,0,0,.89-.18c.19,0,.4-.09.59-.15a.17.17,0,0,0,.1,0h0l18.28,36.44A11,11,0,0,0,521.78,147.66ZM480.41,263l56.17,43.62a11,11,0,0,0,4.18,15.12L480.41,542.57Zm63.86,60a10.23,10.23,0,0,0,1.92.17,11,11,0,0,0,7.7-3.13l20.71,16.09a11.1,11.1,0,0,0,7.4,15.17l-4.58,83.07h0a7.46,7.46,0,0,0-.81.1h0a7.78,7.78,0,0,0-.81.17,1.89,1.89,0,0,0-.38.09l-.5.14c-.27.09-.53.18-.78.28a12.62,12.62,0,0,0-2,1.06s0,0,0,0a7.22,7.22,0,0,0-.73.54.7.7,0,0,0-.16.14,6.69,6.69,0,0,0-.74.68l-.38.38c-.23.26-.46.54-.67.82a10.38,10.38,0,0,0-.59.88,3.22,3.22,0,0,0-.27.46,1.74,1.74,0,0,0-.14.27,3.73,3.73,0,0,0-.2.4c-.07.15-.14.32-.2.47s-.09.22-.13.34a3.54,3.54,0,0,0-.14.39,9.76,9.76,0,0,0-.31,1.18c0,.17-.07.35-.1.53s-.06.47-.09.71,0,.2,0,.3,0,.23,0,.34a2.11,2.11,0,0,0,0,.35c0,.29,0,.59,0,.88s0,.3,0,.45,0,0,0,.05,0,.25,0,.37a6,6,0,0,0,.17.84,10.35,10.35,0,0,0,.82,2.28,2.79,2.79,0,0,0,.18.34,5.22,5.22,0,0,0,.34.62h0c.15.23.3.45.47.67l-86.82,97.39Zm35.66,133.36a11.26,11.26,0,0,0,4.21-1.6,11.64,11.64,0,0,0,1.2-.89,5.27,5.27,0,0,0,.55-.5,10.94,10.94,0,0,0,2.49-3.57,8.53,8.53,0,0,0,.31-.81h0l91.23,27.56-13.75,14.33-31.07,32.34-62.46,65.05ZM705.09,291.9a10.73,10.73,0,0,0-3.15.47l-41.25-88.79a.34.34,0,0,1,.09-.08,11.15,11.15,0,0,0,2.29-2.41c.1-.15.2-.31.31-.46a8.38,8.38,0,0,0,.53-1,.65.65,0,0,0,.09-.16L730.94,225l38.65,56-54.54,17.22A11.13,11.13,0,0,0,705.09,291.9Zm25.75-71L665,195.9a2.09,2.09,0,0,0,0-.43c0-.23,0-.47,0-.71A11.09,11.09,0,0,0,654,183.69l-.68,0a3.42,3.42,0,0,0-.45,0,11.62,11.62,0,0,0-2,.37l-.49.17a10.11,10.11,0,0,0-2.65,1.32,5.6,5.6,0,0,0-.49.36,8.72,8.72,0,0,0-.87.74l-.34.35a3.06,3.06,0,0,0-.3.32,9.53,9.53,0,0,0-.75.93L547.45,151.2l48.28,5.52,146.65,16.75ZM543.91,147.06l0-.46,140.29-38.15,55.79,61Zm-1-4.05a10.72,10.72,0,0,0-2.09-3l56.73-77.21,82.18,43Zm51.72-82.54-56.8,77.3a11.25,11.25,0,0,0-8.19-.7l-8.18-16.28-10.1-20.14c.07-.07.15-.12.21-.18l.22-.18c.16-.12.3-.24.44-.36s.42-.4.61-.6.35-.37.5-.56a6.5,6.5,0,0,0,.46-.61,10.15,10.15,0,0,0,1.37-2.58c.05-.14.11-.28.16-.43a10,10,0,0,0,.36-1.48c0-.18.06-.37.08-.55a.8.8,0,0,0,0-.23,2.89,2.89,0,0,0,0-.5c0-.22,0-.45,0-.67s0-.45,0-.68a5.05,5.05,0,0,0-.07-.68c0-.2,0-.41-.08-.6a.45.45,0,0,0,0-.11c0-.19-.08-.39-.12-.57a11.57,11.57,0,0,0-.38-1.23c-.09-.23-.18-.47-.28-.7s-.23-.47-.36-.7-.26-.45-.4-.67-.28-.44-.43-.64-.32-.41-.49-.6-.31-.36-.47-.53a10.88,10.88,0,0,0-1.63-1.39L547.35,5.25ZM507.72,81l-.54-.13a3.75,3.75,0,0,0-.6-.11,3.94,3.94,0,0,0-.6-.08l-.6,0a4.09,4.09,0,0,0-.6,0c-.22,0-.44,0-.66,0s-.43,0-.64.06a4,4,0,0,0-.53.08,8.25,8.25,0,0,0-1.41.32L481,40.25l61.75-34ZM571.9,454.49l.28.18c.23.16.47.3.72.44l.07,0c.32.17.64.32,1,.46a10.63,10.63,0,0,0,2.25.67l-7.39,134-29.52-14.58a1.76,1.76,0,0,0-.2-.09l-57.3-20Zm111.91,17.59-52-113.22,112.52,36.87Z"/><path class="cls-43" d="M427.64,100.29c.14.13.28.24.43.36L418,120.79l-8.19,16.28a11.17,11.17,0,0,0-8.18.71L344.8,60.47,392.07,5.25l36.26,77.37A10.88,10.88,0,0,0,426.7,84c-.17.17-.32.35-.47.53a7.11,7.11,0,0,0-.49.6c-.15.2-.29.42-.44.64s-.26.44-.39.67-.25.46-.36.7-.19.47-.28.7a11.65,11.65,0,0,0-.39,1.23,5.22,5.22,0,0,0-.11.57.23.23,0,0,0,0,.11c0,.19-.06.4-.09.6a5.05,5.05,0,0,0-.06.68c0,.23,0,.45,0,.68s0,.45,0,.67a2.89,2.89,0,0,0,0,.5,1.52,1.52,0,0,0,0,.23c0,.18.05.37.09.55a10,10,0,0,0,.36,1.48l.15.43a10.82,10.82,0,0,0,1.37,2.58c.15.21.3.41.47.61s.33.38.5.56.4.41.61.6S427.48,100.17,427.64,100.29Z"/><path class="cls-44" d="M398.6,140a10.93,10.93,0,0,0-2.09,3L259.7,105.81l82.18-43Z"/><path class="cls-45" d="M395.54,146.6c0,.15,0,.31,0,.46l-196,22.39,55.78-61Z"/><path class="cls-46" d="M392,151.2l-97.55,37.11a9.63,9.63,0,0,0-.76-.93,3,3,0,0,0-.29-.32l-.35-.35a7.72,7.72,0,0,0-.87-.74,5.46,5.46,0,0,0-.48-.36,10.26,10.26,0,0,0-2.65-1.32l-.49-.17a11.81,11.81,0,0,0-2-.37,3.58,3.58,0,0,0-.45,0l-.68,0a11.09,11.09,0,0,0-11.08,11.08c0,.23,0,.47,0,.7a2.09,2.09,0,0,0,0,.43l-65.84,25L197,173.47l146.65-16.75Z"/><path class="cls-44" d="M459,263V542.57L398.65,321.69a11,11,0,0,0,4.19-15.12Z"/><path class="cls-47" d="M194,386l1.2-55.24a1.73,1.73,0,0,0-.21-.92l-24.29-44.72,42.74,13.49,9.9,3.12a11,11,0,0,0,4.92,10.54Z"/><polygon class="cls-46" points="307.57 358.86 255.6 472.08 195.05 395.73 307.57 358.86"/><polygon class="cls-48" points="360.78 587.38 332.2 574.31 255.18 520.66 257.64 479.96 360.78 587.38"/><path class="cls-49" d="M457.63,555.6l-57.3,20-.2.09-29.52,14.58-7.39-134a10.81,10.81,0,0,0,2.25-.67c.33-.14.65-.29,1-.46l.08,0c.24-.14.49-.28.72-.44l.28-.18Z"/><path class="cls-46" d="M459,151.72V256.47l-77.84-29a10.93,10.93,0,0,0-1-8Z"/><path class="cls-47" d="M459,47.33v92l-18-38.51a10.38,10.38,0,0,0,1.64-1.4c.15-.16.29-.31.43-.48a2.47,2.47,0,0,0,.32-.39c.14-.18.27-.35.4-.54s.23-.34.33-.51a11,11,0,0,0,.9-1.82c.08-.21.15-.43.22-.63l.18-.65c.05-.21.1-.43.14-.66s.07-.43.1-.65a5.2,5.2,0,0,0,.06-.68c0-.23,0-.45,0-.68s0-.45,0-.66a2.74,2.74,0,0,0,0-.5,1.4,1.4,0,0,0,0-.23c0-.18-.05-.38-.09-.55a9.83,9.83,0,0,0-.36-1.49l-.15-.42a7.29,7.29,0,0,0-.52-1.18c-.1-.19-.19-.39-.3-.56a3.76,3.76,0,0,0-.31-.5,11,11,0,0,0-1.2-1.52c-.16-.16-.32-.33-.49-.48a9.41,9.41,0,0,0-.83-.71l-.09-.06-.08-.06Z"/><path class="cls-50" d="M278.73,203.58l-41.25,88.79a10.73,10.73,0,0,0-3.15-.47,11.12,11.12,0,0,0-10,6.24l-54.55-17.22,38.65-56,66.94-25.45.09.16a10.33,10.33,0,0,0,.54,1l.31.46a11.15,11.15,0,0,0,2.29,2.41A.34.34,0,0,1,278.73,203.58Z"/><path class="cls-51" d="M457.09,259.72l-56.61,44a11,11,0,0,0-7.26-2.72H393l-18.05-66.08a11.12,11.12,0,0,0,4.73-4Z"/><path class="cls-52" d="M364.74,234.29l-39.19,85.4a10.63,10.63,0,0,0-2.47-.28,11.16,11.16,0,0,0-10.17,6.7l-67.64-21.36a11.73,11.73,0,0,0,.14-1.77,11,11,0,0,0-4.59-9l40.7-87.59.52-1.11s0,0,.06,0c.22.07.43.13.65.18l.67.14c.15,0,.32.06.49.09s.4.05.62.06a8.9,8.9,0,0,0,.9,0c.31,0,.6,0,.91,0s.52,0,.78-.09a3.26,3.26,0,0,0,.47-.09l.36-.07.63-.17c.24-.08.5-.15.74-.24a11.51,11.51,0,0,0,2.21-1.13,4.28,4.28,0,0,0,.61-.44,9.22,9.22,0,0,0,1.15-1,4.43,4.43,0,0,0,.37-.39,1.54,1.54,0,0,0,.17-.19c.14-.15.27-.32.4-.48l.45-.64c.15-.23.29-.47.42-.71a3.17,3.17,0,0,0,.23-.45.84.84,0,0,0,.11-.21l64,23.85a11.64,11.64,0,0,0-.09,1.45A11.15,11.15,0,0,0,364.74,234.29Z"/><path class="cls-53" d="M316.51,339.39l-6.82,14.86L195.44,391.69l36.21-77.95a10.92,10.92,0,0,0,2.68.32,11,11,0,0,0,9.73-5.79l68,21.45c0,.25,0,.5,0,.76A11,11,0,0,0,316.51,339.39Z"/><path class="cls-54" d="M358.3,434.69l-.27.07a.09.09,0,0,0-.06,0,7.72,7.72,0,0,0-.85.29,1,1,0,0,0-.18.07c-.23.1-.46.2-.69.32a6.46,6.46,0,0,0-1.05.6,9.13,9.13,0,0,0-1.54,1.18,10.94,10.94,0,0,0-1.88,2.29c-.15.24-.29.49-.41.73a2.81,2.81,0,0,0-.17.35,2.07,2.07,0,0,0-.2.46,2,2,0,0,0-.15.38,4.26,4.26,0,0,0-.25.71.78.78,0,0,0-.05.18,3.77,3.77,0,0,0-.14.58,2.63,2.63,0,0,0-.1.47,10.75,10.75,0,0,0-.18,1.84l-90.67,27.41L312.4,357.27l32.93-10.8a11,11,0,0,0,8.38,5.1Z"/><path class="cls-55" d="M366.76,588.23l-62.45-65.05-31.07-32.34-13.76-14.33L350.72,449h0a6.48,6.48,0,0,0,.31.81,10.91,10.91,0,0,0,2.48,3.57c.18.18.36.34.55.5a11.77,11.77,0,0,0,1.21.89,11.2,11.2,0,0,0,4.21,1.6Z"/><path class="cls-49" d="M400.32,156.81l-26.38,57.45a11.27,11.27,0,0,0-3.51-.57,11.15,11.15,0,0,0-9.89,6.09l-64.1-23.9a.71.71,0,0,0,0-.21,1,1,0,0,0,0-.17c0-.25,0-.49,0-.73s0-.53,0-.8-.05-.52-.09-.78a13.14,13.14,0,0,0-.32-1.51l101-38.41A10.81,10.81,0,0,0,400.32,156.81Z"/><path class="cls-44" d="M382.15,312.05a10.79,10.79,0,0,0,1.17,4.94l-20.56,16a11.06,11.06,0,0,0-18.23,3.11l-10.6-3.36a11.33,11.33,0,0,0,.23-2.26,11,11,0,0,0-5.16-9.36l39.22-85.49a10.86,10.86,0,0,0,3.12.18l18,65.87A11,11,0,0,0,382.15,312.05Z"/><path class="cls-46" d="M458.59,147.18h0l-80.71,69.38-.65-.55,26.46-57.65a11.35,11.35,0,0,0,2.87.37,11.09,11.09,0,0,0,11.07-11.08,11,11,0,0,0-4.52-8.91l18.29-36.44h0a.23.23,0,0,0,.11,0c.19.06.39.11.58.15a7.54,7.54,0,0,0,.9.18,5,5,0,0,0,.65.08,11.5,11.5,0,0,0,2.49,0l.72-.13.19,0,.55-.13Z"/><path class="cls-45" d="M372.25,446.26c0-.29,0-.59,0-.88,0-.11,0-.23,0-.35s0-.23,0-.34,0-.19,0-.3l-.09-.71c0-.18-.07-.36-.11-.53a9.71,9.71,0,0,0-.3-1.18,3.54,3.54,0,0,0-.14-.39c0-.12-.08-.22-.13-.34s-.13-.32-.21-.47a2.42,2.42,0,0,0-.19-.4c0-.09-.09-.18-.14-.27s-.17-.3-.27-.46a10.38,10.38,0,0,0-.59-.88c-.22-.28-.45-.56-.68-.82s-.24-.26-.37-.38a7.73,7.73,0,0,0-.74-.68.58.58,0,0,0-.17-.14,5.51,5.51,0,0,0-.73-.54l0,0a6.9,6.9,0,0,0-.87-.52,8.11,8.11,0,0,0-1.11-.54l-.78-.28-.5-.14a1.83,1.83,0,0,0-.39-.09,7.1,7.1,0,0,0-.8-.17h0a7.46,7.46,0,0,0-.81-.1H362l-4.58-83.07a11.1,11.1,0,0,0,7.4-15.17L385.53,320a11,11,0,0,0,7.69,3.13,10.09,10.09,0,0,0,1.92-.17L457,549.28l-86.82-97.39a7.25,7.25,0,0,0,.46-.67h0a4.14,4.14,0,0,0,.35-.62c.06-.11.13-.23.18-.34A10.35,10.35,0,0,0,372,448a5.93,5.93,0,0,0,.16-.84,2.2,2.2,0,0,0,.05-.37s0,0,0-.05S372.23,446.42,372.25,446.26Z"/><path class="cls-48" d="M511.78,100.29c-.14.13-.28.24-.43.36l10.1,20.14,8.18,16.28a11.2,11.2,0,0,1,8.19.71l56.8-77.31L547.35,5.25,511.09,82.62A10.88,10.88,0,0,1,512.72,84c.16.17.32.35.47.53s.33.39.49.6.29.42.43.64.27.44.4.67.24.46.36.7.19.47.28.7a11.57,11.57,0,0,1,.38,1.23c0,.18.09.38.12.57a.45.45,0,0,1,0,.11c0,.19.06.4.08.6a5.05,5.05,0,0,1,.07.68c0,.23,0,.45,0,.68s0,.45,0,.67a2.89,2.89,0,0,1,0,.5.8.8,0,0,1,0,.23c0,.18,0,.37-.08.55a10,10,0,0,1-.36,1.48c-.05.15-.11.29-.16.43a10.15,10.15,0,0,1-1.37,2.58,6.5,6.5,0,0,1-.46.61c-.15.19-.33.38-.5.56s-.41.41-.61.6S511.94,100.17,511.78,100.29Z"/><path class="cls-56" d="M540.81,140a10.72,10.72,0,0,1,2.09,3l136.82-37.2-82.18-43Z"/><path class="cls-57" d="M543.88,146.6l0,.46L740,169.45l-55.79-61Z"/><path class="cls-51" d="M547.45,151.2,645,188.31a9.53,9.53,0,0,1,.75-.93,3.06,3.06,0,0,1,.3-.32l.34-.35a8.72,8.72,0,0,1,.87-.74,5.6,5.6,0,0,1,.49-.36,10.11,10.11,0,0,1,2.65-1.32l.49-.17a11.62,11.62,0,0,1,2-.37,3.42,3.42,0,0,1,.45,0l.68,0a11.09,11.09,0,0,1,11.08,11.08c0,.23,0,.47,0,.7a2.09,2.09,0,0,1,0,.43l65.84,25,11.54-47.46L595.73,156.72Z"/><path class="cls-55" d="M480.41,263V542.57l60.35-220.88a11,11,0,0,1-4.18-15.12Z"/><path class="cls-58" d="M745.43,386l-1.21-55.24a1.84,1.84,0,0,1,.22-.92l24.28-44.72L726,298.58l-9.9,3.12a11.15,11.15,0,0,1-4.92,10.54Z"/><polygon class="cls-51" points="631.85 358.86 683.82 472.08 744.37 395.73 631.85 358.86"/><path class="cls-44" d="M595.54,343l29.36,9.62-5.31-11.59a11.09,11.09,0,0,1-12.74-4.85l-11.06,3.49c0,.27,0,.55,0,.82A11,11,0,0,1,595.54,343Z"/><polygon class="cls-54" points="578.63 587.38 607.22 574.31 684.24 520.66 681.78 479.96 578.63 587.38"/><path class="cls-44" d="M481.79,555.6l57.3,20,.2.09,29.52,14.58,7.39-134a10.63,10.63,0,0,1-2.25-.67c-.34-.14-.66-.29-1-.46l-.07,0c-.25-.14-.49-.28-.72-.44l-.28-.18Z"/><path class="cls-54" d="M480.41,151.72V256.47l77.83-29a11.45,11.45,0,0,1-.33-2.69,11,11,0,0,1,1.33-5.26Z"/><path class="cls-59" d="M480.41,47.33v92l18-38.51a10.38,10.38,0,0,1-1.64-1.4c-.15-.16-.29-.31-.43-.48a2.47,2.47,0,0,1-.32-.39c-.15-.18-.27-.35-.4-.54s-.23-.34-.33-.51a11,11,0,0,1-.9-1.82c-.08-.21-.16-.43-.22-.63s-.13-.44-.18-.65-.1-.43-.14-.66-.08-.43-.1-.65-.05-.45-.07-.68,0-.45,0-.68,0-.45,0-.66a4,4,0,0,1,0-.5,1.29,1.29,0,0,1,0-.23,4.85,4.85,0,0,1,.09-.55,7.91,7.91,0,0,1,.36-1.49l.15-.42a8.24,8.24,0,0,1,.51-1.18,5,5,0,0,1,.31-.56,3.76,3.76,0,0,1,.31-.5,9.66,9.66,0,0,1,1.2-1.52c.15-.16.32-.33.49-.48a8.16,8.16,0,0,1,.83-.71l.09-.06.08-.06Z"/><path class="cls-50" d="M660.69,203.58l41.25,88.79a10.73,10.73,0,0,1,3.15-.47,11.13,11.13,0,0,1,10,6.24l54.54-17.22-38.65-56L664,199.5a.65.65,0,0,1-.09.16,8.38,8.38,0,0,1-.53,1c-.11.15-.21.31-.31.46a11.15,11.15,0,0,1-2.29,2.41A.34.34,0,0,0,660.69,203.58Z"/><path class="cls-43" d="M482.33,259.72l56.6,44a11,11,0,0,1,7.26-2.72h.23l18.06-66.08a11.21,11.21,0,0,1-4.74-4Z"/><path class="cls-45" d="M574.68,234.29l39.18,85.4a10.78,10.78,0,0,1,2.48-.28,11.14,11.14,0,0,1,10.16,6.7l67.65-21.36A11.73,11.73,0,0,1,694,303a11,11,0,0,1,4.58-9l-40.7-87.59-.51-1.11a.07.07,0,0,1-.06,0l-.66.18-.66.14c-.16,0-.32.06-.49.09s-.41.05-.63.06a8.57,8.57,0,0,1-.89,0c-.31,0-.6,0-.91,0s-.53,0-.78-.09a3.7,3.7,0,0,1-.48-.09l-.35-.07-.63-.17-.75-.24a11.15,11.15,0,0,1-2.2-1.13,3.78,3.78,0,0,1-.61-.44,9.31,9.31,0,0,1-1.16-1c-.14-.13-.25-.26-.37-.39s-.11-.12-.16-.19-.27-.32-.4-.48-.31-.43-.45-.64-.29-.47-.42-.71a2.38,2.38,0,0,1-.23-.45,1.43,1.43,0,0,1-.12-.21l-64,23.85a11.64,11.64,0,0,1,.09,1.45A11.15,11.15,0,0,1,574.68,234.29Z"/><path class="cls-45" d="M622.91,339.39l6.82,14.86L744,391.69l-36.22-77.95a10.84,10.84,0,0,1-2.67.32,11.06,11.06,0,0,1-9.74-5.79l-68,21.45c0,.25,0,.5,0,.76A11,11,0,0,1,622.91,339.39Z"/><path class="cls-45" d="M581.12,434.69l.27.07.06,0a8.51,8.51,0,0,1,.85.29l.18.07c.23.1.46.2.69.32a6.91,6.91,0,0,1,1.05.6,8.68,8.68,0,0,1,1.53,1.18,11,11,0,0,1,1.89,2.29c.15.24.29.49.41.73a2.72,2.72,0,0,1,.16.35,2.11,2.11,0,0,1,.21.46,3,3,0,0,1,.15.38,4.23,4.23,0,0,1,.24.71.76.76,0,0,1,.06.18,3.77,3.77,0,0,1,.14.58,3.94,3.94,0,0,1,.1.47,9.26,9.26,0,0,1,.13.92,7,7,0,0,1,0,.92L680,472.65,627,357.27l-32.93-10.8a11,11,0,0,1-8.39,5.1Z"/><path class="cls-45" d="M572.65,588.23l62.46-65.05,31.07-32.34,13.75-14.33L588.7,449h0a8.53,8.53,0,0,1-.31.81,10.94,10.94,0,0,1-2.49,3.57,5.27,5.27,0,0,1-.55.5,11.64,11.64,0,0,1-1.2.89,11.26,11.26,0,0,1-4.21,1.6Z"/><path class="cls-49" d="M539.1,156.81l26.38,57.45a11.27,11.27,0,0,1,3.51-.57,11.15,11.15,0,0,1,9.89,6.09L643,195.88a1.41,1.41,0,0,1,0-.21,1,1,0,0,1,0-.17c0-.25,0-.49,0-.73s0-.53,0-.8,0-.52.09-.78a3.88,3.88,0,0,1,.14-.77,6.14,6.14,0,0,1,.18-.74l-101-38.41A11,11,0,0,1,539.1,156.81Z"/><path class="cls-49" d="M557.27,312.05a10.8,10.8,0,0,1-1.18,4.94l20.57,16a11.05,11.05,0,0,1,18.22,3.11l10.61-3.36a11.33,11.33,0,0,1-.23-2.26,11,11,0,0,1,5.16-9.36l-39.23-85.49a10.77,10.77,0,0,1-3.11.18l-18,65.87A11,11,0,0,1,557.27,312.05Z"/><path class="cls-57" d="M480.83,147.18h0l80.71,69.38c.21-.19.43-.37.65-.55l-26.46-57.65a11.35,11.35,0,0,1-2.87.37,11.09,11.09,0,0,1-11.08-11.08,11,11,0,0,1,4.52-8.91L508,102.31h0a.17.17,0,0,1-.1,0c-.19.06-.4.11-.59.15a7,7,0,0,1-.89.18,5,5,0,0,1-.66.08,11.42,11.42,0,0,1-2.48,0l-.72-.13-.19,0-.55-.13Z"/><path class="cls-56" d="M567.17,446.26c0-.29,0-.59,0-.88a2.11,2.11,0,0,1,0-.35c0-.11,0-.23,0-.34s0-.19,0-.3.05-.48.09-.71.06-.36.1-.53a9.76,9.76,0,0,1,.31-1.18,3.54,3.54,0,0,1,.14-.39c0-.12.08-.22.13-.34s.13-.32.2-.47a3.73,3.73,0,0,1,.2-.4,1.74,1.74,0,0,1,.14-.27,3.22,3.22,0,0,1,.27-.46,10.38,10.38,0,0,1,.59-.88c.21-.28.44-.56.67-.82l.38-.38a6.69,6.69,0,0,1,.74-.68.7.7,0,0,1,.16-.14,7.22,7.22,0,0,1,.73-.54s0,0,0,0a12.62,12.62,0,0,1,2-1.06c.25-.1.51-.19.78-.28l.5-.14a1.89,1.89,0,0,1,.38-.09,7.78,7.78,0,0,1,.81-.17h0a7.46,7.46,0,0,1,.81-.1h0L582,351.26a11.1,11.1,0,0,1-7.4-15.17L553.89,320a11,11,0,0,1-7.7,3.13,10.23,10.23,0,0,1-1.92-.17L482.43,549.28l86.82-97.39c-.17-.22-.32-.44-.47-.67h0a5.22,5.22,0,0,1-.34-.62,2.79,2.79,0,0,1-.18-.34,10.35,10.35,0,0,1-.82-2.28,6,6,0,0,1-.17-.84c0-.12,0-.24,0-.37a.07.07,0,0,1,0-.05C567.2,446.56,567.18,446.42,567.17,446.26Z"/><path class="cls-60" d="M481,40.25l20.52,40.88a8.25,8.25,0,0,1,1.41-.32,4,4,0,0,1,.53-.08c.21,0,.43,0,.64-.06s.44,0,.66,0a4.09,4.09,0,0,1,.6,0,3,3,0,0,1,.6,0,3.94,3.94,0,0,1,.6.08,3.75,3.75,0,0,1,.6.11l.54.13,35-74.8Z"/><path class="cls-58" d="M458.4,40.25,437.88,81.13a8.25,8.25,0,0,0-1.41-.32,3.87,3.87,0,0,0-.54-.08,6.33,6.33,0,0,0-.64-.06c-.21,0-.43,0-.65,0a4,4,0,0,0-.6,0,3,3,0,0,0-.6,0,12,12,0,0,0-1.21.19l-.53.13L396.64,6.24Z"/><path class="cls-61" d="M343.88,343l-29.37,9.62,5.32-11.59a11.09,11.09,0,0,0,12.74-4.85l11.05,3.49c0,.27,0,.55,0,.82A11,11,0,0,0,343.88,343Z"/><path class="cls-56" d="M422,470.35a5.74,5.74,0,0,1-2.44-.55l-27.49-12.87a5.77,5.77,0,0,1-2.78-7.67L408,409.49c-3.91-1.85-7.71-3.67-11.46-5.5l-18.68,39.88a5.74,5.74,0,0,1-5.23,3.32,5.64,5.64,0,0,1-2.44-.55L342.7,433.78a5.77,5.77,0,0,1-2.78-7.67l19-40.51-2.61-1.25c-3.88-1.87-7.79-3.76-11.77-5.62L308.74,362a5.78,5.78,0,0,1-2.3-8.49l20.84-30.27a5.78,5.78,0,0,1,7.28-1.92c7.86,3.83,16.72,8.07,18.85,9a5.6,5.6,0,0,1,1,.37,7.14,7.14,0,0,0,3,.78c1.5,0,2.89-.89,4.12-2.67l57.53-122.8c1.27-5.6-1-9.41-7.15-12.31a6.63,6.63,0,0,1-1.06-.64c-2.12-1.12-10.95-5.16-18.81-8.66a5.77,5.77,0,0,1-2.87-7.71L403,147.25a5.78,5.78,0,0,1,7.67-2.78l37.92,17.78a5.52,5.52,0,0,1,1.12.69c3.65,1.7,7.37,3.37,11.15,5.06l18.76-40a5.76,5.76,0,0,1,7.67-2.77l27.48,12.87a5.77,5.77,0,0,1,2.77,7.67l-18.24,38.94c3.77,1.68,7.69,3.44,11.58,5.23L529,151.13a5.78,5.78,0,0,1,7.67-2.78l27.49,12.88a5.77,5.77,0,0,1,2.77,7.67L548,209.32c26.72,16.22,57.22,41.84,42.89,82.07-7.14,20.15-20,32.84-37.69,37.28,20.14,21.07,21.68,45.46,4.8,74.22-14,23.84-33.14,35.43-58.57,35.43h0c-14.7,0-31.67-3.82-53.08-12L427.27,467A5.77,5.77,0,0,1,422,470.35Z"/><path class="cls-62" d="M427.64,449.06a4,4,0,0,1-1.69-.38l-24.43-11.44a4,4,0,0,1-2.06-2.26,3.92,3.92,0,0,1,.14-3.06l17-36.35c-4.18-2-8.22-3.91-12.21-5.86l-17.08,36.47a4,4,0,0,1-3.62,2.3,4,4,0,0,1-1.7-.38l-24.4-11.43a4,4,0,0,1-1.92-5.32l17.32-37-3.36-1.62c-3.43-1.65-6.9-3.32-10.42-5l-31.78-14.88a4,4,0,0,1-1.6-5.89l18.52-26.9a4,4,0,0,1,3.29-1.73,4.07,4.07,0,0,1,1.76.4c7.11,3.47,15.09,7.28,16.89,8a3.46,3.46,0,0,1,.8.28,7.58,7.58,0,0,0,3.13.8c2.15,0,3.7-1.55,4.65-2.94,0,0,29.93-63.9,30-63.93l21.25-45.36c1.3-5.57-.91-9.49-7-12.32a4.32,4.32,0,0,1-.8-.5c-1.78-.95-9.74-4.59-16.87-7.77a4,4,0,0,1-2.12-2.25,4,4,0,0,1,.12-3.1L411.7,163.6a4,4,0,0,1,3.62-2.3,4,4,0,0,1,1.7.38l33.68,15.79a4,4,0,0,1,.88.56c3.58,1.67,7.27,3.33,11.05,5l17.14-36.56a4,4,0,0,1,5.32-1.92L509.5,156a4,4,0,0,1,1.92,5.32l-16.69,35.63c4,1.77,8.18,3.66,12.34,5.57l16.61-35.45a4,4,0,0,1,5.32-1.93l24.42,11.44a4,4,0,0,1,1.93,5.32l-17.26,36.83c23.6,14.17,51.11,36.69,38.5,72.1C570,309.33,558.4,320.36,542,323.69c18.77,18.65,20.54,40.32,5.48,66-12.2,20.81-28.91,30.92-51.07,30.92h0c-13.14,0-28.38-3.49-47.72-11l-17.4,37.11A4,4,0,0,1,427.64,449.06Zm-4.2-95.32c11.77,5.72,33.68,16.36,50.52,16.36,10.1,0,16.78-3.78,20.42-11.56,2.54-5.42,2.84-10.54.92-15.64-6.2-16.52-33.88-28.7-48.76-35.25l-2.46-1.08-21.84,46.59Zm36-78.72c10.07,4.92,26.92,13.15,40.77,13.15,9,0,15-3.54,18.38-10.81,2.42-5.18,2.74-10,1-14.65C514.3,248.82,492,239.07,480,233.84l-1.5-.66L459,274.8Z"/><path class="cls-63" d="M483.39,148.18l24.41,11.44-18.43,39.32c6.59,2.93,13.21,5.87,19.63,8.88l18.3-39.07,24.42,11.44-18.79,40.13c30.23,17.53,50.66,38.92,39.89,69.15-7.84,22.14-22.65,30.7-40.19,31.27,20.69,16.52,28.8,37.22,11.38,66.92-12.25,20.88-28.33,28.94-47.63,28.94-14.78,0-31.46-4.73-49.75-12.05l-19,40.5-24.42-11.43,18.73-40c-6.33-3-12.79-6-19.42-9.32l-18.81,40.15-24.4-11.43,19-40.59c-5.69-2.71-11.47-5.54-17.38-8.32l-31.78-14.89,18.51-26.89s17.1,8.34,17.74,8.34l0,0a11.3,11.3,0,0,0,4.82,1.18c4.09,0,6.74-2.81,8.14-5l30-64,2.59,1.2a22.59,22.59,0,0,0-2.51-1.38L429.89,217c1.38-5.4.85-12.65-9-17.28.45-.2-17.74-8.3-17.74-8.3l12.21-26.09L449,181.09l-.05.13c5.06,2.37,10.3,4.7,15.64,7.07l18.8-40.11m16.79,144c9.26,0,17.43-3.37,22-13.11,13.48-28.78-31.89-44.69-45.68-51.14l-22.84,48.76c8.92,4.18,29.56,15.49,46.52,15.49M474,374.1c10.34,0,19.25-3.62,24-13.86,14.82-31.63-39.31-51.19-55.87-58.95l-25.19,53.77c11,5.13,36.74,19,57,19m9.43-233.92a8,8,0,0,0-7.24,4.61l-15.47,33c-2.38-1.07-4.72-2.13-7-3.2a8.42,8.42,0,0,0-1.27-.74l-33.68-15.79a8,8,0,0,0-10.64,3.85L395.86,188a8,8,0,0,0,4,10.7c6.54,2.91,14.27,6.44,16.37,7.51a8.8,8.8,0,0,0,1.23.72c5.1,2.39,5.36,4.94,4.84,7.39l-21.06,45-.07.14v0l-29.72,63.43c-.4.52-.87,1-1.18,1a3.6,3.6,0,0,1-1.44-.43,8.67,8.67,0,0,0-1.2-.45c-2.09-.89-9.73-4.54-16.43-7.81a8,8,0,0,0-10.1,2.65l-18.51,26.9a8,8,0,0,0,3.19,11.78l31.79,14.89c3.41,1.6,6.84,3.25,10.17,4.85l-15.64,33.42a8,8,0,0,0,3.85,10.63l24.39,11.43A8,8,0,0,0,391,427.87l15.36-32.79,5,2.4L396,430.22a8,8,0,0,0,3.85,10.64l24.43,11.44a8,8,0,0,0,10.64-3.85l15.82-33.75c18.19,6.74,32.84,9.9,45.67,9.9,23.71,0,41.55-10.76,54.53-32.9,14.63-24.93,14.07-47-1.61-65.91,14.37-5.06,25-16.46,31.06-33.65,5.89-16.53,4.06-32.17-5.45-46.44-6.61-9.92-17-19.29-31.68-28.51L559,183.58A8,8,0,0,0,555.12,173l-24.43-11.44a7.89,7.89,0,0,0-3.39-.76,8,8,0,0,0-7.25,4.61l-14.92,31.87L500.08,195,515,163a8,8,0,0,0-3.85-10.64l-24.41-11.43a7.86,7.86,0,0,0-3.39-.76ZM464.25,272.92l16.17-34.52c11.79,5.18,31,14.12,35.37,25.72,1.39,3.67,1.11,7.34-.86,11.54-2.75,5.89-7.3,8.51-14.75,8.51-11.58,0-26.41-6.66-35.93-11.25Zm-36.71,78.37L446,311.8c13.69,6,40.06,18,45.52,32.5,1.54,4.11,1.28,8.09-.8,12.55-3.84,8.2-11,9.25-16.8,9.25-14.88,0-34.54-9.08-46.42-14.81Z"/></g></g></g></svg>