<svg xmlns="http://www.w3.org/2000/svg" viewBox="0 0 901.66 888.06"><defs><style>.cls-1{fill:#fff;}</style></defs><g id="Layer_2" data-name="Layer 2"><g id="Layer_1-2" data-name="Layer 1"><path class="cls-1" d="M28.31,765.32q-4.71,4.81-12.61,4.82H1a.85.85,0,0,1-1-1V703.69a.86.86,0,0,1,1-1H14.83q8.28,0,13,4.58t4.72,13.05q0,10.78-8,14.73c-.13.07-.2.13-.2.2a.32.32,0,0,0,.1.19q8.48,4.9,8.48,16.37Q33,760.51,28.31,765.32ZM6.84,709.08v23.21a.33.33,0,0,0,.38.38h7.61c3.47,0,6.16-1,8.09-3.08s2.89-4.94,2.89-8.66-1-6.86-2.89-9-4.62-3.22-8.09-3.22H7.22A.33.33,0,0,0,6.84,709.08Zm16.37,51.57q2.88-3.42,2.89-9.58t-2.89-9.73a9.84,9.84,0,0,0-8-3.46h-8a.33.33,0,0,0-.38.38v25.42a.34.34,0,0,0,.38.39h8A9.9,9.9,0,0,0,23.21,760.65Z"/><path class="cls-1" d="M72.13,769.17V703.69a.86.86,0,0,1,1-1H78a.86.86,0,0,1,1,1v65.48a.86.86,0,0,1-1,1H73.09A.85.85,0,0,1,72.13,769.17Z"/><path class="cls-1" d="M152.25,703.69v4a.85.85,0,0,1-1,1H138.58c-.26,0-.39.12-.39.38v60.09a.85.85,0,0,1-1,1h-4.91a.85.85,0,0,1-1-1V709.08a.33.33,0,0,0-.38-.38H119a.86.86,0,0,1-1-1v-4a.86.86,0,0,1,1-1h32.26A.86.86,0,0,1,152.25,703.69Z"/><path class="cls-1" d="M191.21,766.38q-4.49-4.53-4.48-12.13V718.52q0-7.51,4.48-12T203.1,702q7.52,0,12,4.47t4.48,12.09v1.64a.85.85,0,0,1-1,1l-5,.29a.85.85,0,0,1-1-1V718a10.28,10.28,0,0,0-2.6-7.32,10,10,0,0,0-13.82,0,10.21,10.21,0,0,0-2.64,7.32v36.78a10.21,10.21,0,0,0,2.64,7.32,9.93,9.93,0,0,0,13.82,0,10.28,10.28,0,0,0,2.6-7.32v-2.4a.86.86,0,0,1,1-1l5,.29a.85.85,0,0,1,1,1v1.54q0,7.61-4.53,12.13t-11.94,4.53Q195.69,770.91,191.21,766.38Z"/><path class="cls-1" d="M263.14,766.28q-4.58-4.62-4.57-12.23V718.81q0-7.6,4.57-12.23t12-4.62q7.51,0,12.14,4.62t4.62,12.23v35.24q0,7.51-4.62,12.19t-12.14,4.67Q267.72,770.91,263.14,766.28ZM282.31,762a10.63,10.63,0,0,0,2.74-7.56V718.52a10.76,10.76,0,0,0-2.74-7.66,9.36,9.36,0,0,0-7.18-2.93,9.09,9.09,0,0,0-7,2.93,10.87,10.87,0,0,0-2.69,7.66v35.92A10.73,10.73,0,0,0,268.1,762a9.1,9.1,0,0,0,7,2.94A9.36,9.36,0,0,0,282.31,762Z"/><path class="cls-1" d="M333,769.17V703.69a.86.86,0,0,1,1-1h4.91a.86.86,0,0,1,1,1v65.48a.85.85,0,0,1-1,1H334A.85.85,0,0,1,333,769.17Z"/><path class="cls-1" d="M410.53,702.72h4.82a.86.86,0,0,1,1,1v65.48a.85.85,0,0,1-1,1h-5.68a1.06,1.06,0,0,1-1.06-.77l-18.78-49.79c-.07-.19-.16-.28-.29-.24s-.19.14-.19.33l.09,49.5a.85.85,0,0,1-1,1h-4.91a.86.86,0,0,1-1-1V703.69a.86.86,0,0,1,1-1h5.58a1.05,1.05,0,0,1,1.06.78l18.88,49.88c.06.19.16.27.29.24s.19-.14.19-.34V703.69A.86.86,0,0,1,410.53,702.72Z"/><path class="cls-1" d="M515.69,769.27,503,703.79v-.2a.77.77,0,0,1,.87-.87H509a.92.92,0,0,1,1.06.87l9,50.66c.07.13.13.19.2.19s.12-.06.19-.19l7.8-50.66a.94.94,0,0,1,1-.87h4.43a.88.88,0,0,1,1,.87l8.18,50.66c.06.13.13.19.19.19s.13-.06.2-.19l8.28-50.66a.94.94,0,0,1,1-.87h5.11a.89.89,0,0,1,.72.29.88.88,0,0,1,.14.78l-11.94,65.48a.92.92,0,0,1-1.06.87h-4.72a.94.94,0,0,1-1-.87l-8.09-50.85c-.06-.12-.14-.19-.24-.19s-.15.07-.15.19l-7.89,50.85a.87.87,0,0,1-1,.87h-4.63A1,1,0,0,1,515.69,769.27Z"/><path class="cls-1" d="M596,769.17V703.69a.86.86,0,0,1,1-1h4.91a.86.86,0,0,1,1,1v65.48a.86.86,0,0,1-1,1H597A.85.85,0,0,1,596,769.17Z"/><path class="cls-1" d="M647.14,766.19q-4.42-4.73-4.43-12.33v-2.21a.86.86,0,0,1,1-1h4.72a.86.86,0,0,1,1,1v1.92a12.49,12.49,0,0,0,2.6,8.24,8.37,8.37,0,0,0,6.74,3.13,8.71,8.71,0,0,0,6.74-3,11.32,11.32,0,0,0,2.7-7.9,11.56,11.56,0,0,0-1.3-5.63,15.07,15.07,0,0,0-3.37-4.14q-2.07-1.78-6.89-5.44T649,732.72a20.86,20.86,0,0,1-4.57-6.11,18.51,18.51,0,0,1-1.78-8.38q0-7.51,4.33-11.89A15.17,15.17,0,0,1,658.22,702q7.32,0,11.7,4.76t4.38,12.67v2.4a.85.85,0,0,1-1,1h-4.82a.85.85,0,0,1-1-1v-2.5a12.66,12.66,0,0,0-2.55-8.24,8.34,8.34,0,0,0-6.79-3.12,8.23,8.23,0,0,0-6.36,2.74q-2.5,2.75-2.5,7.75a11.79,11.79,0,0,0,1.11,5.25,14.29,14.29,0,0,0,3.32,4.29c1.48,1.34,3.66,3.11,6.55,5.29a102,102,0,0,1,8.62,6.89,20,20,0,0,1,4.38,5.78,17,17,0,0,1,1.54,7.56q0,7.89-4.53,12.66a15.35,15.35,0,0,1-11.65,4.77A15.16,15.16,0,0,1,647.14,766.19Z"/><path class="cls-1" d="M713.88,769.17V703.69a.86.86,0,0,1,1-1h14.83c5,0,8.89,1.63,11.85,4.87s4.43,7.59,4.43,13v31.58q0,8.19-4.43,13c-3,3.25-6.9,4.87-11.85,4.87H714.84A.85.85,0,0,1,713.88,769.17Zm7.22-5,8.48-.1a8.19,8.19,0,0,0,6.79-3.27q2.55-3.28,2.65-8.86v-31q0-5.68-2.51-9a8.24,8.24,0,0,0-6.93-3.27H721.1a.33.33,0,0,0-.38.38v54.7A.34.34,0,0,0,721.1,764.17Z"/><path class="cls-1" d="M790.49,766.28q-4.57-4.62-4.58-12.23V718.81q0-7.6,4.58-12.23t12-4.62q7.51,0,12.13,4.62t4.62,12.23v35.24q0,7.51-4.62,12.19t-12.13,4.67Q795.06,770.91,790.49,766.28ZM809.65,762a10.64,10.64,0,0,0,2.75-7.56V718.52a10.77,10.77,0,0,0-2.75-7.66,9.35,9.35,0,0,0-7.17-2.93,9.07,9.07,0,0,0-7,2.93,10.87,10.87,0,0,0-2.7,7.66v35.92a10.74,10.74,0,0,0,2.7,7.56,9.08,9.08,0,0,0,7,2.94A9.36,9.36,0,0,0,809.65,762Z"/><path class="cls-1" d="M890.88,702.72h5a.86.86,0,0,1,1,1v65.48a.85.85,0,0,1-1,1H891a.85.85,0,0,1-1-1V717.55c0-.19,0-.28-.15-.28a.52.52,0,0,0-.34.19l-10,20.8a1,1,0,0,1-1,.67,1,1,0,0,1-1.06-.67l-10-20.71a.56.56,0,0,0-.34-.19c-.09,0-.14.1-.14.29v51.52a.85.85,0,0,1-1,1h-4.91a.85.85,0,0,1-1-1V703.69a.86.86,0,0,1,1-1h5a1.14,1.14,0,0,1,1.16.68l11,22.24a.31.31,0,0,0,.29.2.33.33,0,0,0,.29-.2l10.88-22.24A1.13,1.13,0,0,1,890.88,702.72Z"/><path class="cls-1" d="M27.18,830.56H6.71a.32.32,0,0,0-.35.36V853a.32.32,0,0,0,.35.36H19.62a.79.79,0,0,1,.89.89v3.82a.79.79,0,0,1-.89.9H6.71a.31.31,0,0,0-.35.35v27.15a.79.79,0,0,1-.89.89H.93a.79.79,0,0,1-.89-.89V825.94a.79.79,0,0,1,.89-.89H27.18a.78.78,0,0,1,.89.89v3.74A.78.78,0,0,1,27.18,830.56Z"/><path class="cls-1" d="M65.41,883.79q-4.23-4.27-4.23-11.31V839.91q0-7,4.23-11.3a14.89,14.89,0,0,1,11.08-4.27,15.14,15.14,0,0,1,11.21,4.27Q92,832.89,92,839.91v32.57a15.31,15.31,0,0,1-4.27,11.26,15.06,15.06,0,0,1-11.21,4.32A14.93,14.93,0,0,1,65.41,883.79Zm17.71-4a9.79,9.79,0,0,0,2.53-7v-33.2a10,10,0,0,0-2.53-7.07,8.65,8.65,0,0,0-6.63-2.72,8.42,8.42,0,0,0-6.5,2.72,10.06,10.06,0,0,0-2.49,7.07v33.2a9.9,9.9,0,0,0,2.49,7,8.38,8.38,0,0,0,6.5,2.72A8.62,8.62,0,0,0,83.12,879.82Z"/><path class="cls-1" d="M153.83,886.63l-9.08-27.5a.35.35,0,0,0-.36-.26h-7.74a.32.32,0,0,0-.36.35v27.24a.79.79,0,0,1-.89.89h-4.54a.79.79,0,0,1-.89-.89V825.94a.79.79,0,0,1,.89-.89h14.69a13.07,13.07,0,0,1,10.5,4.76q4,4.76,4,12.41a19.14,19.14,0,0,1-2.5,10,13.47,13.47,0,0,1-6.76,5.87.33.33,0,0,0-.27.45l9.7,27.86.09.35c0,.42-.26.63-.8.63h-4.63A1,1,0,0,1,153.83,886.63Zm-17.54-55.71v22.52c0,.24.12.35.36.35h8a8,8,0,0,0,6.59-3.15,15.53,15.53,0,0,0,0-16.87,8,8,0,0,0-6.59-3.21h-8A.32.32,0,0,0,136.29,830.92Z"/><path class="cls-1" d="M266.76,882.89q-4.35,4.46-11.66,4.46H241.49a.79.79,0,0,1-.89-.89V825.94a.78.78,0,0,1,.89-.89H254.3q7.67,0,12,4.23t4.36,12.05q0,10-7.39,13.62-.18.09-.18.18a.26.26,0,0,0,.09.18q7.83,4.53,7.83,15.13Q271.12,878.45,266.76,882.89Zm-19.84-52v21.45a.3.3,0,0,0,.35.35h7a9.74,9.74,0,0,0,7.48-2.84q2.67-2.85,2.67-8,0-5.34-2.67-8.32a9.51,9.51,0,0,0-7.48-3h-7C247,830.56,246.92,830.68,246.92,830.92Zm15.13,47.66q2.67-3.17,2.67-8.86t-2.67-9a9.12,9.12,0,0,0-7.39-3.2h-7.39c-.24,0-.35.12-.35.36v23.49c0,.24.11.36.35.36h7.39A9.15,9.15,0,0,0,262.05,878.58Z"/><path class="cls-1" d="M310.9,883.34q-4.18-4.71-4.18-12.46V825.94a.79.79,0,0,1,.89-.89h4.54a.79.79,0,0,1,.89.89v45.65a12.13,12.13,0,0,0,2.45,7.92,7.88,7.88,0,0,0,6.45,3,8.12,8.12,0,0,0,6.59-3,12,12,0,0,0,2.49-7.92V825.94a.78.78,0,0,1,.89-.89h4.54a.79.79,0,0,1,.89.89v44.94q0,7.74-4.23,12.46a14.26,14.26,0,0,1-11.17,4.72A14,14,0,0,1,310.9,883.34Z"/><path class="cls-1" d="M377.74,883.7q-4.1-4.37-4.09-11.4v-2a.79.79,0,0,1,.89-.89h4.36a.79.79,0,0,1,.89.89V872a11.54,11.54,0,0,0,2.4,7.61,7.71,7.71,0,0,0,6.23,2.89,8,8,0,0,0,6.23-2.76,10.48,10.48,0,0,0,2.49-7.3,10.63,10.63,0,0,0-1.2-5.2,13.82,13.82,0,0,0-3.11-3.83c-1.28-1.1-3.4-2.77-6.37-5s-5.31-4.08-7-5.65a19.09,19.09,0,0,1-4.22-5.65,17.11,17.11,0,0,1-1.65-7.74q0-6.95,4-11a15.45,15.45,0,0,1,21.23.35q4.05,4.41,4,11.7v2.23a.79.79,0,0,1-.89.89H397.5a.79.79,0,0,1-.89-.89v-2.31a11.65,11.65,0,0,0-2.36-7.61,8.15,8.15,0,0,0-12.15-.36q-2.31,2.54-2.31,7.16a10.92,10.92,0,0,0,1,4.85,13.42,13.42,0,0,0,3.07,4c1.37,1.24,3.38,2.87,6.05,4.89a93.43,93.43,0,0,1,8,6.36A18.7,18.7,0,0,1,402,865a15.7,15.7,0,0,1,1.42,7c0,4.86-1.39,8.77-4.18,11.7a14.19,14.19,0,0,1-10.77,4.41A14,14,0,0,1,377.74,883.7Z"/><path class="cls-1" d="M447.69,886.37V859.76a.71.71,0,0,0-.09-.45l-12.37-33.19-.09-.36c0-.47.27-.71.8-.71h4.81a1,1,0,0,1,1.07.71l8.72,26.08a.28.28,0,0,0,.27.17.27.27,0,0,0,.26-.17l8.73-26.08a1,1,0,0,1,1.06-.71h4.81a.76.76,0,0,1,.67.31.78.78,0,0,1,0,.76L454.1,859.31a.71.71,0,0,0-.09.45v26.61a.79.79,0,0,1-.89.89h-4.54A.79.79,0,0,1,447.69,886.37Z"/><path class="cls-1" d="M573.27,829.72q4,4.75,4,12.5t-3.91,12.33A12.85,12.85,0,0,1,563,859.22h-9.17a.32.32,0,0,0-.35.36v26.88a.79.79,0,0,1-.89.89h-4.54a.79.79,0,0,1-.89-.89V825.85a.79.79,0,0,1,.89-.89h14.69A13.07,13.07,0,0,1,573.27,829.72Zm-4.81,21.14a13.58,13.58,0,0,0,2.49-8.55,13.76,13.76,0,0,0-2.49-8.59,7.82,7.82,0,0,0-6.5-3.24h-8.1a.31.31,0,0,0-.35.35v22.88a.31.31,0,0,0,.35.35H562A7.86,7.86,0,0,0,568.46,850.86Z"/><path class="cls-1" d="M640.64,830.56H620a.32.32,0,0,0-.36.36V853a.32.32,0,0,0,.36.36h13a.79.79,0,0,1,.89.89v3.82a.79.79,0,0,1-.89.9H620c-.24,0-.36.11-.36.35v22.16a.32.32,0,0,0,.36.36h20.65a.79.79,0,0,1,.89.89v3.74a.79.79,0,0,1-.89.89H614.2a.79.79,0,0,1-.89-.89V825.94a.79.79,0,0,1,.89-.89h26.44a.79.79,0,0,1,.89.89v3.74A.78.78,0,0,1,640.64,830.56Z"/><path class="cls-1" d="M680.91,883.79q-4.23-4.27-4.23-11.31V839.91q0-7,4.23-11.3A14.87,14.87,0,0,1,692,824.34a15.16,15.16,0,0,1,11.21,4.27q4.27,4.27,4.27,11.3v32.57a15.31,15.31,0,0,1-4.27,11.26A15.08,15.08,0,0,1,692,888.06,14.91,14.91,0,0,1,680.91,883.79Zm17.71-4a9.79,9.79,0,0,0,2.53-7v-33.2a10,10,0,0,0-2.53-7.07,8.67,8.67,0,0,0-6.63-2.72,8.42,8.42,0,0,0-6.5,2.72,10.06,10.06,0,0,0-2.49,7.07v33.2a9.9,9.9,0,0,0,2.49,7,8.38,8.38,0,0,0,6.5,2.72A8.63,8.63,0,0,0,698.62,879.82Z"/><path class="cls-1" d="M771.46,829.72q4,4.75,4,12.5t-3.91,12.33a12.82,12.82,0,0,1-10.32,4.67h-9.17a.32.32,0,0,0-.36.36v26.88a.79.79,0,0,1-.89.89h-4.54a.79.79,0,0,1-.89-.89V825.85a.79.79,0,0,1,.89-.89H761A13.07,13.07,0,0,1,771.46,829.72Zm-4.81,21.14a13.58,13.58,0,0,0,2.5-8.55,13.76,13.76,0,0,0-2.5-8.59,7.8,7.8,0,0,0-6.49-3.24h-8.1a.32.32,0,0,0-.36.35v22.88a.32.32,0,0,0,.36.35h8.1A7.85,7.85,0,0,0,766.65,850.86Z"/><path class="cls-1" d="M811.51,886.46V825.94a.78.78,0,0,1,.89-.89h4.54a.79.79,0,0,1,.89.89v55.53c0,.24.11.36.35.36h20.38a.79.79,0,0,1,.89.89v3.74a.79.79,0,0,1-.89.89H812.4A.79.79,0,0,1,811.51,886.46Z"/><path class="cls-1" d="M900.77,830.56H880.12a.32.32,0,0,0-.35.36V853a.32.32,0,0,0,.35.36h13a.79.79,0,0,1,.89.89v3.82a.79.79,0,0,1-.89.9h-13a.31.31,0,0,0-.35.35v22.16a.32.32,0,0,0,.35.36h20.65a.79.79,0,0,1,.89.89v3.74a.79.79,0,0,1-.89.89H874.34a.79.79,0,0,1-.89-.89V825.94a.79.79,0,0,1,.89-.89h26.43a.79.79,0,0,1,.89.89v3.74A.78.78,0,0,1,900.77,830.56Z"/><path class="cls-1" d="M767.45,281.65a2.61,2.61,0,0,0-.06-.27,2,2,0,0,0-.11-.26,1,1,0,0,0-.14-.24l-.09-.13-39.84-57.69,12.35-50.77a1.75,1.75,0,0,0,0-.72.68.68,0,0,0,0-.14s0,0,0-.05a.63.63,0,0,0-.07-.22,1.22,1.22,0,0,0-.14-.28l-.05-.09-.08-.09h0a1,1,0,0,0-.17-.19l-59.73-65.31-.08-.09a.05.05,0,0,0,0,0,1.09,1.09,0,0,0-.25-.23,1.64,1.64,0,0,0-.22-.14l-.12,0L591.23,58.91,541.48.79c-.06-.06-.09-.12-.16-.18l-.1-.11a.11.11,0,0,1-.05,0s0,0,0,0A.19.19,0,0,0,541,.35a.62.62,0,0,0-.23-.14,1.82,1.82,0,0,0-.44-.17A1.72,1.72,0,0,0,540,0a1.94,1.94,0,0,0-.9.23l-.07,0L470.72,37.86l-.09,0,0,0a1,1,0,0,0-.23.18.46.46,0,0,0-.15.16,1.81,1.81,0,0,0-.46,1.21v123l-12.1,25.82-1.87-.83v-148a1.81,1.81,0,0,0-.46-1.21.46.46,0,0,0-.15-.16,1,1,0,0,0-.23-.18l0,0-.09,0L386.57.27l-.08,0A1.87,1.87,0,0,0,385.6,0a1.72,1.72,0,0,0-.39,0,1.82,1.82,0,0,0-.44.17.62.62,0,0,0-.23.14.19.19,0,0,0-.11.07s0,0-.05,0a.11.11,0,0,1-.05,0l-.1.11c-.07.06-.1.12-.16.18L334.32,58.91,247,104.66l-.12,0a1.64,1.64,0,0,0-.22.14,1.09,1.09,0,0,0-.25.23l0,0-.08.09L186.53,170.5a1,1,0,0,0-.17.19h0l-.08.09-.05.09a1.22,1.22,0,0,0-.14.28.63.63,0,0,0-.07.22s0,0,0,.05a.68.68,0,0,0,0,.14,1.75,1.75,0,0,0,0,.72l12.35,50.77L158.5,280.75l-.09.13a1,1,0,0,0-.14.24,2,2,0,0,0-.11.26,2.61,2.61,0,0,0-.06.27,2.4,2.4,0,0,0,0,.28,2.85,2.85,0,0,0,0,.29,1.18,1.18,0,0,0,.08.31,1,1,0,0,0,.11.28l26.24,48.33-1.38,63.53v.09a1.59,1.59,0,0,0,.1.64,1.21,1.21,0,0,0,.09.2,0,0,0,0,0,0,0,.46.46,0,0,0,.09.17.87.87,0,0,0,.15.2l63.6,80.2-2.74,45.26a1.88,1.88,0,0,0,.79,1.64l78,54.34a2.11,2.11,0,0,0,.3.16L361,594.75h0a.55.55,0,0,0,.15.08h.1l.11,0a.38.38,0,0,1,.1,0h.13s0,0,0,0l.32,0h0l.24,0h.05a2.62,2.62,0,0,0,.33-.09l.17-.08a0,0,0,0,0,0,0,.87.87,0,0,0,.19-.1L394.73,579l59.73-20.83h.05a0,0,0,0,0,0,0,1,1,0,0,0,.22-.09A.62.62,0,0,0,455,558l.14-.1.23-.22a2.75,2.75,0,0,0,.26-.4s.05-.11.07-.17a.14.14,0,0,0,0-.09s0-.09,0-.14a.94.94,0,0,1,0-.16s0,0,0,0v0a1.29,1.29,0,0,0,0-.19.49.49,0,0,0,0-.21V410.4c4.79,1.54,9.45,2.84,14,3.84v142a.49.49,0,0,0,0,.21,1.29,1.29,0,0,0,0,.19v0s0,0,0,0a.94.94,0,0,1,0,.16s0,.09,0,.14a.14.14,0,0,0,0,.09c0,.06.05.12.07.17a2.75,2.75,0,0,0,.26.4l.23.22.14.1a.62.62,0,0,0,.19.11,1,1,0,0,0,.22.09,0,0,0,0,0,0,0h0L530.82,579l31.7,15.64a.69.69,0,0,0,.19.1,0,0,0,0,0,0,0l.17.08a2.62,2.62,0,0,0,.33.09h0l.24,0h0l.32,0s0,0,0,0H564a.29.29,0,0,1,.1,0l.11,0h.1a.55.55,0,0,0,.15-.08h0L602,577.62a2.11,2.11,0,0,0,.3-.16l78-54.34a1.88,1.88,0,0,0,.79-1.64l-2.74-45.26,63.6-80.2a1.3,1.3,0,0,0,.15-.2.46.46,0,0,0,.09-.17,0,0,0,0,0,0,0,1.21,1.21,0,0,0,.09-.2,1.78,1.78,0,0,0,.1-.64v-.09L741,331.14l26.24-48.33a1,1,0,0,0,.11-.28,1.18,1.18,0,0,0,.08-.31,2.85,2.85,0,0,0,0-.29A2.4,2.4,0,0,0,767.45,281.65Zm-43.54-60.72-65.84-25a3.13,3.13,0,0,0,0-.43c0-.23,0-.47,0-.7a11.09,11.09,0,0,0-11.08-11.08l-.67,0a3.27,3.27,0,0,0-.45,0,11.62,11.62,0,0,0-2,.37l-.49.17a10.11,10.11,0,0,0-2.65,1.32,4.41,4.41,0,0,0-.49.36,7.72,7.72,0,0,0-.87.74l-.35.35a3,3,0,0,0-.29.32,9.63,9.63,0,0,0-.76.93L540.51,151.2l48.29,5.52,146.65,16.75ZM560.24,446.26c0,.16,0,.3,0,.45a.07.07,0,0,0,0,.05,2.47,2.47,0,0,0,.05.38,6.11,6.11,0,0,0,.17.83,10.35,10.35,0,0,0,.82,2.28,2.79,2.79,0,0,0,.18.34,4.1,4.1,0,0,0,.34.62h0c.14.23.3.45.46.67L475.5,549.28l37.66-137.85c9.09-4.5,17.1-12.15,23.91-23.77,14.34-24.44,11.38-42.78-1.64-57.71l1.91-7a10.23,10.23,0,0,0,1.92.17A11,11,0,0,0,547,320l20.71,16.09a11,11,0,0,0-.93,4.44,11.14,11.14,0,0,0,8.33,10.73l-4.59,83.07h-.05a7.46,7.46,0,0,0-.81.1h0a7.78,7.78,0,0,0-.81.17,1.62,1.62,0,0,0-.38.09l-.5.14-.79.28a8.11,8.11,0,0,0-1.11.54,6.9,6.9,0,0,0-.87.52s0,0,0,0a5.51,5.51,0,0,0-.73.54,1,1,0,0,0-.17.14,9.15,9.15,0,0,0-.74.68c-.13.12-.24.25-.37.38s-.46.54-.68.82-.41.58-.59.88-.19.31-.27.46-.1.18-.14.27a3.62,3.62,0,0,0-.19.4,4.73,4.73,0,0,0-.2.47,2.37,2.37,0,0,0-.13.34c0,.13-.1.25-.14.39a9.76,9.76,0,0,0-.31,1.18,4.51,4.51,0,0,0-.1.53c0,.23-.07.47-.09.71s0,.2,0,.3,0,.23,0,.34,0,.24,0,.35A8.51,8.51,0,0,0,560.24,446.26ZM525.7,320.74a50.83,50.83,0,0,0,6.1-.55,10.77,10.77,0,0,0,2,1.5l-1.38,5.07A82.88,82.88,0,0,0,525.7,320.74Zm.23-162a11.47,11.47,0,0,0,2.87-.37l8.37,18.25-16.8-7.87-6.15,13.11-17-14.57,3.6-7.67-24.41-11.44-.41.86-2.16-1.85h0l21-44.78.56.13.19,0,.71.13a11.51,11.51,0,0,0,2.49,0,4.81,4.81,0,0,0,.65-.08,7.17,7.17,0,0,0,.9-.18c.19,0,.4-.09.59-.15a.19.19,0,0,0,.1,0h0l18.29,36.44a11,11,0,0,0-4.52,8.91A11.09,11.09,0,0,0,525.93,158.74ZM636,195.5a.5.5,0,0,0,0,.17,1.41,1.41,0,0,0,0,.21l-64.1,23.9a11.07,11.07,0,0,0-13.39-5.52l-14.71-32,.95-2-2.4-1.13-10.23-22.25a10.94,10.94,0,0,0,3.3-3.54l101,38.41c-.07.24-.12.49-.17.74a5,5,0,0,0-.15.77L636,194c0,.27,0,.53,0,.8S636,195.25,636,195.5ZM588.86,339.71l11-3.49a11.1,11.1,0,0,0,12.75,4.85L618,352.66,588.6,343a10.45,10.45,0,0,0,.29-2.51C588.89,340.26,588.87,340,588.86,339.71Zm9.46-9.23a10.8,10.8,0,0,0,.24,2.27L588,336.1A11.05,11.05,0,0,0,569.73,333l-20.57-16a10.8,10.8,0,0,0,1.15-4.46c6.48-5,11.82-12.47,15.58-23.06,6-17,2.26-31.12-7.55-43.39l2.81-10.27a10.77,10.77,0,0,0,3.11-.18l39.23,85.49A11,11,0,0,0,598.32,330.48ZM555.26,216c-.22.18-.44.36-.66.56l-19.14-16.46,6.31-13.48Zm-59.62-45.24,17,14.57-10.52,22.47c-6.43-3-13.05-5.95-19.63-8.88ZM526,220.32l7.83-16.71,18.49,15.9a11.09,11.09,0,0,0-1,8l-9.15,3.41A166,166,0,0,0,526,220.32Zm26.82,10.55a11.15,11.15,0,0,0,4.74,4l-2.13,7.79a90,90,0,0,0-9.81-9.13Zm26,120.7a11,11,0,0,0,8.39-5.1l32.92,10.8L673,472.65l-90.68-27.41a12.26,12.26,0,0,0-.17-1.84,4,4,0,0,0-.11-.47,2.34,2.34,0,0,0-.14-.58.48.48,0,0,0,0-.18,4.23,4.23,0,0,0-.24-.71,39.38,39.38,0,0,0-.36-.84,1.87,1.87,0,0,0-.17-.35,5.37,5.37,0,0,0-.41-.73,10.63,10.63,0,0,0-1.88-2.29,8.75,8.75,0,0,0-1.54-1.18,6.46,6.46,0,0,0-1-.6c-.23-.12-.46-.22-.69-.32a.75.75,0,0,0-.18-.07,8.33,8.33,0,0,0-.84-.29.15.15,0,0,0-.07,0l-.27-.07ZM616,339.39a11,11,0,0,0,4.51-8.91c0-.26,0-.51,0-.76l68-21.45a11.05,11.05,0,0,0,9.73,5.79,10.92,10.92,0,0,0,2.68-.32l36.22,77.95L622.8,354.25ZM687.08,303a11.73,11.73,0,0,0,.14,1.77l-67.65,21.36a11.15,11.15,0,0,0-10.17-6.7,10.75,10.75,0,0,0-2.47.28l-39.19-85.4a11.15,11.15,0,0,0,5.39-9.52,10,10,0,0,0-.09-1.45l64-23.85a1.39,1.39,0,0,0,.11.21,3.21,3.21,0,0,0,.24.45,6.59,6.59,0,0,0,.42.71c.14.21.29.43.45.64a5.84,5.84,0,0,0,.39.48c.05.07.12.13.17.19a4.43,4.43,0,0,0,.37.39,9.22,9.22,0,0,0,1.15,1,4.37,4.37,0,0,0,.62.44,11.15,11.15,0,0,0,2.2,1.13c.24.09.5.16.74.24l.63.17.36.07a3.55,3.55,0,0,0,.47.09c.26,0,.52.07.79.09s.6,0,.9,0a8.77,8.77,0,0,0,.9,0c.22,0,.42,0,.63-.06s.33,0,.48-.09.45-.09.67-.14a4.81,4.81,0,0,0,.65-.18h.07l.51,1.1L691.66,294A11,11,0,0,0,687.08,303ZM733,169.45,537,147.06c0-.15,0-.31,0-.46l140.3-38.15Zm-60.25-63.64L536,143a10.72,10.72,0,0,0-2.09-3L590.6,62.77ZM540.41,5.25l47.27,55.22-56.8,77.3a11.22,11.22,0,0,0-8.18-.7l-8.18-16.28-10.11-20.14c.08-.07.16-.12.22-.18l.22-.18.43-.36c.21-.19.43-.4.62-.6s.34-.37.5-.56.32-.4.46-.61a10.47,10.47,0,0,0,1.37-2.58l.15-.43a8.89,8.89,0,0,0,.36-1.48,5.25,5.25,0,0,0,.09-.55,1.43,1.43,0,0,0,0-.23,4.38,4.38,0,0,0,0-.5c0-.22,0-.45,0-.67s0-.45,0-.68,0-.46-.07-.68a5.77,5.77,0,0,0-.09-.6.43.43,0,0,0,0-.11c0-.19-.08-.39-.12-.57a11.57,11.57,0,0,0-.38-1.23c-.09-.23-.18-.47-.29-.7s-.23-.47-.35-.7-.26-.45-.4-.67a7.23,7.23,0,0,0-.44-.64c-.15-.21-.32-.41-.48-.6s-.31-.36-.48-.53a10.32,10.32,0,0,0-1.62-1.39Zm-4.57,1L500.79,81l-.54-.13a4,4,0,0,0-.6-.11,4.3,4.3,0,0,0-.6-.08l-.61,0a4,4,0,0,0-.6,0l-.65,0a6.33,6.33,0,0,0-.64.06,4.37,4.37,0,0,0-.54.08,8.25,8.25,0,0,0-1.41.32L474.09,40.25ZM473.47,47.33l17.8,35.47s0,0-.07.06l-.09.06a8.28,8.28,0,0,0-.84.71c-.16.15-.33.32-.48.48a10.35,10.35,0,0,0-1.21,1.52,5.09,5.09,0,0,0-.3.5,5,5,0,0,0-.31.56,7.25,7.25,0,0,0-.51,1.18l-.16.42a9.83,9.83,0,0,0-.36,1.49c0,.17-.06.37-.09.55a1.4,1.4,0,0,0,0,.23,2.74,2.74,0,0,0,0,.5c0,.21,0,.44,0,.66s0,.45,0,.68,0,.45.06.68.07.44.11.65.09.45.14.66.11.43.18.65.14.42.21.63a11.3,11.3,0,0,0,.9,1.81c.1.18.22.35.33.52s.26.36.4.54a3.17,3.17,0,0,0,.32.39c.14.17.28.32.44.48a10.38,10.38,0,0,0,1.64,1.4l-18,38.51Zm0,104.39.95.81-.95,2Zm-3.9,76.2.19.08c1.07.5,2.32,1.05,3.71,1.66,7.79,3.41,20,8.58,29.59,15.78,1.17.87,2.3,1.78,3.38,2.71,9.22,8,14.76,18.19,8.8,30.91a23.25,23.25,0,0,1-5.36,7.45,19.89,19.89,0,0,1-3.1,2.3c-9,5.45-21.61,3.49-33.31-.42-1.25-.42-2.49-.86-3.71-1.32-5.07-1.89-9.85-4.05-14-6-1.31-.62-2.55-1.22-3.71-1.79-2.06-1-3.87-1.89-5.36-2.59l5.36-11.43,3.71-7.92ZM365.34,445c0-.11,0-.23,0-.34s0-.19,0-.3-.05-.48-.09-.71a4.51,4.51,0,0,0-.1-.53,9.76,9.76,0,0,0-.31-1.18c0-.14-.09-.26-.14-.39a2.37,2.37,0,0,0-.13-.34,4.73,4.73,0,0,0-.2-.47,3.62,3.62,0,0,0-.19-.4c0-.09-.09-.18-.14-.27s-.17-.3-.27-.46-.39-.6-.59-.88-.45-.56-.68-.82-.24-.26-.37-.38a9.15,9.15,0,0,0-.74-.68,1,1,0,0,0-.17-.14,6.25,6.25,0,0,0-.73-.54s0,0,0,0a6.9,6.9,0,0,0-.87-.52,8.11,8.11,0,0,0-1.11-.54l-.79-.28-.5-.14a1.62,1.62,0,0,0-.38-.09,7.78,7.78,0,0,0-.81-.17h0a7,7,0,0,0-.8-.1h-.05l-1.14-20.56,22.85,10.71,18.81-40.15c3.66,1.8,7.26,3.55,10.83,5.25l3.87,14.16-14,29.88,24.43,11.43.54-1.16,28.8,105.39-86.81-97.39c.16-.22.32-.44.46-.67h0a4.1,4.1,0,0,0,.34-.62,2.79,2.79,0,0,0,.18-.34A10.35,10.35,0,0,0,365,448a6.11,6.11,0,0,0,.17-.83,2.47,2.47,0,0,0,.05-.38.07.07,0,0,0,0-.05c0-.15,0-.29,0-.45a8.51,8.51,0,0,0,0-.88C365.35,445.27,365.35,445.15,365.34,445Zm40.84-306.28,18.29-36.44h0a.19.19,0,0,0,.1,0c.19.06.4.11.59.15a7.17,7.17,0,0,0,.9.18,4.81,4.81,0,0,0,.65.08,11.51,11.51,0,0,0,2.49,0l.71-.13.19,0,.56-.13,21,44.78h0L422.75,172l-14.36-6.74-12.22,26.09,2.68,1.2-27.9,24c-.22-.2-.44-.38-.66-.56l26.46-57.65a11.47,11.47,0,0,0,2.87.37,11.09,11.09,0,0,0,11.08-11.08A11,11,0,0,0,406.18,138.75Zm7.74,60.94c9.89,4.63,10.42,11.88,9,17.28l-11.42,24.39-37.29-13.9a11.09,11.09,0,0,0-1-8l29.35-25.24C407.78,196.62,414.19,199.57,413.92,199.69Zm-106.34,153,5.31-11.59a11.1,11.1,0,0,0,12.75-4.85l4.56,1.44-6.74,9.8ZM404,264.06l-2.58-1.2-16.31,34.8L368,234.89a11.21,11.21,0,0,0,4.74-4L410,244.73l-8.41,18A22.56,22.56,0,0,1,404,264.06ZM382.4,301.68a11,11,0,0,0-7.19,10.37,10.8,10.8,0,0,0,1,4.62l-.32.68-17.24,13.41-.2-.08c.18.42-17.75-8.32-17.75-8.32l-8.33,12.1L327,332.75a10.8,10.8,0,0,0,.24-2.27,11,11,0,0,0-5.17-9.36l39.23-85.49a10.77,10.77,0,0,0,3.11.18Zm-9.95,23.1-1,2.11c-1.4,2.15-4,4.95-8.12,5ZM367,214.26a11.07,11.07,0,0,0-13.39,5.52l-64.1-23.9a1.41,1.41,0,0,0,0-.21,1,1,0,0,0,0-.17c0-.25,0-.49,0-.73s0-.53,0-.8,0-.52-.08-.78a5,5,0,0,0-.15-.77,6.14,6.14,0,0,0-.18-.74l101-38.41a11,11,0,0,0,3.29,3.54Zm-14.49,9.06a10,10,0,0,0-.09,1.45,11.15,11.15,0,0,0,5.39,9.52l-39.19,85.4a10.75,10.75,0,0,0-2.47-.28,11.14,11.14,0,0,0-10.17,6.7l-67.65-21.36a11.73,11.73,0,0,0,.14-1.77,11,11,0,0,0-4.58-9l40.7-87.59.51-1.1h.07a4.81,4.81,0,0,0,.65.18l.66.14c.16,0,.32.06.49.09s.41.05.63.06a8.77,8.77,0,0,0,.9,0c.3,0,.6,0,.9,0s.53,0,.79-.09a3.55,3.55,0,0,0,.47-.09l.36-.07.63-.17c.24-.08.5-.15.74-.24a11.15,11.15,0,0,0,2.2-1.13,4.37,4.37,0,0,0,.62-.44,9.22,9.22,0,0,0,1.15-1c.14-.13.25-.26.37-.39s.12-.12.17-.19a5.84,5.84,0,0,0,.39-.48c.16-.21.31-.43.45-.64a6.59,6.59,0,0,0,.42-.71,3.21,3.21,0,0,0,.24-.45,1.39,1.39,0,0,0,.11-.21ZM237.13,308.27l68,21.45c0,.25,0,.5,0,.76a11,11,0,0,0,4.51,8.91l-6.83,14.86L188.5,391.69l36.22-77.95a10.92,10.92,0,0,0,2.68.32A11.05,11.05,0,0,0,237.13,308.27Zm68.34,49,19.92-6.53L347.3,361l4.07,73.69-.27.07a.15.15,0,0,0-.07,0,8.33,8.33,0,0,0-.84.29.75.75,0,0,0-.18.07c-.23.1-.46.2-.69.32a6.46,6.46,0,0,0-1.05.6,8.75,8.75,0,0,0-1.54,1.18,10.63,10.63,0,0,0-1.88,2.29,5.37,5.37,0,0,0-.41.73,1.87,1.87,0,0,0-.17.35,39.38,39.38,0,0,0-.36.84,4.23,4.23,0,0,0-.24.71.48.48,0,0,0-.05.18,2.34,2.34,0,0,0-.14.58,4,4,0,0,0-.11.47,12.26,12.26,0,0,0-.17,1.84l-90.68,27.41Zm45.65,5.52,2.89,1.35c5.91,2.78,11.68,5.61,17.38,8.32l-17.66,37.71Zm61.6,35.76-1.87-6.86c1.39.66,2.78,1.32,4.17,2ZM442,181.22l.06-.13-15.63-7.32,25.64-22.05v34.09C448.67,184.28,445.3,182.76,442,181.22Zm10.07-41.9L434,100.81a10.38,10.38,0,0,0,1.64-1.4c.16-.16.3-.31.44-.48a3.17,3.17,0,0,0,.32-.39c.14-.18.27-.35.4-.54s.23-.34.33-.52a10.48,10.48,0,0,0,.89-1.81c.08-.21.16-.43.22-.63s.13-.44.18-.65.1-.43.14-.66.08-.43.11-.65.05-.45.06-.68,0-.45,0-.68,0-.45,0-.66a2.74,2.74,0,0,0,0-.5,1.4,1.4,0,0,0,0-.23c0-.18-.06-.38-.09-.55a9.83,9.83,0,0,0-.36-1.49l-.16-.42a7.25,7.25,0,0,0-.51-1.18,5,5,0,0,0-.31-.56,5.09,5.09,0,0,0-.3-.5,10.35,10.35,0,0,0-1.21-1.52c-.15-.16-.32-.33-.48-.48a8.28,8.28,0,0,0-.84-.71l-.09-.06s-.05,0-.07-.06l17.8-35.47Zm-.62-99.07L431,81.13a8.47,8.47,0,0,0-1.41-.32,4.37,4.37,0,0,0-.54-.08,6.33,6.33,0,0,0-.64-.06l-.65,0a4.16,4.16,0,0,0-.61,0l-.6,0a4.3,4.3,0,0,0-.6.08,4,4,0,0,0-.6.11l-.54.13L389.71,6.24Zm-66.32-35,36.25,77.37A10.32,10.32,0,0,0,419.77,84c-.17.17-.32.35-.48.53s-.33.39-.48.6a7.23,7.23,0,0,0-.44.64c-.14.22-.27.44-.4.67s-.24.46-.35.7-.2.47-.29.7a11.57,11.57,0,0,0-.38,1.23c0,.18-.09.38-.12.57a.43.43,0,0,0,0,.11,5.77,5.77,0,0,0-.09.6c0,.22-.05.45-.07.68s0,.45,0,.68,0,.45,0,.67a4.38,4.38,0,0,0,0,.5,1.43,1.43,0,0,0,0,.23,5.25,5.25,0,0,0,.09.55,8.89,8.89,0,0,0,.36,1.48l.15.43a10.15,10.15,0,0,0,1.37,2.58c.14.21.3.41.46.61s.33.38.5.56.41.41.62.6l.43.36.22.18c.06.06.14.11.22.18L411,120.79l-8.18,16.28a11.22,11.22,0,0,0-8.18.7l-56.8-77.3ZM335,62.77,391.67,140a10.72,10.72,0,0,0-2.09,3l-136.81-37.2Zm-86.64,45.68,140.3,38.15c0,.15,0,.31,0,.46l-196,22.39Zm-58.21,65,146.65-16.75L385,151.2l-97.54,37.11a9.63,9.63,0,0,0-.76-.93,3,3,0,0,0-.29-.32l-.35-.35a7.72,7.72,0,0,0-.87-.74,4.41,4.41,0,0,0-.49-.36,10.11,10.11,0,0,0-2.65-1.32l-.49-.17a11.62,11.62,0,0,0-2-.37,3.27,3.27,0,0,0-.45,0l-.67,0a11.09,11.09,0,0,0-11.08,11.08c0,.23,0,.47,0,.7a3.13,3.13,0,0,0,0,.43l-65.84,25ZM201.54,225l66.94-25.45a1.29,1.29,0,0,0,.09.16,7.18,7.18,0,0,0,.54,1c.1.15.2.31.31.46a10.91,10.91,0,0,0,2.29,2.41l.09.08-41.25,88.79a10.78,10.78,0,0,0-3.15-.47,11.14,11.14,0,0,0-10,6.24l-54.54-17.22ZM188,329.81l-24.28-44.72,42.74,13.49,9.9,3.12a9.17,9.17,0,0,0-.08,1.28,11.05,11.05,0,0,0,5,9.26L187.06,386l1.2-55.24A1.74,1.74,0,0,0,188,329.81Zm.08,65.92,112.52-36.87-52,113.22ZM325.27,574.31l-77-53.65L250.7,480,353.85,587.38Zm-27.9-51.13L266.3,490.84l-13.75-14.33L343.78,449h0a8.53,8.53,0,0,0,.3.81,10.94,10.94,0,0,0,2.49,3.57c.18.18.36.34.55.5a11.64,11.64,0,0,0,1.2.89,11.24,11.24,0,0,0,4.22,1.6l7.27,131.91Zm96,52.39-.21.09-29.52,14.58-7.39-134a10.9,10.9,0,0,0,2.26-.67c.33-.14.65-.29,1-.46l.08,0c.24-.14.48-.28.71-.44l.29-.18,90.1,101.11Zm58.68-33L423.69,438.69l16-34.14c4.22,1.68,8.35,3.23,12.39,4.62Zm3.71-169.67c-1.23-.24-2.47-.51-3.71-.81-16.63-4-33.69-13.11-42.08-17l25.2-53.77c4,1.86,10.07,4.4,16.88,7.61,1.22.57,2.46,1.17,3.71,1.79a158.31,158.31,0,0,1,14,7.7q1.89,1.19,3.71,2.43c14.48,9.94,25.26,23.06,17.6,39.42-3.76,8-10.06,12-17.6,13.33a37.23,37.23,0,0,1-3.71.44A54.61,54.61,0,0,1,455.79,372.9ZM473.47,415c13,2.43,24.82,2.25,35.32-1.68L473.47,542.57Zm88.41,175.24-29.52-14.58-.21-.09-57.3-20L565,454.49l.28.18c.24.16.48.3.72.44l.08,0c.32.17.64.32,1,.46a10.72,10.72,0,0,0,2.26.67ZM573,456.32a11.24,11.24,0,0,0,4.22-1.6,11.64,11.64,0,0,0,1.2-.89c.19-.16.37-.32.55-.5a10.94,10.94,0,0,0,2.49-3.57,8.53,8.53,0,0,0,.3-.81h0L673,476.51l-13.75,14.33-31.07,32.34-62.46,65.05Zm27.29,118L571.7,587.38,674.84,480l2.46,40.7Zm76.6-102.23-52-113.22,112.52,36.87Zm60.63-142.27a1.74,1.74,0,0,0-.22.92l1.2,55.24-34.25-73.73a11.05,11.05,0,0,0,5-9.26,9.17,9.17,0,0,0-.08-1.28l9.9-3.12,42.74-13.49Zm-29.39-31.67a11.14,11.14,0,0,0-10-6.24,10.78,10.78,0,0,0-3.15.47l-41.25-88.79.09-.08a10.91,10.91,0,0,0,2.29-2.41c.11-.15.21-.31.31-.46a7.18,7.18,0,0,0,.54-1,1.29,1.29,0,0,0,.09-.16L724,225l38.65,56Z"/></g></g></svg>